<svg version="1.1" viewBox="0.0 0.0 600.0 371.0" fill="none" stroke="none" stroke-linecap="square" stroke-miterlimit="10" width="600" height="371" xmlns:xlink="http://www.w3.org/1999/xlink" xmlns="http://www.w3.org/2000/svg"><path fill="#ffffff" d="M0 0L600.0 0L600.0 371.0L0 371.0L0 0Z" fill-rule="nonzero"/><path stroke="#cccccc" stroke-width="1.0" stroke-linecap="butt" d="M78.5 89.5L78.5 298.5" fill-rule="nonzero"/><path stroke="#cccccc" stroke-width="1.0" stroke-linecap="butt" d="M150.5 89.5L150.5 298.5" fill-rule="nonzero"/><path stroke="#cccccc" stroke-width="1.0" stroke-linecap="butt" d="M222.5 89.5L222.5 298.5" fill-rule="nonzero"/><path stroke="#cccccc" stroke-width="1.0" stroke-linecap="butt" d="M294.5 89.5L294.5 298.5" fill-rule="nonzero"/><path stroke="#cccccc" stroke-width="1.0" stroke-linecap="butt" d="M366.5 89.5L366.5 298.5" fill-rule="nonzero"/><path stroke="#cccccc" stroke-width="1.0" stroke-linecap="butt" d="M438.5 89.5L438.5 298.5" fill-rule="nonzero"/><path stroke="#cccccc" stroke-width="1.0" stroke-linecap="butt" d="M510.5 89.5L510.5 298.5" fill-rule="nonzero"/><path stroke="#333333" stroke-width="1.0" stroke-linecap="butt" d="M78.5 298.5L581.5 298.5" fill-rule="nonzero"/><path stroke="#cccccc" stroke-width="1.0" stroke-linecap="butt" d="M78.5 228.5L581.5 228.5" fill-rule="nonzero"/><path stroke="#cccccc" stroke-width="1.0" stroke-linecap="butt" d="M78.5 159.5L581.5 159.5" fill-rule="nonzero"/><path stroke="#cccccc" stroke-width="1.0" stroke-linecap="butt" d="M78.5 89.5L581.5 89.5" fill-rule="nonzero"/><clipPath id="id_0"><path d="M78.55 89.78333L581.45 89.78333L581.45 298.45L78.55 298.45L78.55 89.78333Z" clip-rule="nonzero"/></clipPath><path stroke="#4285f4" stroke-width="2.0" stroke-linecap="butt" clip-path="url(#id_0)" d="M78.55 298.45L128.84 298.45L179.13 298.45L229.42 298.10223L279.71 298.10223L330.0 297.75446L380.29 296.71112L430.58 293.9289L480.87 284.1911L531.16 224.02556" fill-rule="nonzero"/><path stroke="#db4437" stroke-width="2.0" stroke-linecap="butt" clip-path="url(#id_0)" d="M78.55 298.10223L128.84 298.10223L179.13 298.10223L229.42 298.10223L279.71 297.75446L330.0 297.40668L380.29 295.32L430.58 291.49445L480.87 262.2811L531.16 116.562225" fill-rule="nonzero"/><path fill="#000000" fill-opacity="0.0" clip-path="url(#id_0)" d="M81.55 298.45C81.55 300.10684 80.206856 301.45 78.55 301.45C76.89314 301.45 75.55 300.10684 75.55 298.45C75.55 296.79315 76.89314 295.45 78.55 295.45C80.206856 295.45 81.55 296.79315 81.55 298.45Z" fill-rule="nonzero"/><path fill="#000000" fill-opacity="0.0" clip-path="url(#id_0)" d="M131.84 298.45C131.84 300.10684 130.49686 301.45 128.84 301.45C127.18314 301.45 125.84 300.10684 125.84 298.45C125.84 296.79315 127.18314 295.45 128.84 295.45C130.49686 295.45 131.84 296.79315 131.84 298.45Z" fill-rule="nonzero"/><path fill="#000000" fill-opacity="0.0" clip-path="url(#id_0)" d="M182.13 298.45C182.13 300.10684 180.78685 301.45 179.13 301.45C177.47314 301.45 176.13 300.10684 176.13 298.45C176.13 296.79315 177.47314 295.45 179.13 295.45C180.78685 295.45 182.13 296.79315 182.13 298.45Z" fill-rule="nonzero"/><path fill="#000000" fill-opacity="0.0" clip-path="url(#id_0)" d="M232.42 298.10223C232.42 299.75906 231.07686 301.10223 229.42 301.10223C227.76315 301.10223 226.42 299.75906 226.42 298.10223C226.42 296.44537 227.76315 295.10223 229.42 295.10223C231.07686 295.10223 232.42 296.44537 232.42 298.10223Z" fill-rule="nonzero"/><path fill="#000000" fill-opacity="0.0" clip-path="url(#id_0)" d="M282.71 298.10223C282.71 299.75906 281.36685 301.10223 279.71 301.10223C278.05313 301.10223 276.71 299.75906 276.71 298.10223C276.71 296.44537 278.05313 295.10223 279.71 295.10223C281.36685 295.10223 282.71 296.44537 282.71 298.10223Z" fill-rule="nonzero"/><path fill="#000000" fill-opacity="0.0" clip-path="url(#id_0)" d="M333.0 297.75446C333.0 299.4113 331.65686 300.75446 330.0 300.75446C328.34314 300.75446 327.0 299.4113 327.0 297.75446C327.0 296.0976 328.34314 294.75446 330.0 294.75446C331.65686 294.75446 333.0 296.0976 333.0 297.75446Z" fill-rule="nonzero"/><path fill="#000000" fill-opacity="0.0" clip-path="url(#id_0)" d="M383.29 296.71112C383.29 298.36795 381.94687 299.71112 380.29 299.71112C378.63315 299.71112 377.29 298.36795 377.29 296.71112C377.29 295.05426 378.63315 293.71112 380.29 293.71112C381.94687 293.71112 383.29 295.05426 383.29 296.71112Z" fill-rule="nonzero"/><path fill="#000000" fill-opacity="0.0" clip-path="url(#id_0)" d="M433.58 293.9289C433.58 295.58575 432.23685 296.9289 430.58 296.9289C428.92316 296.9289 427.58 295.58575 427.58 293.9289C427.58 292.27203 428.92316 290.9289 430.58 290.9289C432.23685 290.9289 433.58 292.27203 433.58 293.9289Z" fill-rule="nonzero"/><path fill="#000000" fill-opacity="0.0" clip-path="url(#id_0)" d="M483.87 284.1911C483.87 285.84796 482.52686 287.1911 480.87 287.1911C479.21313 287.1911 477.87 285.84796 477.87 284.1911C477.87 282.53427 479.21313 281.1911 480.87 281.1911C482.52686 281.1911 483.87 282.53427 483.87 284.1911Z" fill-rule="nonzero"/><path fill="#000000" fill-opacity="0.0" clip-path="url(#id_0)" d="M534.16 224.02556C534.16 225.6824 532.81683 227.02556 531.16 227.02556C529.5032 227.02556 528.16 225.6824 528.16 224.02556C528.16 222.3687 529.5032 221.02556 531.16 221.02556C532.81683 221.02556 534.16 222.3687 534.16 224.02556Z" fill-rule="nonzero"/><path fill="#000000" fill-opacity="0.0" clip-path="url(#id_0)" d="M81.55 298.10223C81.55 299.75906 80.206856 301.10223 78.55 301.10223C76.89314 301.10223 75.55 299.75906 75.55 298.10223C75.55 296.44537 76.89314 295.10223 78.55 295.10223C80.206856 295.10223 81.55 296.44537 81.55 298.10223Z" fill-rule="nonzero"/><path fill="#000000" fill-opacity="0.0" clip-path="url(#id_0)" d="M131.84 298.10223C131.84 299.75906 130.49686 301.10223 128.84 301.10223C127.18314 301.10223 125.84 299.75906 125.84 298.10223C125.84 296.44537 127.18314 295.10223 128.84 295.10223C130.49686 295.10223 131.84 296.44537 131.84 298.10223Z" fill-rule="nonzero"/><path fill="#000000" fill-opacity="0.0" clip-path="url(#id_0)" d="M182.13 298.10223C182.13 299.75906 180.78685 301.10223 179.13 301.10223C177.47314 301.10223 176.13 299.75906 176.13 298.10223C176.13 296.44537 177.47314 295.10223 179.13 295.10223C180.78685 295.10223 182.13 296.44537 182.13 298.10223Z" fill-rule="nonzero"/><path fill="#000000" fill-opacity="0.0" clip-path="url(#id_0)" d="M232.42 298.10223C232.42 299.75906 231.07686 301.10223 229.42 301.10223C227.76315 301.10223 226.42 299.75906 226.42 298.10223C226.42 296.44537 227.76315 295.10223 229.42 295.10223C231.07686 295.10223 232.42 296.44537 232.42 298.10223Z" fill-rule="nonzero"/><path fill="#000000" fill-opacity="0.0" clip-path="url(#id_0)" d="M282.71 297.75446C282.71 299.4113 281.36685 300.75446 279.71 300.75446C278.05313 300.75446 276.71 299.4113 276.71 297.75446C276.71 296.0976 278.05313 294.75446 279.71 294.75446C281.36685 294.75446 282.71 296.0976 282.71 297.75446Z" fill-rule="nonzero"/><path fill="#000000" fill-opacity="0.0" clip-path="url(#id_0)" d="M333.0 297.40668C333.0 299.0635 331.65686 300.40668 330.0 300.40668C328.34314 300.40668 327.0 299.0635 327.0 297.40668C327.0 295.74982 328.34314 294.40668 330.0 294.40668C331.65686 294.40668 333.0 295.74982 333.0 297.40668Z" fill-rule="nonzero"/><path fill="#000000" fill-opacity="0.0" clip-path="url(#id_0)" d="M383.29 295.32C383.29 296.97687 381.94687 298.32 380.29 298.32C378.63315 298.32 377.29 296.97687 377.29 295.32C377.29 293.66315 378.63315 292.32 380.29 292.32C381.94687 292.32 383.29 293.66315 383.29 295.32Z" fill-rule="nonzero"/><path fill="#000000" fill-opacity="0.0" clip-path="url(#id_0)" d="M433.58 291.49445C433.58 293.1513 432.23685 294.49445 430.58 294.49445C428.92316 294.49445 427.58 293.1513 427.58 291.49445C427.58 289.8376 428.92316 288.49445 430.58 288.49445C432.23685 288.49445 433.58 289.8376 433.58 291.49445Z" fill-rule="nonzero"/><path fill="#000000" fill-opacity="0.0" clip-path="url(#id_0)" d="M483.87 262.2811C483.87 263.93796 482.52686 265.2811 480.87 265.2811C479.21313 265.2811 477.87 263.93796 477.87 262.2811C477.87 260.62427 479.21313 259.2811 480.87 259.2811C482.52686 259.2811 483.87 260.62427 483.87 262.2811Z" fill-rule="nonzero"/><path fill="#000000" fill-opacity="0.0" clip-path="url(#id_0)" d="M534.16 116.562225C534.16 118.21908 532.81683 119.562225 531.16 119.562225C529.5032 119.562225 528.16 118.21908 528.16 116.562225C528.16 114.905365 529.5032 113.562225 531.16 113.562225C532.81683 113.562225 534.16 114.905365 534.16 116.562225Z" fill-rule="nonzero"/><path fill="#424242" d="M265.51562 347.7625Q265.51562 347.325 265.17188 347.09064Q264.84375 346.84064 264.01562 346.66876Q263.20312 346.4969 262.71875 346.2469Q262.23438 345.9969 262.0 345.66876Q261.78125 345.325 261.78125 344.85626Q261.78125 344.075 262.4375 343.54376Q263.09375 342.9969 264.125 342.9969Q265.20312 342.9969 265.85938 343.5594Q266.53125 344.10626 266.53125 344.96564L265.45312 344.96564Q265.45312 344.52814 265.0625 344.21564Q264.6875 343.8875 264.125 343.8875Q263.53125 343.8875 263.1875 344.15314Q262.85938 344.40314 262.85938 344.8094Q262.85938 345.2 263.17188 345.40314Q263.48438 345.60626 264.29688 345.79376Q265.10938 345.96564 265.60938 346.21564Q266.10938 346.46564 266.34375 346.825Q266.59375 347.1844 266.59375 347.6844Q266.59375 348.54376 265.90625 349.0594Q265.23438 349.575 264.15625 349.575Q263.39062 349.575 262.79688 349.3094Q262.21875 349.02814 261.89062 348.54376Q261.5625 348.0594 261.5625 347.4969L262.64062 347.4969Q262.67188 348.04376 263.07812 348.3719Q263.48438 348.6844 264.15625 348.6844Q264.76562 348.6844 265.14062 348.4344Q265.51562 348.1844 265.51562 347.7625ZM269.0 349.45L267.92188 349.45L267.92188 343.10626L269.0 343.10626L269.0 349.45ZM267.82812 341.4344Q267.82812 341.16876 267.98438 340.98126Q268.15625 340.79376 268.46875 340.79376Q268.78125 340.79376 268.9375 340.98126Q269.10938 341.16876 269.10938 341.4344Q269.10938 341.6844 268.9375 341.8719Q268.78125 342.04376 268.46875 342.04376Q268.15625 342.04376 267.98438 341.8719Q267.82812 341.6844 267.82812 341.4344ZM271.84375 348.5594L275.54688 348.5594L275.54688 349.45L270.51562 349.45L270.51562 348.65314L274.01562 344.0125L270.5625 344.0125L270.5625 343.10626L275.375 343.10626L275.375 343.8719L271.84375 348.5594ZM279.45312 349.575Q278.15625 349.575 277.34375 348.73126Q276.54688 347.8719 276.54688 346.45L276.54688 346.2625Q276.54688 345.3094 276.90625 344.575Q277.26562 343.825 277.90625 343.41876Q278.5625 342.9969 279.3125 342.9969Q280.54688 342.9969 281.23438 343.8094Q281.92188 344.6219 281.92188 346.1375L281.92188 346.59064L277.625 346.59064Q277.65625 347.52814 278.17188 348.10626Q278.70312 348.6844 279.51562 348.6844Q280.07812 348.6844 280.46875 348.45Q280.875 348.21564 281.1875 347.825L281.84375 348.34064Q281.04688 349.575 279.45312 349.575ZM279.3125 343.8875Q278.65625 343.8875 278.20312 344.3719Q277.76562 344.84064 277.67188 345.7L280.84375 345.7L280.84375 345.6219Q280.79688 344.79376 280.39062 344.34064Q280.0 343.8875 279.3125 343.8875ZM285.53125 346.21564Q285.53125 345.29376 285.89062 344.54376Q286.26562 343.79376 286.92188 343.40314Q287.57812 342.9969 288.40625 342.9969Q289.70312 342.9969 290.5 343.8875Q291.3125 344.77814 291.3125 346.27814L291.3125 346.35626Q291.3125 347.27814 290.95312 348.0125Q290.59375 348.7469 289.9375 349.16876Q289.28125 349.575 288.42188 349.575Q287.14062 349.575 286.32812 348.6844Q285.53125 347.77814 285.53125 346.29376L285.53125 346.21564ZM286.625 346.35626Q286.625 347.40314 287.10938 348.04376Q287.60938 348.6844 288.42188 348.6844Q289.25 348.6844 289.73438 348.04376Q290.21875 347.3875 290.21875 346.21564Q290.21875 345.1844 289.71875 344.54376Q289.23438 343.8875 288.40625 343.8875Q287.60938 343.8875 287.10938 344.52814Q286.625 345.15314 286.625 346.35626ZM293.35938 349.45L293.35938 343.95L292.35938 343.95L292.35938 343.10626L293.35938 343.10626L293.35938 342.46564Q293.35938 341.4344 293.89062 340.8875Q294.4375 340.325 295.4375 340.325Q295.8125 340.325 296.1875 340.41876L296.125 341.3094Q295.84375 341.2469 295.54688 341.2469Q295.01562 341.2469 294.71875 341.5594Q294.4375 341.8719 294.4375 342.4344L294.4375 343.10626L295.79688 343.10626L295.79688 343.95L294.4375 343.95L294.4375 349.45L293.35938 349.45ZM303.73438 349.45Q303.64062 349.2625 303.57812 348.77814Q302.82812 349.575 301.78125 349.575Q300.84375 349.575 300.23438 349.04376Q299.64062 348.5125 299.64062 347.6844Q299.64062 346.7 300.39062 346.15314Q301.14062 345.60626 302.51562 345.60626L303.5625 345.60626L303.5625 345.10626Q303.5625 344.54376 303.21875 344.21564Q302.89062 343.8719 302.21875 343.8719Q301.64062 343.8719 301.25 344.16876Q300.85938 344.45 300.85938 344.8719L299.76562 344.8719Q299.76562 344.3875 300.09375 343.95Q300.4375 343.5125 301.01562 343.2625Q301.59375 342.9969 302.28125 342.9969Q303.39062 342.9969 304.0 343.54376Q304.625 344.09064 304.65625 345.04376L304.65625 347.96564Q304.65625 348.84064 304.875 349.35626L304.875 349.45L303.73438 349.45ZM301.9375 348.6219Q302.45312 348.6219 302.90625 348.35626Q303.35938 348.09064 303.5625 347.66876L303.5625 346.3719L302.71875 346.3719Q300.71875 346.3719 300.71875 347.54376Q300.71875 348.04376 301.0625 348.34064Q301.40625 348.6219 301.9375 348.6219ZM309.89062 344.075Q309.64062 344.04376 309.35938 344.04376Q308.28125 344.04376 307.90625 344.95L307.90625 349.45L306.82812 349.45L306.82812 343.10626L307.875 343.10626L307.89062 343.84064Q308.42188 342.9969 309.40625 342.9969Q309.71875 342.9969 309.89062 343.075L309.89062 344.075ZM313.89062 344.075Q313.64062 344.04376 313.35938 344.04376Q312.28125 344.04376 311.90625 344.95L311.90625 349.45L310.82812 349.45L310.82812 343.10626L311.875 343.10626L311.89062 343.84064Q312.42188 342.9969 313.40625 342.9969Q313.71875 342.9969 313.89062 343.075L313.89062 344.075ZM318.73438 349.45Q318.64062 349.2625 318.57812 348.77814Q317.82812 349.575 316.78125 349.575Q315.84375 349.575 315.23438 349.04376Q314.64062 348.5125 314.64062 347.6844Q314.64062 346.7 315.39062 346.15314Q316.14062 345.60626 317.51562 345.60626L318.5625 345.60626L318.5625 345.10626Q318.5625 344.54376 318.21875 344.21564Q317.89062 343.8719 317.21875 343.8719Q316.64062 343.8719 316.25 344.16876Q315.85938 344.45 315.85938 344.8719L314.76562 344.8719Q314.76562 344.3875 315.09375 343.95Q315.4375 343.5125 316.01562 343.2625Q316.59375 342.9969 317.28125 342.9969Q318.39062 342.9969 319.0 343.54376Q319.625 344.09064 319.65625 345.04376L319.65625 347.96564Q319.65625 348.84064 319.875 349.35626L319.875 349.45L318.73438 349.45ZM316.9375 348.6219Q317.45312 348.6219 317.90625 348.35626Q318.35938 348.09064 318.5625 347.66876L318.5625 346.3719L317.71875 346.3719Q315.71875 346.3719 315.71875 347.54376Q315.71875 348.04376 316.0625 348.34064Q316.40625 348.6219 316.9375 348.6219ZM323.89062 347.85626L325.375 343.10626L326.53125 343.10626L323.98438 350.4344Q323.39062 352.0125 322.10938 352.0125L321.89062 351.9969L321.5 351.91876L321.5 351.04376L321.78125 351.0594Q322.34375 351.0594 322.64062 350.84064Q322.95312 350.6219 323.15625 350.02814L323.39062 349.3719L321.125 343.10626L322.3125 343.10626L323.89062 347.85626ZM336.1875 346.35626Q336.1875 347.8094 335.51562 348.7Q334.85938 349.575 333.73438 349.575Q332.53125 349.575 331.875 348.71564L331.8125 349.45L330.82812 349.45L330.82812 340.45L331.90625 340.45L331.90625 343.8094Q332.5625 342.9969 333.71875 342.9969Q334.875 342.9969 335.53125 343.8719Q336.1875 344.73126 336.1875 346.2625L336.1875 346.35626ZM335.10938 346.23126Q335.10938 345.1219 334.67188 344.52814Q334.25 343.91876 333.45312 343.91876Q332.375 343.91876 331.90625 344.90314L331.90625 347.65314Q332.40625 348.65314 333.45312 348.65314Q334.23438 348.65314 334.67188 348.04376Q335.10938 347.4344 335.10938 346.23126ZM340.45312 349.575Q339.15625 349.575 338.34375 348.73126Q337.54688 347.8719 337.54688 346.45L337.54688 346.2625Q337.54688 345.3094 337.90625 344.575Q338.26562 343.825 338.90625 343.41876Q339.5625 342.9969 340.3125 342.9969Q341.54688 342.9969 342.23438 343.8094Q342.92188 344.6219 342.92188 346.1375L342.92188 346.59064L338.625 346.59064Q338.65625 347.52814 339.17188 348.10626Q339.70312 348.6844 340.51562 348.6844Q341.07812 348.6844 341.46875 348.45Q341.875 348.21564 342.1875 347.825L342.84375 348.34064Q342.04688 349.575 340.45312 349.575ZM340.3125 343.8875Q339.65625 343.8875 339.20312 344.3719Q338.76562 344.84064 338.67188 345.7L341.84375 345.7L341.84375 345.6219Q341.79688 344.79376 341.39062 344.34064Q341.0 343.8875 340.3125 343.8875ZM345.0 349.45L343.92188 349.45L343.92188 343.10626L345.0 343.10626L345.0 349.45ZM343.82812 341.4344Q343.82812 341.16876 343.98438 340.98126Q344.15625 340.79376 344.46875 340.79376Q344.78125 340.79376 344.9375 340.98126Q345.10938 341.16876 345.10938 341.4344Q345.10938 341.6844 344.9375 341.8719Q344.78125 342.04376 344.46875 342.04376Q344.15625 342.04376 343.98438 341.8719Q343.82812 341.6844 343.82812 341.4344ZM347.84375 343.10626L347.875 343.90314Q348.60938 342.9969 349.78125 342.9969Q351.79688 342.9969 351.8125 345.2625L351.8125 349.45L350.71875 349.45L350.71875 345.2469Q350.71875 344.575 350.40625 344.2469Q350.10938 343.91876 349.45312 343.91876Q348.92188 343.91876 348.51562 344.2Q348.125 344.48126 347.90625 344.9344L347.90625 349.45L346.82812 349.45L346.82812 343.10626L347.84375 343.10626ZM353.5625 346.23126Q353.5625 344.7469 354.25 343.8719Q354.9375 342.9969 356.0625 342.9969Q357.21875 342.9969 357.875 343.8094L357.92188 343.10626L358.92188 343.10626L358.92188 349.29376Q358.92188 350.52814 358.1875 351.23126Q357.45312 351.95 356.23438 351.95Q355.54688 351.95 354.89062 351.65314Q354.23438 351.35626 353.89062 350.85626L354.45312 350.2Q355.14062 351.0594 356.15625 351.0594Q356.9375 351.0594 357.375 350.60626Q357.82812 350.16876 357.82812 349.35626L357.82812 348.8094Q357.17188 349.575 356.04688 349.575Q354.9375 349.575 354.25 348.6844Q353.5625 347.77814 353.5625 346.23126ZM354.65625 346.35626Q354.65625 347.41876 355.09375 348.04376Q355.53125 348.65314 356.32812 348.65314Q357.34375 348.65314 357.82812 347.71564L357.82812 344.825Q357.32812 343.91876 356.32812 343.91876Q355.54688 343.91876 355.09375 344.52814Q354.65625 345.1375 354.65625 346.35626ZM366.35938 348.6844Q366.9375 348.6844 367.375 348.34064Q367.8125 347.98126 367.85938 347.45L368.89062 347.45Q368.85938 347.9969 368.5 348.4969Q368.15625 348.98126 367.57812 349.27814Q367.01562 349.575 366.35938 349.575Q365.0625 349.575 364.29688 348.71564Q363.54688 347.84064 363.54688 346.34064L363.54688 346.15314Q363.54688 345.23126 363.875 344.5125Q364.21875 343.79376 364.84375 343.40314Q365.48438 342.9969 366.35938 342.9969Q367.42188 342.9969 368.125 343.6375Q368.84375 344.2625 368.89062 345.29376L367.85938 345.29376Q367.8125 344.66876 367.39062 344.27814Q366.96875 343.8875 366.35938 343.8875Q365.53125 343.8875 365.07812 344.48126Q364.625 345.075 364.625 346.2L364.625 346.40314Q364.625 347.4969 365.07812 348.09064Q365.53125 348.6844 366.35938 348.6844ZM369.53125 346.21564Q369.53125 345.29376 369.89062 344.54376Q370.26562 343.79376 370.92188 343.40314Q371.57812 342.9969 372.40625 342.9969Q373.70312 342.9969 374.5 343.8875Q375.3125 344.77814 375.3125 346.27814L375.3125 346.35626Q375.3125 347.27814 374.95312 348.0125Q374.59375 348.7469 373.9375 349.16876Q373.28125 349.575 372.42188 349.575Q371.14062 349.575 370.32812 348.6844Q369.53125 347.77814 369.53125 346.29376L369.53125 346.21564ZM370.625 346.35626Q370.625 347.40314 371.10938 348.04376Q371.60938 348.6844 372.42188 348.6844Q373.25 348.6844 373.73438 348.04376Q374.21875 347.3875 374.21875 346.21564Q374.21875 345.1844 373.71875 344.54376Q373.23438 343.8875 372.40625 343.8875Q371.60938 343.8875 371.10938 344.52814Q370.625 345.15314 370.625 346.35626ZM382.17188 346.35626Q382.17188 347.79376 381.51562 348.6844Q380.85938 349.575 379.71875 349.575Q378.5625 349.575 377.90625 348.84064L377.90625 351.8875L376.82812 351.8875L376.82812 343.10626L377.8125 343.10626L377.85938 343.8094Q378.53125 342.9969 379.70312 342.9969Q380.84375 342.9969 381.5 343.85626Q382.17188 344.71564 382.17188 346.2469L382.17188 346.35626ZM381.09375 346.23126Q381.09375 345.15314 380.625 344.54376Q380.17188 343.91876 379.375 343.91876Q378.39062 343.91876 377.90625 344.77814L377.90625 347.8094Q378.39062 348.6844 379.39062 348.6844Q380.17188 348.6844 380.625 348.075Q381.09375 347.45 381.09375 346.23126ZM385.0 349.45L383.92188 349.45L383.92188 343.10626L385.0 343.10626L385.0 349.45ZM383.82812 341.4344Q383.82812 341.16876 383.98438 340.98126Q384.15625 340.79376 384.46875 340.79376Q384.78125 340.79376 384.9375 340.98126Q385.10938 341.16876 385.10938 341.4344Q385.10938 341.6844 384.9375 341.8719Q384.78125 342.04376 384.46875 342.04376Q384.15625 342.04376 383.98438 341.8719Q383.82812 341.6844 383.82812 341.4344ZM389.45312 349.575Q388.15625 349.575 387.34375 348.73126Q386.54688 347.8719 386.54688 346.45L386.54688 346.2625Q386.54688 345.3094 386.90625 344.575Q387.26562 343.825 387.90625 343.41876Q388.5625 342.9969 389.3125 342.9969Q390.54688 342.9969 391.23438 343.8094Q391.92188 344.6219 391.92188 346.1375L391.92188 346.59064L387.625 346.59064Q387.65625 347.52814 388.17188 348.10626Q388.70312 348.6844 389.51562 348.6844Q390.07812 348.6844 390.46875 348.45Q390.875 348.21564 391.1875 347.825L391.84375 348.34064Q391.04688 349.575 389.45312 349.575ZM389.3125 343.8875Q388.65625 343.8875 388.20312 344.3719Q387.76562 344.84064 387.67188 345.7L390.84375 345.7L390.84375 345.6219Q390.79688 344.79376 390.39062 344.34064Q390.0 343.8875 389.3125 343.8875ZM392.5625 346.23126Q392.5625 344.7625 393.25 343.8875Q393.9375 342.9969 395.0625 342.9969Q396.17188 342.9969 396.82812 343.7469L396.82812 340.45L397.90625 340.45L397.90625 349.45L396.90625 349.45L396.85938 348.7625Q396.20312 349.575 395.04688 349.575Q393.95312 349.575 393.25 348.66876Q392.5625 347.7625 392.5625 346.3094L392.5625 346.23126ZM393.64062 346.35626Q393.64062 347.4344 394.07812 348.04376Q394.53125 348.65314 395.3125 348.65314Q396.34375 348.65314 396.82812 347.71564L396.82812 344.8094Q396.34375 343.91876 395.32812 343.91876Q394.53125 343.91876 394.07812 344.52814Q393.64062 345.1375 393.64062 346.35626Z" fill-rule="nonzero"/><path fill="#424242" d="M24.206263 207.52292L24.909388 207.49167Q24.096888 206.80417 24.096888 205.61667Q24.096888 204.28854 25.112513 203.80417Q24.659388 203.49167 24.378138 202.99167Q24.096888 202.47604 24.096888 201.78854Q24.096888 199.6948 26.300013 199.66354L30.550013 199.66354L30.550013 200.74167L26.362513 200.74167Q25.690638 200.74167 25.362513 201.05417Q25.018763 201.36667 25.018763 202.10104Q25.018763 202.71042 25.378138 203.11667Q25.737513 203.5073 26.346888 203.5698L30.550013 203.5698L30.550013 204.64792L26.393763 204.64792Q25.018763 204.64792 25.018763 206.0073Q25.018763 207.0698 25.925013 207.46042L30.550013 207.46042L30.550013 208.55417L24.206263 208.55417L24.206263 207.52292ZM28.862513 193.85104Q28.425013 193.85104 28.190638 194.1948Q27.940638 194.52292 27.768763 195.35104Q27.596888 196.16354 27.346888 196.64792Q27.096888 197.1323 26.768763 197.36667Q26.425013 197.58542 25.956263 197.58542Q25.175013 197.58542 24.643763 196.92917Q24.096888 196.27292 24.096888 195.24167Q24.096888 194.16354 24.659388 193.5073Q25.206263 192.83542 26.065638 192.83542L26.065638 193.91354Q25.628138 193.91354 25.315638 194.30417Q24.987513 194.67917 24.987513 195.24167Q24.987513 195.83542 25.253138 196.17917Q25.503138 196.5073 25.909388 196.5073Q26.300013 196.5073 26.503138 196.1948Q26.706263 195.8823 26.893763 195.0698Q27.065638 194.2573 27.315638 193.7573Q27.565638 193.2573 27.925013 193.02292Q28.284388 192.77292 28.784388 192.77292Q29.643763 192.77292 30.159388 193.46042Q30.675013 194.1323 30.675013 195.21042Q30.675013 195.97604 30.409388 196.5698Q30.128138 197.14792 29.643763 197.47604Q29.159388 197.80417 28.596888 197.80417L28.596888 196.72604Q29.143763 196.6948 29.471888 196.28854Q29.784388 195.8823 29.784388 195.21042Q29.784388 194.60104 29.534388 194.22604Q29.284388 193.85104 28.862513 193.85104Z" fill-rule="nonzero"/><path fill="#757575" d="M71.6125 299.3094Q71.6125 301.21564 70.95625 302.15314Q70.31563 303.075 68.925 303.075Q67.56563 303.075 66.90938 302.16876Q66.25313 301.2625 66.22188 299.45L66.22188 298.0125Q66.22188 296.1219 66.8625 295.21564Q67.51875 294.29376 68.90938 294.29376Q70.28438 294.29376 70.94063 295.1844Q71.59688 296.0594 71.6125 297.90314L71.6125 299.3094ZM70.51875 297.825Q70.51875 296.45 70.12813 295.825Q69.75313 295.1844 68.90938 295.1844Q68.08125 295.1844 67.69063 295.825Q67.31563 296.45 67.31563 297.7469L67.31563 299.48126Q67.31563 300.85626 67.70625 301.52814Q68.1125 302.1844 68.925 302.1844Q69.72188 302.1844 70.1125 301.5594Q70.50313 300.9344 70.51875 299.60626L70.51875 297.825Z" fill-rule="nonzero"/><path fill="#757575" d="M57.846874 233.39444L52.253124 233.39444L52.253124 232.61319L55.20625 229.33194Q55.8625 228.58194 56.1125 228.12881Q56.3625 227.66006 56.3625 227.16006Q56.3625 226.48819 55.95625 226.06631Q55.565624 225.62881 54.878124 225.62881Q54.08125 225.62881 53.628124 226.09756Q53.175 226.55069 53.175 227.37881L52.096874 227.37881Q52.096874 226.19131 52.846874 225.47256Q53.6125 224.73819 54.878124 224.73819Q56.08125 224.73819 56.76875 225.36319Q57.45625 225.98819 57.45625 227.03506Q57.45625 228.28506 55.846874 230.03506L53.565624 232.50381L57.846874 232.50381L57.846874 233.39444ZM64.6125 229.75381Q64.6125 231.66006 63.95625 232.59756Q63.315624 233.51944 61.925 233.51944Q60.565624 233.51944 59.909374 232.61319Q59.253124 231.70694 59.221874 229.89444L59.221874 228.45694Q59.221874 226.56631 59.8625 225.66006Q60.51875 224.73819 61.909374 224.73819Q63.284374 224.73819 63.940624 225.62881Q64.59688 226.50381 64.6125 228.34756L64.6125 229.75381ZM63.51875 228.26944Q63.51875 226.89444 63.128124 226.26944Q62.753124 225.62881 61.909374 225.62881Q61.08125 225.62881 60.690624 226.26944Q60.315624 226.89444 60.315624 228.19131L60.315624 229.92569Q60.315624 231.30069 60.70625 231.97256Q61.1125 232.62881 61.925 232.62881Q62.721874 232.62881 63.1125 232.00381Q63.503124 231.37881 63.51875 230.05069L63.51875 228.26944ZM71.6125 229.75381Q71.6125 231.66006 70.95625 232.59756Q70.31563 233.51944 68.925 233.51944Q67.56563 233.51944 66.90938 232.61319Q66.25313 231.70694 66.22188 229.89444L66.22188 228.45694Q66.22188 226.56631 66.8625 225.66006Q67.51875 224.73819 68.90938 224.73819Q70.28438 224.73819 70.94063 225.62881Q71.59688 226.50381 71.6125 228.34756L71.6125 229.75381ZM70.51875 228.26944Q70.51875 226.89444 70.12813 226.26944Q69.75313 225.62881 68.90938 225.62881Q68.08125 225.62881 67.69063 226.26944Q67.31563 226.89444 67.31563 228.19131L67.31563 229.92569Q67.31563 231.30069 67.70625 231.97256Q68.1125 232.62881 68.925 232.62881Q69.72188 232.62881 70.1125 232.00381Q70.50313 231.37881 70.51875 230.05069L70.51875 228.26944Z" fill-rule="nonzero"/><path fill="#757575" d="M56.83125 160.9795L58.01875 160.9795L58.01875 161.8545L56.83125 161.8545L56.83125 163.83888L55.753124 163.83888L55.753124 161.8545L51.8625 161.8545L51.8625 161.21388L55.675 155.30763L56.83125 155.30763L56.83125 160.9795ZM53.096874 160.9795L55.753124 160.9795L55.753124 156.792L55.6125 157.02638L53.096874 160.9795ZM64.6125 160.19826Q64.6125 162.1045 63.95625 163.042Q63.315624 163.96388 61.925 163.96388Q60.565624 163.96388 59.909374 163.05763Q59.253124 162.15138 59.221874 160.33888L59.221874 158.90138Q59.221874 157.01076 59.8625 156.1045Q60.51875 155.18263 61.909374 155.18263Q63.284374 155.18263 63.940624 156.07326Q64.59688 156.94826 64.6125 158.792L64.6125 160.19826ZM63.51875 158.71388Q63.51875 157.33888 63.128124 156.71388Q62.753124 156.07326 61.909374 156.07326Q61.08125 156.07326 60.690624 156.71388Q60.315624 157.33888 60.315624 158.63576L60.315624 160.37013Q60.315624 161.74513 60.70625 162.417Q61.1125 163.07326 61.925 163.07326Q62.721874 163.07326 63.1125 162.44826Q63.503124 161.82326 63.51875 160.49513L63.51875 158.71388ZM71.6125 160.19826Q71.6125 162.1045 70.95625 163.042Q70.31563 163.96388 68.925 163.96388Q67.56563 163.96388 66.90938 163.05763Q66.25313 162.15138 66.22188 160.33888L66.22188 158.90138Q66.22188 157.01076 66.8625 156.1045Q67.51875 155.18263 68.90938 155.18263Q70.28438 155.18263 70.94063 156.07326Q71.59688 156.94826 71.6125 158.792L71.6125 160.19826ZM70.51875 158.71388Q70.51875 157.33888 70.12813 156.71388Q69.75313 156.07326 68.90938 156.07326Q68.08125 156.07326 67.69063 156.71388Q67.31563 157.33888 67.31563 158.63576L67.31563 160.37013Q67.31563 161.74513 67.70625 162.417Q68.1125 163.07326 68.925 163.07326Q69.72188 163.07326 70.1125 162.44826Q70.50313 161.82326 70.51875 160.49513L70.51875 158.71388Z" fill-rule="nonzero"/><path fill="#757575" d="M56.51875 85.75208L56.51875 86.65833L56.315624 86.65833Q55.05 86.68958 54.3 87.42396Q53.55 88.14271 53.425 89.45521Q54.1125 88.68958 55.26875 88.68958Q56.378124 88.68958 57.05 89.47083Q57.721874 90.25208 57.721874 91.50208Q57.721874 92.81458 57.003124 93.61146Q56.284374 94.40833 55.065624 94.40833Q53.846874 94.40833 53.08125 93.47083Q52.33125 92.51771 52.33125 91.03333L52.33125 90.62708Q52.33125 88.26771 53.33125 87.01771Q54.33125 85.76771 56.315624 85.75208L56.51875 85.75208ZM55.096874 89.59583Q54.534374 89.59583 54.065624 89.92396Q53.596874 90.25208 53.409374 90.76771L53.409374 91.15833Q53.409374 92.22083 53.878124 92.86146Q54.3625 93.50208 55.065624 93.50208Q55.8 93.50208 56.221874 92.97083Q56.64375 92.42396 56.64375 91.54896Q56.64375 90.67396 56.221874 90.14271Q55.8 89.59583 55.096874 89.59583ZM64.6125 90.64271Q64.6125 92.54896 63.95625 93.48646Q63.315624 94.40833 61.925 94.40833Q60.565624 94.40833 59.909374 93.50208Q59.253124 92.59583 59.221874 90.78333L59.221874 89.34583Q59.221874 87.45521 59.8625 86.54896Q60.51875 85.62708 61.909374 85.62708Q63.284374 85.62708 63.940624 86.51771Q64.59688 87.39271 64.6125 89.23646L64.6125 90.64271ZM63.51875 89.15833Q63.51875 87.78333 63.128124 87.15833Q62.753124 86.51771 61.909374 86.51771Q61.08125 86.51771 60.690624 87.15833Q60.315624 87.78333 60.315624 89.08021L60.315624 90.81458Q60.315624 92.18958 60.70625 92.86146Q61.1125 93.51771 61.925 93.51771Q62.721874 93.51771 63.1125 92.89271Q63.503124 92.26771 63.51875 90.93958L63.51875 89.15833ZM71.6125 90.64271Q71.6125 92.54896 70.95625 93.48646Q70.31563 94.40833 68.925 94.40833Q67.56563 94.40833 66.90938 93.50208Q66.25313 92.59583 66.22188 90.78333L66.22188 89.34583Q66.22188 87.45521 66.8625 86.54896Q67.51875 85.62708 68.90938 85.62708Q70.28438 85.62708 70.94063 86.51771Q71.59688 87.39271 71.6125 89.23646L71.6125 90.64271ZM70.51875 89.15833Q70.51875 87.78333 70.12813 87.15833Q69.75313 86.51771 68.90938 86.51771Q68.08125 86.51771 67.69063 87.15833Q67.31563 87.78333 67.31563 89.08021L67.31563 90.81458Q67.31563 92.18958 67.70625 92.86146Q68.1125 93.51771 68.925 93.51771Q69.72188 93.51771 70.1125 92.89271Q70.50313 92.26771 70.51875 90.93958L70.51875 89.15833Z" fill-rule="nonzero"/><path fill="#757575" d="M75.81563 316.45L74.7375 316.45L74.7375 309.23126L72.55 310.02814L72.55 309.04376L75.65938 307.8719L75.81563 307.8719L75.81563 316.45ZM84.6125 312.8094Q84.6125 314.71564 83.95625 315.65314Q83.31563 316.575 81.925 316.575Q80.56563 316.575 79.90938 315.66876Q79.25313 314.7625 79.22188 312.95L79.22188 311.5125Q79.22188 309.6219 79.8625 308.71564Q80.51875 307.79376 81.90938 307.79376Q83.28438 307.79376 83.94063 308.6844Q84.59688 309.5594 84.6125 311.40314L84.6125 312.8094ZM83.51875 311.325Q83.51875 309.95 83.12813 309.325Q82.75313 308.6844 81.90938 308.6844Q81.08125 308.6844 80.69063 309.325Q80.31563 309.95 80.31563 311.2469L80.31563 312.98126Q80.31563 314.35626 80.70625 315.02814Q81.1125 315.6844 81.925 315.6844Q82.72188 315.6844 83.1125 315.0594Q83.50313 314.4344 83.51875 313.10626L83.51875 311.325Z" fill-rule="nonzero"/><path fill="#757575" d="M144.26434 316.45L143.18622 316.45L143.18622 309.23126L140.99872 310.02814L140.99872 309.04376L144.1081 307.8719L144.26434 307.8719L144.26434 316.45ZM153.06122 312.8094Q153.06122 314.71564 152.40497 315.65314Q151.76434 316.575 150.37372 316.575Q149.01434 316.575 148.3581 315.66876Q147.70184 314.7625 147.6706 312.95L147.6706 311.5125Q147.6706 309.6219 148.31122 308.71564Q148.96747 307.79376 150.3581 307.79376Q151.7331 307.79376 152.38934 308.6844Q153.0456 309.5594 153.06122 311.40314L153.06122 312.8094ZM151.96747 311.325Q151.96747 309.95 151.57684 309.325Q151.20184 308.6844 150.3581 308.6844Q149.52997 308.6844 149.13934 309.325Q148.76434 309.95 148.76434 311.2469L148.76434 312.98126Q148.76434 314.35626 149.15497 315.02814Q149.56122 315.6844 150.37372 315.6844Q151.1706 315.6844 151.56122 315.0594Q151.95184 314.4344 151.96747 313.10626L151.96747 311.325ZM160.06122 312.8094Q160.06122 314.71564 159.40497 315.65314Q158.76434 316.575 157.37372 316.575Q156.01434 316.575 155.3581 315.66876Q154.70184 314.7625 154.6706 312.95L154.6706 311.5125Q154.6706 309.6219 155.31122 308.71564Q155.96747 307.79376 157.3581 307.79376Q158.7331 307.79376 159.38934 308.6844Q160.0456 309.5594 160.06122 311.40314L160.06122 312.8094ZM158.96747 311.325Q158.96747 309.95 158.57684 309.325Q158.20184 308.6844 157.3581 308.6844Q156.52997 308.6844 156.13934 309.325Q155.76434 309.95 155.76434 311.2469L155.76434 312.98126Q155.76434 314.35626 156.15497 315.02814Q156.56122 315.6844 157.37372 315.6844Q158.1706 315.6844 158.56122 315.0594Q158.95184 314.4344 158.96747 313.10626L158.96747 311.325Z" fill-rule="nonzero"/><path fill="#757575" d="M212.71307 316.45L211.63495 316.45L211.63495 309.23126L209.44745 310.02814L209.44745 309.04376L212.55682 307.8719L212.71307 307.8719L212.71307 316.45ZM221.50995 312.8094Q221.50995 314.71564 220.8537 315.65314Q220.21307 316.575 218.82245 316.575Q217.46307 316.575 216.80682 315.66876Q216.15057 314.7625 216.11932 312.95L216.11932 311.5125Q216.11932 309.6219 216.75995 308.71564Q217.4162 307.79376 218.80682 307.79376Q220.18182 307.79376 220.83807 308.6844Q221.49432 309.5594 221.50995 311.40314L221.50995 312.8094ZM220.4162 311.325Q220.4162 309.95 220.02557 309.325Q219.65057 308.6844 218.80682 308.6844Q217.9787 308.6844 217.58807 309.325Q217.21307 309.95 217.21307 311.2469L217.21307 312.98126Q217.21307 314.35626 217.6037 315.02814Q218.00995 315.6844 218.82245 315.6844Q219.61932 315.6844 220.00995 315.0594Q220.40057 314.4344 220.4162 313.10626L220.4162 311.325ZM228.50995 312.8094Q228.50995 314.71564 227.8537 315.65314Q227.21307 316.575 225.82245 316.575Q224.46307 316.575 223.80682 315.66876Q223.15057 314.7625 223.11932 312.95L223.11932 311.5125Q223.11932 309.6219 223.75995 308.71564Q224.4162 307.79376 225.80682 307.79376Q227.18182 307.79376 227.83807 308.6844Q228.49432 309.5594 228.50995 311.40314L228.50995 312.8094ZM227.4162 311.325Q227.4162 309.95 227.02557 309.325Q226.65057 308.6844 225.80682 308.6844Q224.9787 308.6844 224.58807 309.325Q224.21307 309.95 224.21307 311.2469L224.21307 312.98126Q224.21307 314.35626 224.6037 315.02814Q225.00995 315.6844 225.82245 315.6844Q226.61932 315.6844 227.00995 315.0594Q227.40057 314.4344 227.4162 313.10626L227.4162 311.325ZM235.50995 312.8094Q235.50995 314.71564 234.8537 315.65314Q234.21307 316.575 232.82245 316.575Q231.46307 316.575 230.80682 315.66876Q230.15057 314.7625 230.11932 312.95L230.11932 311.5125Q230.11932 309.6219 230.75995 308.71564Q231.4162 307.79376 232.80682 307.79376Q234.18182 307.79376 234.83807 308.6844Q235.49432 309.5594 235.50995 311.40314L235.50995 312.8094ZM234.4162 311.325Q234.4162 309.95 234.02557 309.325Q233.65057 308.6844 232.80682 308.6844Q231.9787 308.6844 231.58807 309.325Q231.21307 309.95 231.21307 311.2469L231.21307 312.98126Q231.21307 314.35626 231.6037 315.02814Q232.00995 315.6844 232.82245 315.6844Q233.61932 315.6844 234.00995 315.0594Q234.40057 314.4344 234.4162 313.10626L234.4162 311.325Z" fill-rule="nonzero"/><path fill="#757575" d="M281.1618 316.45L280.08368 316.45L280.08368 309.23126L277.89618 310.02814L277.89618 309.04376L281.00555 307.8719L281.1618 307.8719L281.1618 316.45ZM289.95868 312.8094Q289.95868 314.71564 289.30243 315.65314Q288.6618 316.575 287.27118 316.575Q285.9118 316.575 285.25555 315.66876Q284.5993 314.7625 284.56805 312.95L284.56805 311.5125Q284.56805 309.6219 285.20868 308.71564Q285.86493 307.79376 287.25555 307.79376Q288.63055 307.79376 289.2868 308.6844Q289.94305 309.5594 289.95868 311.40314L289.95868 312.8094ZM288.86493 311.325Q288.86493 309.95 288.4743 309.325Q288.0993 308.6844 287.25555 308.6844Q286.42743 308.6844 286.0368 309.325Q285.6618 309.95 285.6618 311.2469L285.6618 312.98126Q285.6618 314.35626 286.05243 315.02814Q286.45868 315.6844 287.27118 315.6844Q288.06805 315.6844 288.45868 315.0594Q288.8493 314.4344 288.86493 313.10626L288.86493 311.325ZM296.95868 312.8094Q296.95868 314.71564 296.30243 315.65314Q295.6618 316.575 294.27118 316.575Q292.9118 316.575 292.25555 315.66876Q291.5993 314.7625 291.56805 312.95L291.56805 311.5125Q291.56805 309.6219 292.20868 308.71564Q292.86493 307.79376 294.25555 307.79376Q295.63055 307.79376 296.2868 308.6844Q296.94305 309.5594 296.95868 311.40314L296.95868 312.8094ZM295.86493 311.325Q295.86493 309.95 295.4743 309.325Q295.0993 308.6844 294.25555 308.6844Q293.42743 308.6844 293.0368 309.325Q292.6618 309.95 292.6618 311.2469L292.6618 312.98126Q292.6618 314.35626 293.05243 315.02814Q293.45868 315.6844 294.27118 315.6844Q295.06805 315.6844 295.45868 315.0594Q295.8493 314.4344 295.86493 313.10626L295.86493 311.325ZM303.95868 312.8094Q303.95868 314.71564 303.30243 315.65314Q302.6618 316.575 301.27118 316.575Q299.9118 316.575 299.25555 315.66876Q298.5993 314.7625 298.56805 312.95L298.56805 311.5125Q298.56805 309.6219 299.20868 308.71564Q299.86493 307.79376 301.25555 307.79376Q302.63055 307.79376 303.2868 308.6844Q303.94305 309.5594 303.95868 311.40314L303.95868 312.8094ZM302.86493 311.325Q302.86493 309.95 302.4743 309.325Q302.0993 308.6844 301.25555 308.6844Q300.42743 308.6844 300.0368 309.325Q299.6618 309.95 299.6618 311.2469L299.6618 312.98126Q299.6618 314.35626 300.05243 315.02814Q300.45868 315.6844 301.27118 315.6844Q302.06805 315.6844 302.45868 315.0594Q302.8493 314.4344 302.86493 313.10626L302.86493 311.325ZM310.95868 312.8094Q310.95868 314.71564 310.30243 315.65314Q309.6618 316.575 308.27118 316.575Q306.9118 316.575 306.25555 315.66876Q305.5993 314.7625 305.56805 312.95L305.56805 311.5125Q305.56805 309.6219 306.20868 308.71564Q306.86493 307.79376 308.25555 307.79376Q309.63055 307.79376 310.2868 308.6844Q310.94305 309.5594 310.95868 311.40314L310.95868 312.8094ZM309.86493 311.325Q309.86493 309.95 309.4743 309.325Q309.0993 308.6844 308.25555 308.6844Q307.42743 308.6844 307.0368 309.325Q306.6618 309.95 306.6618 311.2469L306.6618 312.98126Q306.6618 314.35626 307.05243 315.02814Q307.45868 315.6844 308.27118 315.6844Q309.06805 315.6844 309.45868 315.0594Q309.8493 314.4344 309.86493 313.10626L309.86493 311.325Z" fill-rule="nonzero"/><path fill="#757575" d="M349.61053 316.45L348.5324 316.45L348.5324 309.23126L346.3449 310.02814L346.3449 309.04376L349.45428 307.8719L349.61053 307.8719L349.61053 316.45ZM358.4074 312.8094Q358.4074 314.71564 357.75116 315.65314Q357.11053 316.575 355.7199 316.575Q354.36053 316.575 353.70428 315.66876Q353.04803 314.7625 353.01678 312.95L353.01678 311.5125Q353.01678 309.6219 353.6574 308.71564Q354.31366 307.79376 355.70428 307.79376Q357.07928 307.79376 357.73553 308.6844Q358.39178 309.5594 358.4074 311.40314L358.4074 312.8094ZM357.31366 311.325Q357.31366 309.95 356.92303 309.325Q356.54803 308.6844 355.70428 308.6844Q354.87616 308.6844 354.48553 309.325Q354.11053 309.95 354.11053 311.2469L354.11053 312.98126Q354.11053 314.35626 354.50116 315.02814Q354.9074 315.6844 355.7199 315.6844Q356.51678 315.6844 356.9074 315.0594Q357.29803 314.4344 357.31366 313.10626L357.31366 311.325ZM365.4074 312.8094Q365.4074 314.71564 364.75116 315.65314Q364.11053 316.575 362.7199 316.575Q361.36053 316.575 360.70428 315.66876Q360.04803 314.7625 360.01678 312.95L360.01678 311.5125Q360.01678 309.6219 360.6574 308.71564Q361.31366 307.79376 362.70428 307.79376Q364.07928 307.79376 364.73553 308.6844Q365.39178 309.5594 365.4074 311.40314L365.4074 312.8094ZM364.31366 311.325Q364.31366 309.95 363.92303 309.325Q363.54803 308.6844 362.70428 308.6844Q361.87616 308.6844 361.48553 309.325Q361.11053 309.95 361.11053 311.2469L361.11053 312.98126Q361.11053 314.35626 361.50116 315.02814Q361.9074 315.6844 362.7199 315.6844Q363.51678 315.6844 363.9074 315.0594Q364.29803 314.4344 364.31366 313.10626L364.31366 311.325ZM372.4074 312.8094Q372.4074 314.71564 371.75116 315.65314Q371.11053 316.575 369.7199 316.575Q368.36053 316.575 367.70428 315.66876Q367.04803 314.7625 367.01678 312.95L367.01678 311.5125Q367.01678 309.6219 367.6574 308.71564Q368.31366 307.79376 369.70428 307.79376Q371.07928 307.79376 371.73553 308.6844Q372.39178 309.5594 372.4074 311.40314L372.4074 312.8094ZM371.31366 311.325Q371.31366 309.95 370.92303 309.325Q370.54803 308.6844 369.70428 308.6844Q368.87616 308.6844 368.48553 309.325Q368.11053 309.95 368.11053 311.2469L368.11053 312.98126Q368.11053 314.35626 368.50116 315.02814Q368.9074 315.6844 369.7199 315.6844Q370.51678 315.6844 370.9074 315.0594Q371.29803 314.4344 371.31366 313.10626L371.31366 311.325ZM379.4074 312.8094Q379.4074 314.71564 378.75116 315.65314Q378.11053 316.575 376.7199 316.575Q375.36053 316.575 374.70428 315.66876Q374.04803 314.7625 374.01678 312.95L374.01678 311.5125Q374.01678 309.6219 374.6574 308.71564Q375.31366 307.79376 376.70428 307.79376Q378.07928 307.79376 378.73553 308.6844Q379.39178 309.5594 379.4074 311.40314L379.4074 312.8094ZM378.31366 311.325Q378.31366 309.95 377.92303 309.325Q377.54803 308.6844 376.70428 308.6844Q375.87616 308.6844 375.48553 309.325Q375.11053 309.95 375.11053 311.2469L375.11053 312.98126Q375.11053 314.35626 375.50116 315.02814Q375.9074 315.6844 376.7199 315.6844Q377.51678 315.6844 377.9074 315.0594Q378.29803 314.4344 378.31366 313.10626L378.31366 311.325ZM386.4074 312.8094Q386.4074 314.71564 385.75116 315.65314Q385.11053 316.575 383.7199 316.575Q382.36053 316.575 381.70428 315.66876Q381.04803 314.7625 381.01678 312.95L381.01678 311.5125Q381.01678 309.6219 381.6574 308.71564Q382.31366 307.79376 383.70428 307.79376Q385.07928 307.79376 385.73553 308.6844Q386.39178 309.5594 386.4074 311.40314L386.4074 312.8094ZM385.31366 311.325Q385.31366 309.95 384.92303 309.325Q384.54803 308.6844 383.70428 308.6844Q382.87616 308.6844 382.48553 309.325Q382.11053 309.95 382.11053 311.2469L382.11053 312.98126Q382.11053 314.35626 382.50116 315.02814Q382.9074 315.6844 383.7199 315.6844Q384.51678 315.6844 384.9074 315.0594Q385.29803 314.4344 385.31366 313.10626L385.31366 311.325Z" fill-rule="nonzero"/><path fill="#757575" d="M418.05923 316.45L416.9811 316.45L416.9811 309.23126L414.7936 310.02814L414.7936 309.04376L417.90298 307.8719L418.05923 307.8719L418.05923 316.45ZM426.8561 312.8094Q426.8561 314.71564 426.19986 315.65314Q425.55923 316.575 424.1686 316.575Q422.80923 316.575 422.15298 315.66876Q421.49673 314.7625 421.46548 312.95L421.46548 311.5125Q421.46548 309.6219 422.1061 308.71564Q422.76236 307.79376 424.15298 307.79376Q425.52798 307.79376 426.18423 308.6844Q426.84048 309.5594 426.8561 311.40314L426.8561 312.8094ZM425.76236 311.325Q425.76236 309.95 425.37173 309.325Q424.99673 308.6844 424.15298 308.6844Q423.32486 308.6844 422.93423 309.325Q422.55923 309.95 422.55923 311.2469L422.55923 312.98126Q422.55923 314.35626 422.94986 315.02814Q423.3561 315.6844 424.1686 315.6844Q424.96548 315.6844 425.3561 315.0594Q425.74673 314.4344 425.76236 313.10626L425.76236 311.325ZM433.8561 312.8094Q433.8561 314.71564 433.19986 315.65314Q432.55923 316.575 431.1686 316.575Q429.80923 316.575 429.15298 315.66876Q428.49673 314.7625 428.46548 312.95L428.46548 311.5125Q428.46548 309.6219 429.1061 308.71564Q429.76236 307.79376 431.15298 307.79376Q432.52798 307.79376 433.18423 308.6844Q433.84048 309.5594 433.8561 311.40314L433.8561 312.8094ZM432.76236 311.325Q432.76236 309.95 432.37173 309.325Q431.99673 308.6844 431.15298 308.6844Q430.32486 308.6844 429.93423 309.325Q429.55923 309.95 429.55923 311.2469L429.55923 312.98126Q429.55923 314.35626 429.94986 315.02814Q430.3561 315.6844 431.1686 315.6844Q431.96548 315.6844 432.3561 315.0594Q432.74673 314.4344 432.76236 313.10626L432.76236 311.325ZM440.8561 312.8094Q440.8561 314.71564 440.19986 315.65314Q439.55923 316.575 438.1686 316.575Q436.80923 316.575 436.15298 315.66876Q435.49673 314.7625 435.46548 312.95L435.46548 311.5125Q435.46548 309.6219 436.1061 308.71564Q436.76236 307.79376 438.15298 307.79376Q439.52798 307.79376 440.18423 308.6844Q440.84048 309.5594 440.8561 311.40314L440.8561 312.8094ZM439.76236 311.325Q439.76236 309.95 439.37173 309.325Q438.99673 308.6844 438.15298 308.6844Q437.32486 308.6844 436.93423 309.325Q436.55923 309.95 436.55923 311.2469L436.55923 312.98126Q436.55923 314.35626 436.94986 315.02814Q437.3561 315.6844 438.1686 315.6844Q438.96548 315.6844 439.3561 315.0594Q439.74673 314.4344 439.76236 313.10626L439.76236 311.325ZM447.8561 312.8094Q447.8561 314.71564 447.19986 315.65314Q446.55923 316.575 445.1686 316.575Q443.80923 316.575 443.15298 315.66876Q442.49673 314.7625 442.46548 312.95L442.46548 311.5125Q442.46548 309.6219 443.1061 308.71564Q443.76236 307.79376 445.15298 307.79376Q446.52798 307.79376 447.18423 308.6844Q447.84048 309.5594 447.8561 311.40314L447.8561 312.8094ZM446.76236 311.325Q446.76236 309.95 446.37173 309.325Q445.99673 308.6844 445.15298 308.6844Q444.32486 308.6844 443.93423 309.325Q443.55923 309.95 443.55923 311.2469L443.55923 312.98126Q443.55923 314.35626 443.94986 315.02814Q444.3561 315.6844 445.1686 315.6844Q445.96548 315.6844 446.3561 315.0594Q446.74673 314.4344 446.76236 313.10626L446.76236 311.325ZM454.8561 312.8094Q454.8561 314.71564 454.19986 315.65314Q453.55923 316.575 452.1686 316.575Q450.80923 316.575 450.15298 315.66876Q449.49673 314.7625 449.46548 312.95L449.46548 311.5125Q449.46548 309.6219 450.1061 308.71564Q450.76236 307.79376 452.15298 307.79376Q453.52798 307.79376 454.18423 308.6844Q454.84048 309.5594 454.8561 311.40314L454.8561 312.8094ZM453.76236 311.325Q453.76236 309.95 453.37173 309.325Q452.99673 308.6844 452.15298 308.6844Q451.32486 308.6844 450.93423 309.325Q450.55923 309.95 450.55923 311.2469L450.55923 312.98126Q450.55923 314.35626 450.94986 315.02814Q451.3561 315.6844 452.1686 315.6844Q452.96548 315.6844 453.3561 315.0594Q453.74673 314.4344 453.76236 313.10626L453.76236 311.325ZM461.8561 312.8094Q461.8561 314.71564 461.19986 315.65314Q460.55923 316.575 459.1686 316.575Q457.80923 316.575 457.15298 315.66876Q456.49673 314.7625 456.46548 312.95L456.46548 311.5125Q456.46548 309.6219 457.1061 308.71564Q457.76236 307.79376 459.15298 307.79376Q460.52798 307.79376 461.18423 308.6844Q461.84048 309.5594 461.8561 311.40314L461.8561 312.8094ZM460.76236 311.325Q460.76236 309.95 460.37173 309.325Q459.99673 308.6844 459.15298 308.6844Q458.32486 308.6844 457.93423 309.325Q457.55923 309.95 457.55923 311.2469L457.55923 312.98126Q457.55923 314.35626 457.94986 315.02814Q458.3561 315.6844 459.1686 315.6844Q459.96548 315.6844 460.3561 315.0594Q460.74673 314.4344 460.76236 313.10626L460.76236 311.325Z" fill-rule="nonzero"/><path fill="#757575" d="M486.50797 316.45L485.42984 316.45L485.42984 309.23126L483.24234 310.02814L483.24234 309.04376L486.3517 307.8719L486.50797 307.8719L486.50797 316.45ZM495.30484 312.8094Q495.30484 314.71564 494.6486 315.65314Q494.00797 316.575 492.61734 316.575Q491.25797 316.575 490.6017 315.66876Q489.94547 314.7625 489.9142 312.95L489.9142 311.5125Q489.9142 309.6219 490.55484 308.71564Q491.2111 307.79376 492.6017 307.79376Q493.9767 307.79376 494.63297 308.6844Q495.2892 309.5594 495.30484 311.40314L495.30484 312.8094ZM494.2111 311.325Q494.2111 309.95 493.82047 309.325Q493.44547 308.6844 492.6017 308.6844Q491.7736 308.6844 491.38297 309.325Q491.00797 309.95 491.00797 311.2469L491.00797 312.98126Q491.00797 314.35626 491.3986 315.02814Q491.80484 315.6844 492.61734 315.6844Q493.4142 315.6844 493.80484 315.0594Q494.19547 314.4344 494.2111 313.10626L494.2111 311.325ZM502.30484 312.8094Q502.30484 314.71564 501.6486 315.65314Q501.00797 316.575 499.61734 316.575Q498.25797 316.575 497.6017 315.66876Q496.94547 314.7625 496.9142 312.95L496.9142 311.5125Q496.9142 309.6219 497.55484 308.71564Q498.2111 307.79376 499.6017 307.79376Q500.9767 307.79376 501.63297 308.6844Q502.2892 309.5594 502.30484 311.40314L502.30484 312.8094ZM501.2111 311.325Q501.2111 309.95 500.82047 309.325Q500.44547 308.6844 499.6017 308.6844Q498.7736 308.6844 498.38297 309.325Q498.00797 309.95 498.00797 311.2469L498.00797 312.98126Q498.00797 314.35626 498.3986 315.02814Q498.80484 315.6844 499.61734 315.6844Q500.4142 315.6844 500.80484 315.0594Q501.19547 314.4344 501.2111 313.10626L501.2111 311.325ZM509.30484 312.8094Q509.30484 314.71564 508.6486 315.65314Q508.00797 316.575 506.61734 316.575Q505.25797 316.575 504.6017 315.66876Q503.94547 314.7625 503.9142 312.95L503.9142 311.5125Q503.9142 309.6219 504.55484 308.71564Q505.2111 307.79376 506.6017 307.79376Q507.9767 307.79376 508.63297 308.6844Q509.2892 309.5594 509.30484 311.40314L509.30484 312.8094ZM508.2111 311.325Q508.2111 309.95 507.82047 309.325Q507.44547 308.6844 506.6017 308.6844Q505.7736 308.6844 505.38297 309.325Q505.00797 309.95 505.00797 311.2469L505.00797 312.98126Q505.00797 314.35626 505.3986 315.02814Q505.80484 315.6844 506.61734 315.6844Q507.4142 315.6844 507.80484 315.0594Q508.19547 314.4344 508.2111 313.10626L508.2111 311.325ZM516.3048 312.8094Q516.3048 314.71564 515.64856 315.65314Q515.00793 316.575 513.6173 316.575Q512.25793 316.575 511.6017 315.66876Q510.94547 314.7625 510.9142 312.95L510.9142 311.5125Q510.9142 309.6219 511.55484 308.71564Q512.21106 307.79376 513.6017 307.79376Q514.9767 307.79376 515.63293 308.6844Q516.2892 309.5594 516.3048 311.40314L516.3048 312.8094ZM515.21106 311.325Q515.21106 309.95 514.82043 309.325Q514.44543 308.6844 513.6017 308.6844Q512.77356 308.6844 512.38293 309.325Q512.00793 309.95 512.00793 311.2469L512.00793 312.98126Q512.00793 314.35626 512.39856 315.02814Q512.8048 315.6844 513.6173 315.6844Q514.4142 315.6844 514.8048 315.0594Q515.19543 314.4344 515.21106 313.10626L515.21106 311.325ZM523.3048 312.8094Q523.3048 314.71564 522.64856 315.65314Q522.00793 316.575 520.6173 316.575Q519.25793 316.575 518.6017 315.66876Q517.94543 314.7625 517.9142 312.95L517.9142 311.5125Q517.9142 309.6219 518.5548 308.71564Q519.21106 307.79376 520.6017 307.79376Q521.9767 307.79376 522.63293 308.6844Q523.2892 309.5594 523.3048 311.40314L523.3048 312.8094ZM522.21106 311.325Q522.21106 309.95 521.82043 309.325Q521.44543 308.6844 520.6017 308.6844Q519.77356 308.6844 519.38293 309.325Q519.00793 309.95 519.00793 311.2469L519.00793 312.98126Q519.00793 314.35626 519.39856 315.02814Q519.8048 315.6844 520.6173 315.6844Q521.4142 315.6844 521.8048 315.0594Q522.19543 314.4344 522.21106 313.10626L522.21106 311.325ZM530.3048 312.8094Q530.3048 314.71564 529.64856 315.65314Q529.00793 316.575 527.6173 316.575Q526.25793 316.575 525.6017 315.66876Q524.94543 314.7625 524.9142 312.95L524.9142 311.5125Q524.9142 309.6219 525.5548 308.71564Q526.21106 307.79376 527.6017 307.79376Q528.9767 307.79376 529.63293 308.6844Q530.2892 309.5594 530.3048 311.40314L530.3048 312.8094ZM529.21106 311.325Q529.21106 309.95 528.82043 309.325Q528.44543 308.6844 527.6017 308.6844Q526.77356 308.6844 526.38293 309.325Q526.00793 309.95 526.00793 311.2469L526.00793 312.98126Q526.00793 314.35626 526.39856 315.02814Q526.8048 315.6844 527.6173 315.6844Q528.4142 315.6844 528.8048 315.0594Q529.19543 314.4344 529.21106 313.10626L529.21106 311.325ZM537.3048 312.8094Q537.3048 314.71564 536.64856 315.65314Q536.00793 316.575 534.6173 316.575Q533.25793 316.575 532.6017 315.66876Q531.94543 314.7625 531.9142 312.95L531.9142 311.5125Q531.9142 309.6219 532.5548 308.71564Q533.21106 307.79376 534.6017 307.79376Q535.9767 307.79376 536.63293 308.6844Q537.2892 309.5594 537.3048 311.40314L537.3048 312.8094ZM536.21106 311.325Q536.21106 309.95 535.82043 309.325Q535.44543 308.6844 534.6017 308.6844Q533.77356 308.6844 533.38293 309.325Q533.00793 309.95 533.00793 311.2469L533.00793 312.98126Q533.00793 314.35626 533.39856 315.02814Q533.8048 315.6844 534.6173 315.6844Q535.4142 315.6844 535.8048 315.0594Q536.19543 314.4344 536.21106 313.10626L536.21106 311.325Z" fill-rule="nonzero"/><path stroke="#4285f4" stroke-width="4.0" stroke-linecap="butt" d="M223.0 62.416668L235.0 62.416668" fill-rule="nonzero"/><path fill="#757575" d="M244.9375 60.572914L244.9375 67.65104Q244.9375 69.479164 243.28125 69.479164Q242.92188 69.479164 242.625 69.36979L242.625 68.510414Q242.8125 68.55729 243.10938 68.55729Q243.46875 68.55729 243.65625 68.354164Q243.85938 68.166664 243.85938 67.666664L243.85938 60.572914L244.9375 60.572914ZM243.75 58.90104Q243.75 58.635414 243.90625 58.447914Q244.0625 58.260414 244.375 58.260414Q244.6875 58.260414 244.84375 58.447914Q245.01562 58.635414 245.01562 58.90104Q245.01562 59.15104 244.84375 59.33854Q244.6875 59.510414 244.375 59.510414Q244.0625 59.510414 243.90625 59.33854Q243.75 59.15104 243.75 58.90104ZM250.51562 65.229164Q250.51562 64.791664 250.17188 64.55729Q249.84375 64.30729 249.01562 64.135414Q248.20312 63.96354 247.71875 63.71354Q247.23438 63.46354 247.0 63.135414Q246.78125 62.791664 246.78125 62.322914Q246.78125 61.541664 247.4375 61.010414Q248.09375 60.46354 249.125 60.46354Q250.20312 60.46354 250.85938 61.02604Q251.53125 61.572914 251.53125 62.43229L250.45312 62.43229Q250.45312 61.99479 250.0625 61.68229Q249.6875 61.354164 249.125 61.354164Q248.53125 61.354164 248.1875 61.61979Q247.85938 61.86979 247.85938 62.27604Q247.85938 62.666664 248.17188 62.86979Q248.48438 63.072914 249.29688 63.260414Q250.10938 63.43229 250.60938 63.68229Q251.10938 63.93229 251.34375 64.291664Q251.59375 64.65104 251.59375 65.15104Q251.59375 66.010414 250.90625 66.52604Q250.23438 67.041664 249.15625 67.041664Q248.39062 67.041664 247.79688 66.77604Q247.21875 66.49479 246.89062 66.010414Q246.5625 65.52604 246.5625 64.96354L247.64062 64.96354Q247.67188 65.510414 248.07812 65.83854Q248.48438 66.15104 249.15625 66.15104Q249.76562 66.15104 250.14062 65.90104Q250.51562 65.65104 250.51562 65.229164ZM256.84375 60.572914L256.875 61.27604Q257.5625 60.46354 258.75 60.46354Q260.07812 60.46354 260.5625 61.479164Q260.875 61.02604 261.375 60.74479Q261.89062 60.46354 262.57812 60.46354Q264.67188 60.46354 264.70312 62.666664L264.70312 66.916664L263.625 66.916664L263.625 62.729164Q263.625 62.05729 263.3125 61.729164Q263.0 61.385414 262.26562 61.385414Q261.65625 61.385414 261.25 61.74479Q260.85938 62.104164 260.79688 62.71354L260.79688 66.916664L259.71875 66.916664L259.71875 62.760414Q259.71875 61.385414 258.35938 61.385414Q257.29688 61.385414 256.90625 62.291664L256.90625 66.916664L255.8125 66.916664L255.8125 60.572914L256.84375 60.572914ZM270.73438 66.291664Q270.10938 67.041664 268.875 67.041664Q267.85938 67.041664 267.32812 66.447914Q266.79688 65.854164 266.79688 64.697914L266.79688 60.572914L267.875 60.572914L267.875 64.666664Q267.875 66.11979 269.04688 66.11979Q270.29688 66.11979 270.70312 65.18229L270.70312 60.572914L271.79688 60.572914L271.79688 66.916664L270.76562 66.916664L270.73438 66.291664ZM275.29688 59.041664L275.29688 60.572914L276.46875 60.572914L276.46875 61.416664L275.29688 61.416664L275.29688 65.33854Q275.29688 65.729164 275.45312 65.916664Q275.60938 66.104164 275.98438 66.104164Q276.17188 66.104164 276.5 66.041664L276.5 66.916664Q276.07812 67.041664 275.67188 67.041664Q274.95312 67.041664 274.57812 66.604164Q274.20312 66.15104 274.20312 65.33854L274.20312 61.416664L273.04688 61.416664L273.04688 60.572914L274.20312 60.572914L274.20312 59.041664L275.29688 59.041664ZM281.73438 66.916664Q281.64062 66.729164 281.57812 66.24479Q280.82812 67.041664 279.78125 67.041664Q278.84375 67.041664 278.23438 66.510414Q277.64062 65.979164 277.64062 65.15104Q277.64062 64.166664 278.39062 63.61979Q279.14062 63.072914 280.51562 63.072914L281.5625 63.072914L281.5625 62.572914Q281.5625 62.010414 281.21875 61.68229Q280.89062 61.33854 280.21875 61.33854Q279.64062 61.33854 279.25 61.635414Q278.85938 61.916664 278.85938 62.33854L277.76562 62.33854Q277.76562 61.854164 278.09375 61.416664Q278.4375 60.979164 279.01562 60.729164Q279.59375 60.46354 280.28125 60.46354Q281.39062 60.46354 282.0 61.010414Q282.625 61.55729 282.65625 62.510414L282.65625 65.43229Q282.65625 66.30729 282.875 66.822914L282.875 66.916664L281.73438 66.916664ZM279.9375 66.08854Q280.45312 66.08854 280.90625 65.822914Q281.35938 65.55729 281.5625 65.135414L281.5625 63.83854L280.71875 63.83854Q278.71875 63.83854 278.71875 65.010414Q278.71875 65.510414 279.0625 65.80729Q279.40625 66.08854 279.9375 66.08854ZM286.29688 59.041664L286.29688 60.572914L287.46875 60.572914L287.46875 61.416664L286.29688 61.416664L286.29688 65.33854Q286.29688 65.729164 286.45312 65.916664Q286.60938 66.104164 286.98438 66.104164Q287.17188 66.104164 287.5 66.041664L287.5 66.916664Q287.07812 67.041664 286.67188 67.041664Q285.95312 67.041664 285.57812 66.604164Q285.20312 66.15104 285.20312 65.33854L285.20312 61.416664L284.04688 61.416664L284.04688 60.572914L285.20312 60.572914L285.20312 59.041664L286.29688 59.041664ZM291.45312 67.041664Q290.15625 67.041664 289.34375 66.197914Q288.54688 65.33854 288.54688 63.916664L288.54688 63.729164Q288.54688 62.77604 288.90625 62.041664Q289.26562 61.291664 289.90625 60.885414Q290.5625 60.46354 291.3125 60.46354Q292.54688 60.46354 293.23438 61.27604Q293.92188 62.08854 293.92188 63.604164L293.92188 64.05729L289.625 64.05729Q289.65625 64.99479 290.17188 65.572914Q290.70312 66.15104 291.51562 66.15104Q292.07812 66.15104 292.46875 65.916664Q292.875 65.68229 293.1875 65.291664L293.84375 65.80729Q293.04688 67.041664 291.45312 67.041664ZM291.3125 61.354164Q290.65625 61.354164 290.20312 61.83854Q289.76562 62.30729 289.67188 63.166664L292.84375 63.166664L292.84375 63.08854Q292.79688 62.260414 292.39062 61.80729Q292.0 61.354164 291.3125 61.354164Z" fill-rule="nonzero"/><path stroke="#db4437" stroke-width="4.0" stroke-linecap="butt" d="M310.0 62.416668L322.0 62.416668" fill-rule="nonzero"/><path fill="#757575" d="M333.35938 66.15104Q333.9375 66.15104 334.375 65.80729Q334.8125 65.447914 334.85938 64.916664L335.89062 64.916664Q335.85938 65.46354 335.5 65.96354Q335.15625 66.447914 334.57812 66.74479Q334.01562 67.041664 333.35938 67.041664Q332.0625 67.041664 331.29688 66.18229Q330.54688 65.30729 330.54688 63.80729L330.54688 63.61979Q330.54688 62.697914 330.875 61.979164Q331.21875 61.260414 331.84375 60.86979Q332.48438 60.46354 333.35938 60.46354Q334.42188 60.46354 335.125 61.104164Q335.84375 61.729164 335.89062 62.760414L334.85938 62.760414Q334.8125 62.135414 334.39062 61.74479Q333.96875 61.354164 333.35938 61.354164Q332.53125 61.354164 332.07812 61.947914Q331.625 62.541664 331.625 63.666664L331.625 63.86979Q331.625 64.96354 332.07812 65.55729Q332.53125 66.15104 333.35938 66.15104ZM338.0 66.916664L336.92188 66.916664L336.92188 57.916664L338.0 57.916664L338.0 66.916664ZM340.9375 60.572914L340.9375 67.65104Q340.9375 69.479164 339.28125 69.479164Q338.92188 69.479164 338.625 69.36979L338.625 68.510414Q338.8125 68.55729 339.10938 68.55729Q339.46875 68.55729 339.65625 68.354164Q339.85938 68.166664 339.85938 67.666664L339.85938 60.572914L340.9375 60.572914ZM339.75 58.90104Q339.75 58.635414 339.90625 58.447914Q340.0625 58.260414 340.375 58.260414Q340.6875 58.260414 340.84375 58.447914Q341.01562 58.635414 341.01562 58.90104Q341.01562 59.15104 340.84375 59.33854Q340.6875 59.510414 340.375 59.510414Q340.0625 59.510414 339.90625 59.33854Q339.75 59.15104 339.75 58.90104ZM346.51562 65.229164Q346.51562 64.791664 346.17188 64.55729Q345.84375 64.30729 345.01562 64.135414Q344.20312 63.96354 343.71875 63.71354Q343.23438 63.46354 343.0 63.135414Q342.78125 62.791664 342.78125 62.322914Q342.78125 61.541664 343.4375 61.010414Q344.09375 60.46354 345.125 60.46354Q346.20312 60.46354 346.85938 61.02604Q347.53125 61.572914 347.53125 62.43229L346.45312 62.43229Q346.45312 61.99479 346.0625 61.68229Q345.6875 61.354164 345.125 61.354164Q344.53125 61.354164 344.1875 61.61979Q343.85938 61.86979 343.85938 62.27604Q343.85938 62.666664 344.17188 62.86979Q344.48438 63.072914 345.29688 63.260414Q346.10938 63.43229 346.60938 63.68229Q347.10938 63.93229 347.34375 64.291664Q347.59375 64.65104 347.59375 65.15104Q347.59375 66.010414 346.90625 66.52604Q346.23438 67.041664 345.15625 67.041664Q344.39062 67.041664 343.79688 66.77604Q343.21875 66.49479 342.89062 66.010414Q342.5625 65.52604 342.5625 64.96354L343.64062 64.96354Q343.67188 65.510414 344.07812 65.83854Q344.48438 66.15104 345.15625 66.15104Q345.76562 66.15104 346.14062 65.90104Q346.51562 65.65104 346.51562 65.229164ZM354.35938 66.15104Q354.9375 66.15104 355.375 65.80729Q355.8125 65.447914 355.85938 64.916664L356.89062 64.916664Q356.85938 65.46354 356.5 65.96354Q356.15625 66.447914 355.57812 66.74479Q355.01562 67.041664 354.35938 67.041664Q353.0625 67.041664 352.29688 66.18229Q351.54688 65.30729 351.54688 63.80729L351.54688 63.61979Q351.54688 62.697914 351.875 61.979164Q352.21875 61.260414 352.84375 60.86979Q353.48438 60.46354 354.35938 60.46354Q355.42188 60.46354 356.125 61.104164Q356.84375 61.729164 356.89062 62.760414L355.85938 62.760414Q355.8125 62.135414 355.39062 61.74479Q354.96875 61.354164 354.35938 61.354164Q353.53125 61.354164 353.07812 61.947914Q352.625 62.541664 352.625 63.666664L352.625 63.86979Q352.625 64.96354 353.07812 65.55729Q353.53125 66.15104 354.35938 66.15104ZM357.53125 63.68229Q357.53125 62.760414 357.89062 62.010414Q358.26562 61.260414 358.92188 60.86979Q359.57812 60.46354 360.40625 60.46354Q361.70312 60.46354 362.5 61.354164Q363.3125 62.24479 363.3125 63.74479L363.3125 63.822914Q363.3125 64.74479 362.95312 65.479164Q362.59375 66.21354 361.9375 66.635414Q361.28125 67.041664 360.42188 67.041664Q359.14062 67.041664 358.32812 66.15104Q357.53125 65.24479 357.53125 63.760414L357.53125 63.68229ZM358.625 63.822914Q358.625 64.86979 359.10938 65.510414Q359.60938 66.15104 360.42188 66.15104Q361.25 66.15104 361.73438 65.510414Q362.21875 64.854164 362.21875 63.68229Q362.21875 62.65104 361.71875 62.010414Q361.23438 61.354164 360.40625 61.354164Q359.60938 61.354164 359.10938 61.99479Q358.625 62.61979 358.625 63.822914ZM370.17188 63.822914Q370.17188 65.260414 369.51562 66.15104Q368.85938 67.041664 367.71875 67.041664Q366.5625 67.041664 365.90625 66.30729L365.90625 69.354164L364.82812 69.354164L364.82812 60.572914L365.8125 60.572914L365.85938 61.27604Q366.53125 60.46354 367.70312 60.46354Q368.84375 60.46354 369.5 61.322914Q370.17188 62.18229 370.17188 63.71354L370.17188 63.822914ZM369.09375 63.697914Q369.09375 62.61979 368.625 62.010414Q368.17188 61.385414 367.375 61.385414Q366.39062 61.385414 365.90625 62.24479L365.90625 65.27604Q366.39062 66.15104 367.39062 66.15104Q368.17188 66.15104 368.625 65.541664Q369.09375 64.916664 369.09375 63.697914ZM373.89062 65.322914L375.375 60.572914L376.53125 60.572914L373.98438 67.90104Q373.39062 69.479164 372.10938 69.479164L371.89062 69.46354L371.5 69.385414L371.5 68.510414L371.78125 68.52604Q372.34375 68.52604 372.64062 68.30729Q372.95312 68.08854 373.15625 67.49479L373.39062 66.83854L371.125 60.572914L372.3125 60.572914L373.89062 65.322914Z" fill-rule="nonzero"/><path fill="#757575" d="M21.784374 26.9875L21.784374 38.76875Q21.784374 41.815624 19.01875 41.815624Q18.425 41.815624 17.909374 41.64375L17.909374 40.190624Q18.221874 40.26875 18.7375 40.26875Q19.346874 40.26875 19.659374 39.940624Q19.971874 39.628124 19.971874 38.815624L19.971874 26.9875L21.784374 26.9875ZM19.784374 24.175Q19.784374 23.753124 20.05 23.440624Q20.33125 23.128124 20.846874 23.128124Q21.378124 23.128124 21.64375 23.440624Q21.925 23.7375 21.925 24.175Q21.925 24.6125 21.64375 24.909374Q21.378124 25.20625 20.846874 25.20625Q20.315624 25.20625 20.05 24.909374Q19.784374 24.6125 19.784374 24.175ZM31.065624 34.753124Q31.065624 34.01875 30.51875 33.6125Q29.971874 33.20625 28.596874 32.909374Q27.221874 32.6125 26.409374 32.20625Q25.6125 31.8 25.221874 31.2375Q24.846874 30.659374 24.846874 29.878124Q24.846874 28.58125 25.940624 27.690624Q27.034374 26.784374 28.753124 26.784374Q30.55 26.784374 31.659374 27.721874Q32.784374 28.64375 32.784374 30.08125L30.95625 30.08125Q30.95625 29.346874 30.33125 28.815624Q29.70625 28.26875 28.753124 28.26875Q27.753124 28.26875 27.190624 28.70625Q26.64375 29.128124 26.64375 29.83125Q26.64375 30.471874 27.159374 30.815624Q27.675 31.14375 29.034374 31.45625Q30.39375 31.753124 31.221874 32.175Q32.065624 32.58125 32.471874 33.175Q32.878124 33.76875 32.878124 34.6125Q32.878124 36.034374 31.7375 36.89375Q30.6125 37.753124 28.8 37.753124Q27.534374 37.753124 26.55 37.3Q25.58125 36.846874 25.01875 36.05Q24.471874 35.2375 24.471874 34.3L26.284374 34.3Q26.33125 35.20625 27.003124 35.7375Q27.690624 36.26875 28.8 36.26875Q29.83125 36.26875 30.440624 35.8625Q31.065624 35.440624 31.065624 34.753124ZM43.409374 35.096874L46.01875 26.9875L47.8625 26.9875L44.08125 37.55L42.70625 37.55L38.878124 26.9875L40.721874 26.9875L43.409374 35.096874ZM56.065624 34.753124Q56.065624 34.01875 55.51875 33.6125Q54.971874 33.20625 53.596874 32.909374Q52.221874 32.6125 51.409374 32.20625Q50.6125 31.8 50.221874 31.2375Q49.846874 30.659374 49.846874 29.878124Q49.846874 28.58125 50.940624 27.690624Q52.034374 26.784374 53.753124 26.784374Q55.55 26.784374 56.659374 27.721874Q57.784374 28.64375 57.784374 30.08125L55.95625 30.08125Q55.95625 29.346874 55.33125 28.815624Q54.70625 28.26875 53.753124 28.26875Q52.753124 28.26875 52.190624 28.70625Q51.64375 29.128124 51.64375 29.83125Q51.64375 30.471874 52.159374 30.815624Q52.675 31.14375 54.034374 31.45625Q55.39375 31.753124 56.221874 32.175Q57.065624 32.58125 57.471874 33.175Q57.878124 33.76875 57.878124 34.6125Q57.878124 36.034374 56.7375 36.89375Q55.6125 37.753124 53.8 37.753124Q52.534374 37.753124 51.55 37.3Q50.58125 36.846874 50.01875 36.05Q49.471874 35.2375 49.471874 34.3L51.284374 34.3Q51.33125 35.20625 52.003124 35.7375Q52.690624 36.26875 53.8 36.26875Q54.83125 36.26875 55.440624 35.8625Q56.065624 35.440624 56.065624 34.753124ZM69.15938 36.26875Q70.12813 36.26875 70.84688 35.690624Q71.56563 35.096874 71.64375 34.221874L73.3625 34.221874Q73.3 35.128124 72.72188 35.95625Q72.15938 36.76875 71.19063 37.26875Q70.2375 37.753124 69.15938 37.753124Q67.00313 37.753124 65.72188 36.315624Q64.45625 34.8625 64.45625 32.3625L64.45625 32.065624Q64.45625 30.51875 65.01875 29.315624Q65.58125 28.1125 66.64375 27.45625Q67.70625 26.784374 69.14375 26.784374Q70.925 26.784374 72.09688 27.846874Q73.28438 28.909374 73.3625 30.6125L71.64375 30.6125Q71.56563 29.596874 70.8625 28.940624Q70.175 28.26875 69.14375 28.26875Q67.76875 28.26875 67.00313 29.26875Q66.25313 30.253124 66.25313 32.128124L66.25313 32.471874Q66.25313 34.3 67.00313 35.284374Q67.75313 36.26875 69.15938 36.26875ZM76.87813 37.55L75.08125 37.55L75.08125 22.55L76.87813 22.55L76.87813 37.55ZM81.78438 26.9875L81.78438 38.76875Q81.78438 41.815624 79.01875 41.815624Q78.425 41.815624 77.90938 41.64375L77.90938 40.190624Q78.22188 40.26875 78.7375 40.26875Q79.34688 40.26875 79.65938 39.940624Q79.97188 39.628124 79.97188 38.815624L79.97188 26.9875L81.78438 26.9875ZM79.78438 24.175Q79.78438 23.753124 80.05 23.440624Q80.33125 23.128124 80.84688 23.128124Q81.37813 23.128124 81.64375 23.440624Q81.925 23.7375 81.925 24.175Q81.925 24.6125 81.64375 24.909374Q81.37813 25.20625 80.84688 25.20625Q80.31563 25.20625 80.05 24.909374Q79.78438 24.6125 79.78438 24.175ZM91.06563 34.753124Q91.06563 34.01875 90.51875 33.6125Q89.97188 33.20625 88.59688 32.909374Q87.22188 32.6125 86.40938 32.20625Q85.6125 31.8 85.22188 31.2375Q84.84688 30.659374 84.84688 29.878124Q84.84688 28.58125 85.94063 27.690624Q87.03438 26.784374 88.75313 26.784374Q90.55 26.784374 91.65938 27.721874Q92.78438 28.64375 92.78438 30.08125L90.95625 30.08125Q90.95625 29.346874 90.33125 28.815624Q89.70625 28.26875 88.75313 28.26875Q87.75313 28.26875 87.19063 28.70625Q86.64375 29.128124 86.64375 29.83125Q86.64375 30.471874 87.15938 30.815624Q87.675 31.14375 89.03438 31.45625Q90.39375 31.753124 91.22188 32.175Q92.06563 32.58125 92.47188 33.175Q92.87813 33.76875 92.87813 34.6125Q92.87813 36.034374 91.7375 36.89375Q90.6125 37.753124 88.8 37.753124Q87.53438 37.753124 86.55 37.3Q85.58125 36.846874 85.01875 36.05Q84.47188 35.2375 84.47188 34.3L86.28438 34.3Q86.33125 35.20625 87.00313 35.7375Q87.69063 36.26875 88.8 36.26875Q89.83125 36.26875 90.44063 35.8625Q91.06563 35.440624 91.06563 34.753124ZM103.40938 35.096874L106.01875 26.9875L107.8625 26.9875L104.08125 37.55L102.70625 37.55L98.87813 26.9875L100.72188 26.9875L103.40938 35.096874ZM114.3 37.753124Q112.15938 37.753124 110.8 36.346874Q109.45625 34.925 109.45625 32.565624L109.45625 32.221874Q109.45625 30.659374 110.05 29.425Q110.65938 28.190624 111.7375 27.4875Q112.81563 26.784374 114.08125 26.784374Q116.14375 26.784374 117.28438 28.14375Q118.425 29.503124 118.425 32.034374L118.425 32.784374L111.26875 32.784374Q111.3 34.346874 112.175 35.315624Q113.05 36.26875 114.39375 36.26875Q115.3625 36.26875 116.01875 35.878124Q116.69063 35.4875 117.19063 34.846874L118.28438 35.70625Q116.95625 37.753124 114.3 37.753124ZM114.08125 28.26875Q112.9875 28.26875 112.2375 29.065624Q111.50313 29.8625 111.33125 31.3L116.6125 31.3L116.6125 31.159374Q116.53438 29.784374 115.8625 29.034374Q115.20625 28.26875 114.08125 28.26875ZM125.15938 36.26875Q126.12813 36.26875 126.84688 35.690624Q127.56563 35.096874 127.64375 34.221874L129.3625 34.221874Q129.3 35.128124 128.72188 35.95625Q128.15938 36.76875 127.19063 37.26875Q126.2375 37.753124 125.15938 37.753124Q123.00313 37.753124 121.72188 36.315624Q120.45625 34.8625 120.45625 32.3625L120.45625 32.065624Q120.45625 30.51875 121.01875 29.315624Q121.58125 28.1125 122.64375 27.45625Q123.70625 26.784374 125.14375 26.784374Q126.925 26.784374 128.09688 27.846874Q129.28438 28.909374 129.3625 30.6125L127.64375 30.6125Q127.56563 29.596874 126.8625 28.940624Q126.175 28.26875 125.14375 28.26875Q123.76875 28.26875 123.00313 29.26875Q122.25313 30.253124 122.25313 32.128124L122.25313 32.471874Q122.25313 34.3 123.00313 35.284374Q123.75313 36.26875 125.15938 36.26875ZM133.3625 24.425L133.3625 26.9875L135.34688 26.9875L135.34688 28.378124L133.3625 28.378124L133.3625 34.925Q133.3625 35.565624 133.62813 35.89375Q133.89375 36.20625 134.53438 36.20625Q134.84688 36.20625 135.39375 36.08125L135.39375 37.55Q134.675 37.753124 134.00313 37.753124Q132.8 37.753124 132.175 37.01875Q131.56563 36.284374 131.56563 34.925L131.56563 28.378124L129.64375 28.378124L129.64375 26.9875L131.56563 26.9875L131.56563 24.425L133.3625 24.425ZM137.44063 32.175Q137.44063 30.6125 138.05 29.378124Q138.65938 28.128124 139.7375 27.45625Q140.83125 26.784374 142.2375 26.784374Q144.39375 26.784374 145.72188 28.284374Q147.06563 29.76875 147.06563 32.253124L147.06563 32.378124Q147.06563 33.925 146.47188 35.159374Q145.87813 36.378124 144.76875 37.065624Q143.675 37.753124 142.25313 37.753124Q140.1125 37.753124 138.76875 36.253124Q137.44063 34.753124 137.44063 32.3L137.44063 32.175ZM139.25313 32.378124Q139.25313 34.14375 140.06563 35.20625Q140.89375 36.26875 142.25313 36.26875Q143.62813 36.26875 144.44063 35.190624Q145.25313 34.1125 145.25313 32.175Q145.25313 30.425 144.425 29.346874Q143.59688 28.26875 142.2375 28.26875Q140.89375 28.26875 140.06563 29.33125Q139.25313 30.39375 139.25313 32.378124ZM154.01875 28.596874Q153.6125 28.534374 153.14375 28.534374Q151.3625 28.534374 150.72188 30.05L150.72188 37.55L148.925 37.55L148.925 26.9875L150.675 26.9875L150.70625 28.20625Q151.59688 26.784374 153.22188 26.784374Q153.75313 26.784374 154.01875 26.925L154.01875 28.596874ZM169.84688 32.378124Q169.84688 34.8 168.7375 36.284374Q167.64375 37.753124 165.75313 37.753124Q163.83125 37.753124 162.72188 36.51875L162.72188 41.6125L160.925 41.6125L160.925 26.9875L162.56563 26.9875L162.65938 28.159374Q163.75313 26.784374 165.72188 26.784374Q167.62813 26.784374 168.7375 28.221874Q169.84688 29.659374 169.84688 32.221874L169.84688 32.378124ZM168.03438 32.175Q168.03438 30.39375 167.26875 29.3625Q166.51875 28.315624 165.19063 28.315624Q163.55 28.315624 162.72188 29.76875L162.72188 34.83125Q163.53438 36.26875 165.20625 36.26875Q166.50313 36.26875 167.26875 35.2375Q168.03438 34.20625 168.03438 32.175ZM176.3 37.753124Q174.15938 37.753124 172.8 36.346874Q171.45625 34.925 171.45625 32.565624L171.45625 32.221874Q171.45625 30.659374 172.05 29.425Q172.65938 28.190624 173.7375 27.4875Q174.81563 26.784374 176.08125 26.784374Q178.14375 26.784374 179.28438 28.14375Q180.425 29.503124 180.425 32.034374L180.425 32.784374L173.26875 32.784374Q173.3 34.346874 174.175 35.315624Q175.05 36.26875 176.39375 36.26875Q177.3625 36.26875 178.01875 35.878124Q178.69063 35.4875 179.19063 34.846874L180.28438 35.70625Q178.95625 37.753124 176.3 37.753124ZM176.08125 28.26875Q174.9875 28.26875 174.2375 29.065624Q173.50313 29.8625 173.33125 31.3L178.6125 31.3L178.6125 31.159374Q178.53438 29.784374 177.8625 29.034374Q177.20625 28.26875 176.08125 28.26875ZM188.01875 28.596874Q187.6125 28.534374 187.14375 28.534374Q185.3625 28.534374 184.72188 30.05L184.72188 37.55L182.925 37.55L182.925 26.9875L184.675 26.9875L184.70625 28.20625Q185.59688 26.784374 187.22188 26.784374Q187.75313 26.784374 188.01875 26.925L188.01875 28.596874ZM190.8 37.55L190.8 28.378124L189.14375 28.378124L189.14375 26.9875L190.8 26.9875L190.8 25.89375Q190.8 24.20625 191.70625 23.284374Q192.62813 22.346874 194.28438 22.346874Q194.90938 22.346874 195.51875 22.503124L195.425 23.971874Q194.97188 23.89375 194.45625 23.89375Q193.56563 23.89375 193.08125 24.409374Q192.6125 24.909374 192.6125 25.8625L192.6125 26.9875L194.8625 26.9875L194.8625 28.378124L192.6125 28.378124L192.6125 37.55L190.8 37.55ZM196.44063 32.175Q196.44063 30.6125 197.05 29.378124Q197.65938 28.128124 198.7375 27.45625Q199.83125 26.784374 201.2375 26.784374Q203.39375 26.784374 204.72188 28.284374Q206.06563 29.76875 206.06563 32.253124L206.06563 32.378124Q206.06563 33.925 205.47188 35.159374Q204.87813 36.378124 203.76875 37.065624Q202.675 37.753124 201.25313 37.753124Q199.1125 37.753124 197.76875 36.253124Q196.44063 34.753124 196.44063 32.3L196.44063 32.175ZM198.25313 32.378124Q198.25313 34.14375 199.06563 35.20625Q199.89375 36.26875 201.25313 36.26875Q202.62813 36.26875 203.44063 35.190624Q204.25313 34.1125 204.25313 32.175Q204.25313 30.425 203.425 29.346874Q202.59688 28.26875 201.2375 28.26875Q199.89375 28.26875 199.06563 29.33125Q198.25313 30.39375 198.25313 32.378124ZM213.01875 28.596874Q212.6125 28.534374 212.14375 28.534374Q210.3625 28.534374 209.72188 30.05L209.72188 37.55L207.925 37.55L207.925 26.9875L209.675 26.9875L209.70625 28.20625Q210.59688 26.784374 212.22188 26.784374Q212.75313 26.784374 213.01875 26.925L213.01875 28.596874ZM216.6125 26.9875L216.65938 28.159374Q217.83125 26.784374 219.8 26.784374Q222.01875 26.784374 222.81563 28.4875Q223.34688 27.721874 224.19063 27.253124Q225.03438 26.784374 226.19063 26.784374Q229.65938 26.784374 229.72188 30.471874L229.72188 37.55L227.90938 37.55L227.90938 30.58125Q227.90938 29.440624 227.39375 28.878124Q226.87813 28.315624 225.65938 28.315624Q224.65938 28.315624 223.9875 28.925Q223.33125 29.51875 223.22188 30.534374L223.22188 37.55L221.40938 37.55L221.40938 30.628124Q221.40938 28.315624 219.14375 28.315624Q217.3625 28.315624 216.72188 29.83125L216.72188 37.55L214.90938 37.55L214.90938 26.9875L216.6125 26.9875ZM239.44063 37.55Q239.28438 37.2375 239.19063 36.440624Q237.925 37.753124 236.175 37.753124Q234.6125 37.753124 233.6125 36.8625Q232.6125 35.971874 232.6125 34.6125Q232.6125 32.971874 233.8625 32.065624Q235.12813 31.14375 237.39375 31.14375L239.15938 31.14375L239.15938 30.315624Q239.15938 29.3625 238.58125 28.8Q238.01875 28.2375 236.925 28.2375Q235.95625 28.2375 235.3 28.7375Q234.64375 29.221874 234.64375 29.909374L232.83125 29.909374Q232.83125 29.128124 233.39375 28.39375Q233.95625 27.64375 234.90938 27.221874Q235.87813 26.784374 237.03438 26.784374Q238.8625 26.784374 239.89375 27.70625Q240.925 28.6125 240.97188 30.221874L240.97188 35.08125Q240.97188 36.534374 241.33125 37.39375L241.33125 37.55L239.44063 37.55ZM236.44063 36.175Q237.3 36.175 238.05 35.7375Q238.81563 35.3 239.15938 34.596874L239.15938 32.425L237.7375 32.425Q234.425 32.425 234.425 34.3625Q234.425 35.221874 234.9875 35.70625Q235.55 36.175 236.44063 36.175ZM245.62813 26.9875L245.69063 28.315624Q246.89375 26.784374 248.84688 26.784374Q252.20625 26.784374 252.22188 30.565624L252.22188 37.55L250.425 37.55L250.425 30.55Q250.40938 29.409374 249.89375 28.8625Q249.39375 28.315624 248.3 28.315624Q247.425 28.315624 246.75313 28.784374Q246.09688 29.253124 245.72188 30.01875L245.72188 37.55L243.925 37.55L243.925 26.9875L245.62813 26.9875ZM259.15936 36.26875Q260.1281 36.26875 260.84686 35.690624Q261.5656 35.096874 261.64374 34.221874L263.3625 34.221874Q263.3 35.128124 262.72186 35.95625Q262.15936 36.76875 261.1906 37.26875Q260.2375 37.753124 259.15936 37.753124Q257.0031 37.753124 255.72188 36.315624Q254.45625 34.8625 254.45625 32.3625L254.45625 32.065624Q254.45625 30.51875 255.01875 29.315624Q255.58125 28.1125 256.64374 27.45625Q257.70624 26.784374 259.14374 26.784374Q260.925 26.784374 262.09686 27.846874Q263.28436 28.909374 263.3625 30.6125L261.64374 30.6125Q261.5656 29.596874 260.8625 28.940624Q260.175 28.26875 259.14374 28.26875Q257.76874 28.26875 257.0031 29.26875Q256.2531 30.253124 256.2531 32.128124L256.2531 32.471874Q256.2531 34.3 257.0031 35.284374Q257.7531 36.26875 259.15936 36.26875ZM269.3 37.753124Q267.15936 37.753124 265.8 36.346874Q264.45624 34.925 264.45624 32.565624L264.45624 32.221874Q264.45624 30.659374 265.05 29.425Q265.65936 28.190624 266.7375 27.4875Q267.8156 26.784374 269.08124 26.784374Q271.14374 26.784374 272.28436 28.14375Q273.425 29.503124 273.425 32.034374L273.425 32.784374L266.26874 32.784374Q266.3 34.346874 267.175 35.315624Q268.05 36.26875 269.39374 36.26875Q270.3625 36.26875 271.01874 35.878124Q271.6906 35.4875 272.1906 34.846874L273.28436 35.70625Q271.95624 37.753124 269.3 37.753124ZM269.08124 28.26875Q267.9875 28.26875 267.2375 29.065624Q266.5031 29.8625 266.33124 31.3L271.6125 31.3L271.6125 31.159374Q271.53436 29.784374 270.8625 29.034374Q270.20624 28.26875 269.08124 28.26875Z" fill-rule="nonzero"/></svg>