<svg version="1.1" viewBox="0.0 0.0 864.0 534.0" fill="none" stroke="none" stroke-linecap="square" stroke-miterlimit="10" width="864" height="534" xmlns:xlink="http://www.w3.org/1999/xlink" xmlns="http://www.w3.org/2000/svg"><path fill="#ffffff" d="M0 0L864.0 0L864.0 534.0L0 534.0L0 0Z" fill-rule="nonzero"/><path stroke="#cccccc" stroke-width="1.0" stroke-linecap="butt" d="M135.5 108.5L135.5 453.5" fill-rule="nonzero"/><path stroke="#cccccc" stroke-width="1.0" stroke-linecap="butt" d="M253.5 108.5L253.5 453.5" fill-rule="nonzero"/><path stroke="#cccccc" stroke-width="1.0" stroke-linecap="butt" d="M370.5 108.5L370.5 453.5" fill-rule="nonzero"/><path stroke="#cccccc" stroke-width="1.0" stroke-linecap="butt" d="M487.5 108.5L487.5 453.5" fill-rule="nonzero"/><path stroke="#cccccc" stroke-width="1.0" stroke-linecap="butt" d="M604.5 108.5L604.5 453.5" fill-rule="nonzero"/><path stroke="#cccccc" stroke-width="1.0" stroke-linecap="butt" d="M721.5 108.5L721.5 453.5" fill-rule="nonzero"/><path stroke="#333333" stroke-width="1.0" stroke-linecap="butt" d="M100.5 453.5L837.5 453.5" fill-rule="nonzero"/><path stroke="#cccccc" stroke-width="1.0" stroke-linecap="butt" d="M100.5 338.5L837.5 338.5" fill-rule="nonzero"/><path stroke="#cccccc" stroke-width="1.0" stroke-linecap="butt" d="M100.5 223.5L837.5 223.5" fill-rule="nonzero"/><path stroke="#cccccc" stroke-width="1.0" stroke-linecap="butt" d="M100.5 108.5L837.5 108.5" fill-rule="nonzero"/><clipPath id="id_0"><path d="M100.7 108.8L837.3 108.8L837.3 453.3L100.7 453.3L100.7 108.8Z" clip-rule="nonzero"/></clipPath><path stroke="#4285f4" stroke-width="2.0" stroke-linecap="butt" clip-path="url(#id_0)" d="M100.7 453.3L182.54445 453.3L264.3889 453.3L346.23334 453.2885L428.0778 453.2885L509.9222 453.27704L591.76666 453.24258L673.6111 453.15073L755.45557 452.8292L837.3 450.84256" fill-rule="nonzero"/><path stroke="#db4437" stroke-width="2.0" stroke-linecap="butt" clip-path="url(#id_0)" d="M100.7 453.2885L182.54445 453.2885L264.3889 453.2885L346.23334 453.2885L428.0778 453.27704L509.9222 453.26556L591.76666 453.19666L673.6111 453.07034L755.45557 452.10574L837.3 447.29422" fill-rule="nonzero"/><path stroke="#f4b400" stroke-width="2.0" stroke-linecap="butt" clip-path="url(#id_0)" d="M100.7 453.3L182.54445 453.3L264.3889 453.3L346.23334 453.2885L428.0778 453.20813L509.9222 452.72583L591.76666 449.87796L673.6111 437.00516L755.45557 389.60196L837.3 114.26607" fill-rule="nonzero"/><path fill="#000000" fill-opacity="0.0" clip-path="url(#id_0)" d="M103.7 453.3C103.7 454.95685 102.35686 456.3 100.7 456.3C99.043144 456.3 97.7 454.95685 97.7 453.3C97.7 451.64316 99.043144 450.3 100.7 450.3C102.35686 450.3 103.7 451.64316 103.7 453.3Z" fill-rule="nonzero"/><path fill="#000000" fill-opacity="0.0" clip-path="url(#id_0)" d="M185.54445 453.3C185.54445 454.95685 184.2013 456.3 182.54445 456.3C180.88759 456.3 179.54445 454.95685 179.54445 453.3C179.54445 451.64316 180.88759 450.3 182.54445 450.3C184.2013 450.3 185.54445 451.64316 185.54445 453.3Z" fill-rule="nonzero"/><path fill="#000000" fill-opacity="0.0" clip-path="url(#id_0)" d="M267.3889 453.3C267.3889 454.95685 266.04575 456.3 264.3889 456.3C262.73203 456.3 261.3889 454.95685 261.3889 453.3C261.3889 451.64316 262.73203 450.3 264.3889 450.3C266.04575 450.3 267.3889 451.64316 267.3889 453.3Z" fill-rule="nonzero"/><path fill="#000000" fill-opacity="0.0" clip-path="url(#id_0)" d="M349.23334 453.2885C349.23334 454.94537 347.8902 456.2885 346.23334 456.2885C344.57648 456.2885 343.23334 454.94537 343.23334 453.2885C343.23334 451.63165 344.57648 450.2885 346.23334 450.2885C347.8902 450.2885 349.23334 451.63165 349.23334 453.2885Z" fill-rule="nonzero"/><path fill="#000000" fill-opacity="0.0" clip-path="url(#id_0)" d="M431.0778 453.2885C431.0778 454.94537 429.73462 456.2885 428.0778 456.2885C426.42093 456.2885 425.0778 454.94537 425.0778 453.2885C425.0778 451.63165 426.42093 450.2885 428.0778 450.2885C429.73462 450.2885 431.0778 451.63165 431.0778 453.2885Z" fill-rule="nonzero"/><path fill="#000000" fill-opacity="0.0" clip-path="url(#id_0)" d="M512.92224 453.27704C512.92224 454.9339 511.57907 456.27704 509.9222 456.27704C508.26538 456.27704 506.9222 454.9339 506.9222 453.27704C506.9222 451.62018 508.26538 450.27704 509.9222 450.27704C511.57907 450.27704 512.92224 451.62018 512.92224 453.27704Z" fill-rule="nonzero"/><path fill="#000000" fill-opacity="0.0" clip-path="url(#id_0)" d="M594.76666 453.24258C594.76666 454.89944 593.4235 456.24258 591.76666 456.24258C590.1098 456.24258 588.76666 454.89944 588.76666 453.24258C588.76666 451.58572 590.1098 450.24258 591.76666 450.24258C593.4235 450.24258 594.76666 451.58572 594.76666 453.24258Z" fill-rule="nonzero"/><path fill="#000000" fill-opacity="0.0" clip-path="url(#id_0)" d="M676.6111 453.15073C676.6111 454.80756 675.26794 456.15073 673.6111 456.15073C671.9543 456.15073 670.6111 454.80756 670.6111 453.15073C670.6111 451.49387 671.9543 450.15073 673.6111 450.15073C675.26794 450.15073 676.6111 451.49387 676.6111 453.15073Z" fill-rule="nonzero"/><path fill="#000000" fill-opacity="0.0" clip-path="url(#id_0)" d="M758.45557 452.8292C758.45557 454.48602 757.1124 455.8292 755.45557 455.8292C753.7987 455.8292 752.45557 454.48602 752.45557 452.8292C752.45557 451.17233 753.7987 449.8292 755.45557 449.8292C757.1124 449.8292 758.45557 451.17233 758.45557 452.8292Z" fill-rule="nonzero"/><path fill="#000000" fill-opacity="0.0" clip-path="url(#id_0)" d="M840.3 450.84256C840.3 452.49942 838.95685 453.84256 837.3 453.84256C835.6431 453.84256 834.3 452.49942 834.3 450.84256C834.3 449.1857 835.6431 447.84256 837.3 447.84256C838.95685 447.84256 840.3 449.1857 840.3 450.84256Z" fill-rule="nonzero"/><path fill="#000000" fill-opacity="0.0" clip-path="url(#id_0)" d="M103.7 453.2885C103.7 454.94537 102.35686 456.2885 100.7 456.2885C99.043144 456.2885 97.7 454.94537 97.7 453.2885C97.7 451.63165 99.043144 450.2885 100.7 450.2885C102.35686 450.2885 103.7 451.63165 103.7 453.2885Z" fill-rule="nonzero"/><path fill="#000000" fill-opacity="0.0" clip-path="url(#id_0)" d="M185.54445 453.2885C185.54445 454.94537 184.2013 456.2885 182.54445 456.2885C180.88759 456.2885 179.54445 454.94537 179.54445 453.2885C179.54445 451.63165 180.88759 450.2885 182.54445 450.2885C184.2013 450.2885 185.54445 451.63165 185.54445 453.2885Z" fill-rule="nonzero"/><path fill="#000000" fill-opacity="0.0" clip-path="url(#id_0)" d="M267.3889 453.2885C267.3889 454.94537 266.04575 456.2885 264.3889 456.2885C262.73203 456.2885 261.3889 454.94537 261.3889 453.2885C261.3889 451.63165 262.73203 450.2885 264.3889 450.2885C266.04575 450.2885 267.3889 451.63165 267.3889 453.2885Z" fill-rule="nonzero"/><path fill="#000000" fill-opacity="0.0" clip-path="url(#id_0)" d="M349.23334 453.2885C349.23334 454.94537 347.8902 456.2885 346.23334 456.2885C344.57648 456.2885 343.23334 454.94537 343.23334 453.2885C343.23334 451.63165 344.57648 450.2885 346.23334 450.2885C347.8902 450.2885 349.23334 451.63165 349.23334 453.2885Z" fill-rule="nonzero"/><path fill="#000000" fill-opacity="0.0" clip-path="url(#id_0)" d="M431.0778 453.27704C431.0778 454.9339 429.73462 456.27704 428.0778 456.27704C426.42093 456.27704 425.0778 454.9339 425.0778 453.27704C425.0778 451.62018 426.42093 450.27704 428.0778 450.27704C429.73462 450.27704 431.0778 451.62018 431.0778 453.27704Z" fill-rule="nonzero"/><path fill="#000000" fill-opacity="0.0" clip-path="url(#id_0)" d="M512.92224 453.26556C512.92224 454.9224 511.57907 456.26556 509.9222 456.26556C508.26538 456.26556 506.9222 454.9224 506.9222 453.26556C506.9222 451.6087 508.26538 450.26556 509.9222 450.26556C511.57907 450.26556 512.92224 451.6087 512.92224 453.26556Z" fill-rule="nonzero"/><path fill="#000000" fill-opacity="0.0" clip-path="url(#id_0)" d="M594.76666 453.19666C594.76666 454.85352 593.4235 456.19666 591.76666 456.19666C590.1098 456.19666 588.76666 454.85352 588.76666 453.19666C588.76666 451.5398 590.1098 450.19666 591.76666 450.19666C593.4235 450.19666 594.76666 451.5398 594.76666 453.19666Z" fill-rule="nonzero"/><path fill="#000000" fill-opacity="0.0" clip-path="url(#id_0)" d="M676.6111 453.07034C676.6111 454.72717 675.26794 456.07034 673.6111 456.07034C671.9543 456.07034 670.6111 454.72717 670.6111 453.07034C670.6111 451.41348 671.9543 450.07034 673.6111 450.07034C675.26794 450.07034 676.6111 451.41348 676.6111 453.07034Z" fill-rule="nonzero"/><path fill="#000000" fill-opacity="0.0" clip-path="url(#id_0)" d="M758.45557 452.10574C758.45557 453.76257 757.1124 455.10574 755.45557 455.10574C753.7987 455.10574 752.45557 453.76257 752.45557 452.10574C752.45557 450.44888 753.7987 449.10574 755.45557 449.10574C757.1124 449.10574 758.45557 450.44888 758.45557 452.10574Z" fill-rule="nonzero"/><path fill="#000000" fill-opacity="0.0" clip-path="url(#id_0)" d="M840.3 447.29422C840.3 448.95108 838.95685 450.29422 837.3 450.29422C835.6431 450.29422 834.3 448.95108 834.3 447.29422C834.3 445.63736 835.6431 444.29422 837.3 444.29422C838.95685 444.29422 840.3 445.63736 840.3 447.29422Z" fill-rule="nonzero"/><path fill="#000000" fill-opacity="0.0" clip-path="url(#id_0)" d="M103.7 453.3C103.7 454.95685 102.35686 456.3 100.7 456.3C99.043144 456.3 97.7 454.95685 97.7 453.3C97.7 451.64316 99.043144 450.3 100.7 450.3C102.35686 450.3 103.7 451.64316 103.7 453.3Z" fill-rule="nonzero"/><path fill="#000000" fill-opacity="0.0" clip-path="url(#id_0)" d="M185.54445 453.3C185.54445 454.95685 184.2013 456.3 182.54445 456.3C180.88759 456.3 179.54445 454.95685 179.54445 453.3C179.54445 451.64316 180.88759 450.3 182.54445 450.3C184.2013 450.3 185.54445 451.64316 185.54445 453.3Z" fill-rule="nonzero"/><path fill="#000000" fill-opacity="0.0" clip-path="url(#id_0)" d="M267.3889 453.3C267.3889 454.95685 266.04575 456.3 264.3889 456.3C262.73203 456.3 261.3889 454.95685 261.3889 453.3C261.3889 451.64316 262.73203 450.3 264.3889 450.3C266.04575 450.3 267.3889 451.64316 267.3889 453.3Z" fill-rule="nonzero"/><path fill="#000000" fill-opacity="0.0" clip-path="url(#id_0)" d="M349.23334 453.2885C349.23334 454.94537 347.8902 456.2885 346.23334 456.2885C344.57648 456.2885 343.23334 454.94537 343.23334 453.2885C343.23334 451.63165 344.57648 450.2885 346.23334 450.2885C347.8902 450.2885 349.23334 451.63165 349.23334 453.2885Z" fill-rule="nonzero"/><path fill="#000000" fill-opacity="0.0" clip-path="url(#id_0)" d="M431.0778 453.20813C431.0778 454.865 429.73462 456.20813 428.0778 456.20813C426.42093 456.20813 425.0778 454.865 425.0778 453.20813C425.0778 451.55127 426.42093 450.20813 428.0778 450.20813C429.73462 450.20813 431.0778 451.55127 431.0778 453.20813Z" fill-rule="nonzero"/><path fill="#000000" fill-opacity="0.0" clip-path="url(#id_0)" d="M512.92224 452.72583C512.92224 454.3827 511.57907 455.72583 509.9222 455.72583C508.26538 455.72583 506.9222 454.3827 506.9222 452.72583C506.9222 451.06897 508.26538 449.72583 509.9222 449.72583C511.57907 449.72583 512.92224 451.06897 512.92224 452.72583Z" fill-rule="nonzero"/><path fill="#000000" fill-opacity="0.0" clip-path="url(#id_0)" d="M594.76666 449.87796C594.76666 451.53482 593.4235 452.87796 591.76666 452.87796C590.1098 452.87796 588.76666 451.53482 588.76666 449.87796C588.76666 448.2211 590.1098 446.87796 591.76666 446.87796C593.4235 446.87796 594.76666 448.2211 594.76666 449.87796Z" fill-rule="nonzero"/><path fill="#000000" fill-opacity="0.0" clip-path="url(#id_0)" d="M676.6111 437.00516C676.6111 438.66202 675.26794 440.00516 673.6111 440.00516C671.9543 440.00516 670.6111 438.66202 670.6111 437.00516C670.6111 435.3483 671.9543 434.00516 673.6111 434.00516C675.26794 434.00516 676.6111 435.3483 676.6111 437.00516Z" fill-rule="nonzero"/><path fill="#000000" fill-opacity="0.0" clip-path="url(#id_0)" d="M758.45557 389.60196C758.45557 391.2588 757.1124 392.60196 755.45557 392.60196C753.7987 392.60196 752.45557 391.2588 752.45557 389.60196C752.45557 387.9451 753.7987 386.60196 755.45557 386.60196C757.1124 386.60196 758.45557 387.9451 758.45557 389.60196Z" fill-rule="nonzero"/><path fill="#000000" fill-opacity="0.0" clip-path="url(#id_0)" d="M840.3 114.26607C840.3 115.92292 838.95685 117.26607 837.3 117.26607C835.6431 117.26607 834.3 115.92292 834.3 114.26607C834.3 112.609215 835.6431 111.26607 837.3 111.26607C838.95685 111.26607 840.3 112.609215 840.3 114.26607Z" fill-rule="nonzero"/><path fill="#424242" d="M404.51562 502.6125Q404.51562 502.175 404.17188 501.9406Q403.84375 501.6906 403.01562 501.51874Q402.20312 501.34686 401.71875 501.09686Q401.23438 500.84686 401.0 500.51874Q400.78125 500.175 400.78125 499.70624Q400.78125 498.925 401.4375 498.39374Q402.09375 497.84686 403.125 497.84686Q404.20312 497.84686 404.85938 498.40936Q405.53125 498.95624 405.53125 499.8156L404.45312 499.8156Q404.45312 499.3781 404.0625 499.0656Q403.6875 498.7375 403.125 498.7375Q402.53125 498.7375 402.1875 499.0031Q401.85938 499.2531 401.85938 499.65936Q401.85938 500.05 402.17188 500.2531Q402.48438 500.45624 403.29688 500.64374Q404.10938 500.8156 404.60938 501.0656Q405.10938 501.3156 405.34375 501.675Q405.59375 502.03436 405.59375 502.53436Q405.59375 503.39374 404.90625 503.90936Q404.23438 504.425 403.15625 504.425Q402.39062 504.425 401.79688 504.15936Q401.21875 503.8781 400.89062 503.39374Q400.5625 502.90936 400.5625 502.34686L401.64062 502.34686Q401.67188 502.89374 402.07812 503.22186Q402.48438 503.53436 403.15625 503.53436Q403.76562 503.53436 404.14062 503.28436Q404.51562 503.03436 404.51562 502.6125ZM408.0 504.3L406.92188 504.3L406.92188 497.95624L408.0 497.95624L408.0 504.3ZM406.82812 496.28436Q406.82812 496.01874 406.98438 495.83124Q407.15625 495.64374 407.46875 495.64374Q407.78125 495.64374 407.9375 495.83124Q408.10938 496.01874 408.10938 496.28436Q408.10938 496.53436 407.9375 496.72186Q407.78125 496.89374 407.46875 496.89374Q407.15625 496.89374 406.98438 496.72186Q406.82812 496.53436 406.82812 496.28436ZM410.84375 503.40936L414.54688 503.40936L414.54688 504.3L409.51562 504.3L409.51562 503.5031L413.01562 498.8625L409.5625 498.8625L409.5625 497.95624L414.375 497.95624L414.375 498.72186L410.84375 503.40936ZM418.45312 504.425Q417.15625 504.425 416.34375 503.58124Q415.54688 502.72186 415.54688 501.3L415.54688 501.1125Q415.54688 500.15936 415.90625 499.425Q416.26562 498.675 416.90625 498.26874Q417.5625 497.84686 418.3125 497.84686Q419.54688 497.84686 420.23438 498.65936Q420.92188 499.47186 420.92188 500.9875L420.92188 501.4406L416.625 501.4406Q416.65625 502.3781 417.17188 502.95624Q417.70312 503.53436 418.51562 503.53436Q419.07812 503.53436 419.46875 503.3Q419.875 503.0656 420.1875 502.675L420.84375 503.1906Q420.04688 504.425 418.45312 504.425ZM418.3125 498.7375Q417.65625 498.7375 417.20312 499.22186Q416.76562 499.6906 416.67188 500.55L419.84375 500.55L419.84375 500.47186Q419.79688 499.64374 419.39062 499.1906Q419.0 498.7375 418.3125 498.7375ZM424.53125 501.0656Q424.53125 500.14374 424.89062 499.39374Q425.26562 498.64374 425.92188 498.2531Q426.57812 497.84686 427.40625 497.84686Q428.70312 497.84686 429.5 498.7375Q430.3125 499.6281 430.3125 501.1281L430.3125 501.20624Q430.3125 502.1281 429.95312 502.8625Q429.59375 503.59686 428.9375 504.01874Q428.28125 504.425 427.42188 504.425Q426.14062 504.425 425.32812 503.53436Q424.53125 502.6281 424.53125 501.14374L424.53125 501.0656ZM425.625 501.20624Q425.625 502.2531 426.10938 502.89374Q426.60938 503.53436 427.42188 503.53436Q428.25 503.53436 428.73438 502.89374Q429.21875 502.2375 429.21875 501.0656Q429.21875 500.03436 428.71875 499.39374Q428.23438 498.7375 427.40625 498.7375Q426.60938 498.7375 426.10938 499.3781Q425.625 500.0031 425.625 501.20624ZM432.35938 504.3L432.35938 498.8L431.35938 498.8L431.35938 497.95624L432.35938 497.95624L432.35938 497.3156Q432.35938 496.28436 432.89062 495.7375Q433.4375 495.175 434.4375 495.175Q434.8125 495.175 435.1875 495.26874L435.125 496.15936Q434.84375 496.09686 434.54688 496.09686Q434.01562 496.09686 433.71875 496.40936Q433.4375 496.72186 433.4375 497.28436L433.4375 497.95624L434.79688 497.95624L434.79688 498.8L433.4375 498.8L433.4375 504.3L432.35938 504.3ZM442.73438 504.3Q442.64062 504.1125 442.57812 503.6281Q441.82812 504.425 440.78125 504.425Q439.84375 504.425 439.23438 503.89374Q438.64062 503.3625 438.64062 502.53436Q438.64062 501.55 439.39062 501.0031Q440.14062 500.45624 441.51562 500.45624L442.5625 500.45624L442.5625 499.95624Q442.5625 499.39374 442.21875 499.0656Q441.89062 498.72186 441.21875 498.72186Q440.64062 498.72186 440.25 499.01874Q439.85938 499.3 439.85938 499.72186L438.76562 499.72186Q438.76562 499.2375 439.09375 498.8Q439.4375 498.3625 440.01562 498.1125Q440.59375 497.84686 441.28125 497.84686Q442.39062 497.84686 443.0 498.39374Q443.625 498.9406 443.65625 499.89374L443.65625 502.8156Q443.65625 503.6906 443.875 504.20624L443.875 504.3L442.73438 504.3ZM440.9375 503.47186Q441.45312 503.47186 441.90625 503.20624Q442.35938 502.9406 442.5625 502.51874L442.5625 501.22186L441.71875 501.22186Q439.71875 501.22186 439.71875 502.39374Q439.71875 502.89374 440.0625 503.1906Q440.40625 503.47186 440.9375 503.47186ZM448.89062 498.925Q448.64062 498.89374 448.35938 498.89374Q447.28125 498.89374 446.90625 499.8L446.90625 504.3L445.82812 504.3L445.82812 497.95624L446.875 497.95624L446.89062 498.6906Q447.42188 497.84686 448.40625 497.84686Q448.71875 497.84686 448.89062 497.925L448.89062 498.925ZM452.89062 498.925Q452.64062 498.89374 452.35938 498.89374Q451.28125 498.89374 450.90625 499.8L450.90625 504.3L449.82812 504.3L449.82812 497.95624L450.875 497.95624L450.89062 498.6906Q451.42188 497.84686 452.40625 497.84686Q452.71875 497.84686 452.89062 497.925L452.89062 498.925ZM457.73438 504.3Q457.64062 504.1125 457.57812 503.6281Q456.82812 504.425 455.78125 504.425Q454.84375 504.425 454.23438 503.89374Q453.64062 503.3625 453.64062 502.53436Q453.64062 501.55 454.39062 501.0031Q455.14062 500.45624 456.51562 500.45624L457.5625 500.45624L457.5625 499.95624Q457.5625 499.39374 457.21875 499.0656Q456.89062 498.72186 456.21875 498.72186Q455.64062 498.72186 455.25 499.01874Q454.85938 499.3 454.85938 499.72186L453.76562 499.72186Q453.76562 499.2375 454.09375 498.8Q454.4375 498.3625 455.01562 498.1125Q455.59375 497.84686 456.28125 497.84686Q457.39062 497.84686 458.0 498.39374Q458.625 498.9406 458.65625 499.89374L458.65625 502.8156Q458.65625 503.6906 458.875 504.20624L458.875 504.3L457.73438 504.3ZM455.9375 503.47186Q456.45312 503.47186 456.90625 503.20624Q457.35938 502.9406 457.5625 502.51874L457.5625 501.22186L456.71875 501.22186Q454.71875 501.22186 454.71875 502.39374Q454.71875 502.89374 455.0625 503.1906Q455.40625 503.47186 455.9375 503.47186ZM462.89062 502.70624L464.375 497.95624L465.53125 497.95624L462.98438 505.28436Q462.39062 506.8625 461.10938 506.8625L460.89062 506.84686L460.5 506.76874L460.5 505.89374L460.78125 505.90936Q461.34375 505.90936 461.64062 505.6906Q461.95312 505.47186 462.15625 504.8781L462.39062 504.22186L460.125 497.95624L461.3125 497.95624L462.89062 502.70624ZM475.1875 501.20624Q475.1875 502.65936 474.51562 503.55Q473.85938 504.425 472.73438 504.425Q471.53125 504.425 470.875 503.5656L470.8125 504.3L469.82812 504.3L469.82812 495.3L470.90625 495.3L470.90625 498.65936Q471.5625 497.84686 472.71875 497.84686Q473.875 497.84686 474.53125 498.72186Q475.1875 499.58124 475.1875 501.1125L475.1875 501.20624ZM474.10938 501.08124Q474.10938 499.97186 473.67188 499.3781Q473.25 498.76874 472.45312 498.76874Q471.375 498.76874 470.90625 499.7531L470.90625 502.5031Q471.40625 503.5031 472.45312 503.5031Q473.23438 503.5031 473.67188 502.89374Q474.10938 502.28436 474.10938 501.08124ZM479.45312 504.425Q478.15625 504.425 477.34375 503.58124Q476.54688 502.72186 476.54688 501.3L476.54688 501.1125Q476.54688 500.15936 476.90625 499.425Q477.26562 498.675 477.90625 498.26874Q478.5625 497.84686 479.3125 497.84686Q480.54688 497.84686 481.23438 498.65936Q481.92188 499.47186 481.92188 500.9875L481.92188 501.4406L477.625 501.4406Q477.65625 502.3781 478.17188 502.95624Q478.70312 503.53436 479.51562 503.53436Q480.07812 503.53436 480.46875 503.3Q480.875 503.0656 481.1875 502.675L481.84375 503.1906Q481.04688 504.425 479.45312 504.425ZM479.3125 498.7375Q478.65625 498.7375 478.20312 499.22186Q477.76562 499.6906 477.67188 500.55L480.84375 500.55L480.84375 500.47186Q480.79688 499.64374 480.39062 499.1906Q480.0 498.7375 479.3125 498.7375ZM484.0 504.3L482.92188 504.3L482.92188 497.95624L484.0 497.95624L484.0 504.3ZM482.82812 496.28436Q482.82812 496.01874 482.98438 495.83124Q483.15625 495.64374 483.46875 495.64374Q483.78125 495.64374 483.9375 495.83124Q484.10938 496.01874 484.10938 496.28436Q484.10938 496.53436 483.9375 496.72186Q483.78125 496.89374 483.46875 496.89374Q483.15625 496.89374 482.98438 496.72186Q482.82812 496.53436 482.82812 496.28436ZM486.84375 497.95624L486.875 498.7531Q487.60938 497.84686 488.78125 497.84686Q490.79688 497.84686 490.8125 500.1125L490.8125 504.3L489.71875 504.3L489.71875 500.09686Q489.71875 499.425 489.40625 499.09686Q489.10938 498.76874 488.45312 498.76874Q487.92188 498.76874 487.51562 499.05Q487.125 499.33124 486.90625 499.78436L486.90625 504.3L485.82812 504.3L485.82812 497.95624L486.84375 497.95624ZM492.5625 501.08124Q492.5625 499.59686 493.25 498.72186Q493.9375 497.84686 495.0625 497.84686Q496.21875 497.84686 496.875 498.65936L496.92188 497.95624L497.92188 497.95624L497.92188 504.14374Q497.92188 505.3781 497.1875 506.08124Q496.45312 506.8 495.23438 506.8Q494.54688 506.8 493.89062 506.5031Q493.23438 506.20624 492.89062 505.70624L493.45312 505.05Q494.14062 505.90936 495.15625 505.90936Q495.9375 505.90936 496.375 505.45624Q496.82812 505.01874 496.82812 504.20624L496.82812 503.65936Q496.17188 504.425 495.04688 504.425Q493.9375 504.425 493.25 503.53436Q492.5625 502.6281 492.5625 501.08124ZM493.65625 501.20624Q493.65625 502.26874 494.09375 502.89374Q494.53125 503.5031 495.32812 503.5031Q496.34375 503.5031 496.82812 502.5656L496.82812 499.675Q496.32812 498.76874 495.32812 498.76874Q494.54688 498.76874 494.09375 499.3781Q493.65625 499.9875 493.65625 501.20624ZM505.35938 503.53436Q505.9375 503.53436 506.375 503.1906Q506.8125 502.83124 506.85938 502.3L507.89062 502.3Q507.85938 502.84686 507.5 503.34686Q507.15625 503.83124 506.57812 504.1281Q506.01562 504.425 505.35938 504.425Q504.0625 504.425 503.29688 503.5656Q502.54688 502.6906 502.54688 501.1906L502.54688 501.0031Q502.54688 500.08124 502.875 499.3625Q503.21875 498.64374 503.84375 498.2531Q504.48438 497.84686 505.35938 497.84686Q506.42188 497.84686 507.125 498.4875Q507.84375 499.1125 507.89062 500.14374L506.85938 500.14374Q506.8125 499.51874 506.39062 499.1281Q505.96875 498.7375 505.35938 498.7375Q504.53125 498.7375 504.07812 499.33124Q503.625 499.925 503.625 501.05L503.625 501.2531Q503.625 502.34686 504.07812 502.9406Q504.53125 503.53436 505.35938 503.53436ZM508.53125 501.0656Q508.53125 500.14374 508.89062 499.39374Q509.26562 498.64374 509.92188 498.2531Q510.57812 497.84686 511.40625 497.84686Q512.7031 497.84686 513.5 498.7375Q514.3125 499.6281 514.3125 501.1281L514.3125 501.20624Q514.3125 502.1281 513.9531 502.8625Q513.59375 503.59686 512.9375 504.01874Q512.28125 504.425 511.42188 504.425Q510.14062 504.425 509.32812 503.53436Q508.53125 502.6281 508.53125 501.14374L508.53125 501.0656ZM509.625 501.20624Q509.625 502.2531 510.10938 502.89374Q510.60938 503.53436 511.42188 503.53436Q512.25 503.53436 512.7344 502.89374Q513.21875 502.2375 513.21875 501.0656Q513.21875 500.03436 512.71875 499.39374Q512.2344 498.7375 511.40625 498.7375Q510.60938 498.7375 510.10938 499.3781Q509.625 500.0031 509.625 501.20624ZM521.1719 501.20624Q521.1719 502.64374 520.5156 503.53436Q519.8594 504.425 518.71875 504.425Q517.5625 504.425 516.90625 503.6906L516.90625 506.7375L515.8281 506.7375L515.8281 497.95624L516.8125 497.95624L516.8594 498.65936Q517.53125 497.84686 518.7031 497.84686Q519.84375 497.84686 520.5 498.70624Q521.1719 499.5656 521.1719 501.09686L521.1719 501.20624ZM520.09375 501.08124Q520.09375 500.0031 519.625 499.39374Q519.1719 498.76874 518.375 498.76874Q517.3906 498.76874 516.90625 499.6281L516.90625 502.65936Q517.3906 503.53436 518.3906 503.53436Q519.1719 503.53436 519.625 502.925Q520.09375 502.3 520.09375 501.08124ZM524.0 504.3L522.9219 504.3L522.9219 497.95624L524.0 497.95624L524.0 504.3ZM522.8281 496.28436Q522.8281 496.01874 522.9844 495.83124Q523.15625 495.64374 523.46875 495.64374Q523.78125 495.64374 523.9375 495.83124Q524.1094 496.01874 524.1094 496.28436Q524.1094 496.53436 523.9375 496.72186Q523.78125 496.89374 523.46875 496.89374Q523.15625 496.89374 522.9844 496.72186Q522.8281 496.53436 522.8281 496.28436ZM528.4531 504.425Q527.15625 504.425 526.34375 503.58124Q525.5469 502.72186 525.5469 501.3L525.5469 501.1125Q525.5469 500.15936 525.90625 499.425Q526.2656 498.675 526.90625 498.26874Q527.5625 497.84686 528.3125 497.84686Q529.5469 497.84686 530.2344 498.65936Q530.9219 499.47186 530.9219 500.9875L530.9219 501.4406L526.625 501.4406Q526.65625 502.3781 527.1719 502.95624Q527.7031 503.53436 528.5156 503.53436Q529.0781 503.53436 529.46875 503.3Q529.875 503.0656 530.1875 502.675L530.84375 503.1906Q530.0469 504.425 528.4531 504.425ZM528.3125 498.7375Q527.65625 498.7375 527.2031 499.22186Q526.7656 499.6906 526.6719 500.55L529.84375 500.55L529.84375 500.47186Q529.7969 499.64374 529.3906 499.1906Q529.0 498.7375 528.3125 498.7375ZM531.5625 501.08124Q531.5625 499.6125 532.25 498.7375Q532.9375 497.84686 534.0625 497.84686Q535.1719 497.84686 535.8281 498.59686L535.8281 495.3L536.90625 495.3L536.90625 504.3L535.90625 504.3L535.8594 503.6125Q535.2031 504.425 534.0469 504.425Q532.9531 504.425 532.25 503.51874Q531.5625 502.6125 531.5625 501.15936L531.5625 501.08124ZM532.6406 501.20624Q532.6406 502.28436 533.0781 502.89374Q533.53125 503.5031 534.3125 503.5031Q535.34375 503.5031 535.8281 502.5656L535.8281 499.65936Q535.34375 498.76874 534.3281 498.76874Q533.53125 498.76874 533.0781 499.3781Q532.6406 499.9875 532.6406 501.20624Z" fill-rule="nonzero"/><path fill="#424242" d="M32.35624 294.45624L33.059364 294.425Q32.246864 293.7375 32.246864 292.55Q32.246864 291.22186 33.26249 290.7375Q32.809364 290.425 32.528114 289.925Q32.246864 289.40936 32.246864 288.72186Q32.246864 286.6281 34.44999 286.59686L38.69999 286.59686L38.69999 287.675L34.51249 287.675Q33.840614 287.675 33.51249 287.9875Q33.16874 288.3 33.16874 289.03436Q33.16874 289.64374 33.528114 290.05Q33.88749 290.4406 34.496864 290.5031L38.69999 290.5031L38.69999 291.58124L34.54374 291.58124Q33.16874 291.58124 33.16874 292.9406Q33.16874 294.0031 34.07499 294.39374L38.69999 294.39374L38.69999 295.4875L32.35624 295.4875L32.35624 294.45624ZM37.01249 280.78436Q36.57499 280.78436 36.340614 281.1281Q36.090614 281.45624 35.91874 282.28436Q35.746864 283.09686 35.496864 283.58124Q35.246864 284.0656 34.91874 284.3Q34.57499 284.51874 34.10624 284.51874Q33.32499 284.51874 32.79374 283.8625Q32.246864 283.20624 32.246864 282.175Q32.246864 281.09686 32.809364 280.4406Q33.35624 279.76874 34.215614 279.76874L34.215614 280.84686Q33.778114 280.84686 33.465614 281.2375Q33.13749 281.6125 33.13749 282.175Q33.13749 282.76874 33.403114 283.1125Q33.653114 283.4406 34.059364 283.4406Q34.44999 283.4406 34.653114 283.1281Q34.85624 282.8156 35.04374 282.0031Q35.215614 281.1906 35.465614 280.6906Q35.715614 280.1906 36.07499 279.95624Q36.434364 279.70624 36.934364 279.70624Q37.79374 279.70624 38.309364 280.39374Q38.82499 281.0656 38.82499 282.14374Q38.82499 282.90936 38.559364 283.5031Q38.278114 284.08124 37.79374 284.40936Q37.309364 284.7375 36.746864 284.7375L36.746864 283.65936Q37.29374 283.6281 37.621864 283.22186Q37.934364 282.8156 37.934364 282.14374Q37.934364 281.53436 37.684364 281.15936Q37.434364 280.78436 37.01249 280.78436Z" fill-rule="nonzero"/><path fill="#757575" d="M93.7625 454.15936Q93.7625 456.0656 93.10625 457.0031Q92.46562 457.925 91.075 457.925Q89.71562 457.925 89.05937 457.01874Q88.40312 456.1125 88.37187 454.3L88.37187 452.8625Q88.37187 450.97186 89.0125 450.0656Q89.66875 449.14374 91.05937 449.14374Q92.43437 449.14374 93.09062 450.03436Q93.74687 450.90936 93.7625 452.7531L93.7625 454.15936ZM92.66875 452.675Q92.66875 451.3 92.27812 450.675Q91.90312 450.03436 91.05937 450.03436Q90.23125 450.03436 89.84062 450.675Q89.46562 451.3 89.46562 452.59686L89.46562 454.33124Q89.46562 455.70624 89.85625 456.3781Q90.2625 457.03436 91.075 457.03436Q91.87187 457.03436 92.2625 456.40936Q92.65312 455.78436 92.66875 454.45624L92.66875 452.675Z" fill-rule="nonzero"/><path fill="#757575" d="M63.965626 342.96667L62.8875 342.96667L62.8875 335.74792L60.7 336.5448L60.7 335.56042L63.809376 334.38855L63.965626 334.38855L63.965626 342.96667ZM72.7625 339.32605Q72.7625 341.2323 72.10625 342.1698Q71.46562 343.09167 70.075 343.09167Q68.71562 343.09167 68.05937 342.18542Q67.40312 341.27917 67.37187 339.46667L67.37187 338.02917Q67.37187 336.13855 68.0125 335.2323Q68.66875 334.31042 70.05937 334.31042Q71.43437 334.31042 72.09062 335.20105Q72.74687 336.07605 72.7625 337.9198L72.7625 339.32605ZM71.66875 337.84167Q71.66875 336.46667 71.27812 335.84167Q70.90312 335.20105 70.05937 335.20105Q69.23125 335.20105 68.84062 335.84167Q68.46562 336.46667 68.46562 337.76355L68.46562 339.49792Q68.46562 340.87292 68.85625 341.5448Q69.2625 342.20105 70.075 342.20105Q70.87187 342.20105 71.2625 341.57605Q71.65312 340.95105 71.66875 339.62292L71.66875 337.84167ZM79.7625 339.32605Q79.7625 341.2323 79.10625 342.1698Q78.46562 343.09167 77.075 343.09167Q75.71562 343.09167 75.05937 342.18542Q74.40312 341.27917 74.37187 339.46667L74.37187 338.02917Q74.37187 336.13855 75.0125 335.2323Q75.66875 334.31042 77.05937 334.31042Q78.43437 334.31042 79.09062 335.20105Q79.74687 336.07605 79.7625 337.9198L79.7625 339.32605ZM78.66875 337.84167Q78.66875 336.46667 78.27812 335.84167Q77.90312 335.20105 77.05937 335.20105Q76.23125 335.20105 75.84062 335.84167Q75.46562 336.46667 75.46562 337.76355L75.46562 339.49792Q75.46562 340.87292 75.85625 341.5448Q76.2625 342.20105 77.075 342.20105Q77.87187 342.20105 78.2625 341.57605Q78.65312 340.95105 78.66875 339.62292L78.66875 337.84167ZM86.7625 339.32605Q86.7625 341.2323 86.10625 342.1698Q85.46562 343.09167 84.075 343.09167Q82.71562 343.09167 82.05937 342.18542Q81.40312 341.27917 81.37187 339.46667L81.37187 338.02917Q81.37187 336.13855 82.0125 335.2323Q82.66875 334.31042 84.05937 334.31042Q85.43437 334.31042 86.09062 335.20105Q86.74687 336.07605 86.7625 337.9198L86.7625 339.32605ZM85.66875 337.84167Q85.66875 336.46667 85.27812 335.84167Q84.90312 335.20105 84.05937 335.20105Q83.23125 335.20105 82.84062 335.84167Q82.46562 336.46667 82.46562 337.76355L82.46562 339.49792Q82.46562 340.87292 82.85625 341.5448Q83.2625 342.20105 84.075 342.20105Q84.87187 342.20105 85.2625 341.57605Q85.65312 340.95105 85.66875 339.62292L85.66875 337.84167ZM93.7625 339.32605Q93.7625 341.2323 93.10625 342.1698Q92.46562 343.09167 91.075 343.09167Q89.71562 343.09167 89.05937 342.18542Q88.40312 341.27917 88.37187 339.46667L88.37187 338.02917Q88.37187 336.13855 89.0125 335.2323Q89.66875 334.31042 91.05937 334.31042Q92.43437 334.31042 93.09062 335.20105Q93.74687 336.07605 93.7625 337.9198L93.7625 339.32605ZM92.66875 337.84167Q92.66875 336.46667 92.27812 335.84167Q91.90312 335.20105 91.05937 335.20105Q90.23125 335.20105 89.84062 335.84167Q89.46562 336.46667 89.46562 337.76355L89.46562 339.49792Q89.46562 340.87292 89.85625 341.5448Q90.2625 342.20105 91.075 342.20105Q91.87187 342.20105 92.2625 341.57605Q92.65312 340.95105 92.66875 339.62292L92.66875 337.84167Z" fill-rule="nonzero"/><path fill="#757575" d="M65.99687 228.13333L60.403126 228.13333L60.403126 227.35208L63.35625 224.07083Q64.0125 223.32083 64.2625 222.8677Q64.5125 222.39896 64.5125 221.89896Q64.5125 221.22708 64.10625 220.8052Q63.715626 220.3677 63.028126 220.3677Q62.23125 220.3677 61.778126 220.83646Q61.325 221.28958 61.325 222.1177L60.246876 222.1177Q60.246876 220.9302 60.996876 220.21146Q61.7625 219.47708 63.028126 219.47708Q64.23125 219.47708 64.91875 220.10208Q65.60625 220.72708 65.60625 221.77396Q65.60625 223.02396 63.996876 224.77396L61.715626 227.2427L65.99687 227.2427L65.99687 228.13333ZM72.7625 224.4927Q72.7625 226.39896 72.10625 227.33646Q71.46562 228.25833 70.075 228.25833Q68.71562 228.25833 68.05937 227.35208Q67.40312 226.44583 67.37187 224.63333L67.37187 223.19583Q67.37187 221.3052 68.0125 220.39896Q68.66875 219.47708 70.05937 219.47708Q71.43437 219.47708 72.09062 220.3677Q72.74687 221.2427 72.7625 223.08646L72.7625 224.4927ZM71.66875 223.00833Q71.66875 221.63333 71.27812 221.00833Q70.90312 220.3677 70.05937 220.3677Q69.23125 220.3677 68.84062 221.00833Q68.46562 221.63333 68.46562 222.9302L68.46562 224.66458Q68.46562 226.03958 68.85625 226.71146Q69.2625 227.3677 70.075 227.3677Q70.87187 227.3677 71.2625 226.7427Q71.65312 226.1177 71.66875 224.78958L71.66875 223.00833ZM79.7625 224.4927Q79.7625 226.39896 79.10625 227.33646Q78.46562 228.25833 77.075 228.25833Q75.71562 228.25833 75.05937 227.35208Q74.40312 226.44583 74.37187 224.63333L74.37187 223.19583Q74.37187 221.3052 75.0125 220.39896Q75.66875 219.47708 77.05937 219.47708Q78.43437 219.47708 79.09062 220.3677Q79.74687 221.2427 79.7625 223.08646L79.7625 224.4927ZM78.66875 223.00833Q78.66875 221.63333 78.27812 221.00833Q77.90312 220.3677 77.05937 220.3677Q76.23125 220.3677 75.84062 221.00833Q75.46562 221.63333 75.46562 222.9302L75.46562 224.66458Q75.46562 226.03958 75.85625 226.71146Q76.2625 227.3677 77.075 227.3677Q77.87187 227.3677 78.2625 226.7427Q78.65312 226.1177 78.66875 224.78958L78.66875 223.00833ZM86.7625 224.4927Q86.7625 226.39896 86.10625 227.33646Q85.46562 228.25833 84.075 228.25833Q82.71562 228.25833 82.05937 227.35208Q81.40312 226.44583 81.37187 224.63333L81.37187 223.19583Q81.37187 221.3052 82.0125 220.39896Q82.66875 219.47708 84.05937 219.47708Q85.43437 219.47708 86.09062 220.3677Q86.74687 221.2427 86.7625 223.08646L86.7625 224.4927ZM85.66875 223.00833Q85.66875 221.63333 85.27812 221.00833Q84.90312 220.3677 84.05937 220.3677Q83.23125 220.3677 82.84062 221.00833Q82.46562 221.63333 82.46562 222.9302L82.46562 224.66458Q82.46562 226.03958 82.85625 226.71146Q83.2625 227.3677 84.075 227.3677Q84.87187 227.3677 85.2625 226.7427Q85.65312 226.1177 85.66875 224.78958L85.66875 223.00833ZM93.7625 224.4927Q93.7625 226.39896 93.10625 227.33646Q92.46562 228.25833 91.075 228.25833Q89.71562 228.25833 89.05937 227.35208Q88.40312 226.44583 88.37187 224.63333L88.37187 223.19583Q88.37187 221.3052 89.0125 220.39896Q89.66875 219.47708 91.05937 219.47708Q92.43437 219.47708 93.09062 220.3677Q93.74687 221.2427 93.7625 223.08646L93.7625 224.4927ZM92.66875 223.00833Q92.66875 221.63333 92.27812 221.00833Q91.90312 220.3677 91.05937 220.3677Q90.23125 220.3677 89.84062 221.00833Q89.46562 221.63333 89.46562 222.9302L89.46562 224.66458Q89.46562 226.03958 89.85625 226.71146Q90.2625 227.3677 91.075 227.3677Q91.87187 227.3677 92.2625 226.7427Q92.65312 226.1177 92.66875 224.78958L92.66875 223.00833Z" fill-rule="nonzero"/><path fill="#757575" d="M61.98125 108.50313L62.79375 108.50313Q63.575 108.4875 64.0125 108.09688Q64.45 107.70625 64.45 107.03438Q64.45 105.53438 62.95 105.53438Q62.246876 105.53438 61.825 105.94063Q61.41875 106.34688 61.41875 107.00313L60.325 107.00313Q60.325 105.9875 61.059376 105.31563Q61.809376 104.64375 62.95 104.64375Q64.15312 104.64375 64.84062 105.28438Q65.52812 105.925 65.52812 107.06563Q65.52812 107.62813 65.16875 108.14375Q64.80937 108.65938 64.18437 108.925Q64.8875 109.14375 65.2625 109.65938Q65.65312 110.175 65.65312 110.925Q65.65312 112.06563 64.90312 112.75313Q64.15312 113.425 62.95 113.425Q61.7625 113.425 60.996876 112.76875Q60.246876 112.1125 60.246876 111.05L61.340626 111.05Q61.340626 111.72188 61.778126 112.12813Q62.215626 112.53438 62.965626 112.53438Q63.746876 112.53438 64.15312 112.12813Q64.575 111.70625 64.575 110.94063Q64.575 110.20625 64.12187 109.81563Q63.66875 109.40938 62.79375 109.39375L61.98125 109.39375L61.98125 108.50313ZM72.7625 109.65938Q72.7625 111.56563 72.10625 112.50313Q71.46562 113.425 70.075 113.425Q68.71562 113.425 68.05937 112.51875Q67.40312 111.6125 67.37187 109.8L67.37187 108.3625Q67.37187 106.47188 68.0125 105.56563Q68.66875 104.64375 70.05937 104.64375Q71.43437 104.64375 72.09062 105.53438Q72.74687 106.40938 72.7625 108.25313L72.7625 109.65938ZM71.66875 108.175Q71.66875 106.8 71.27812 106.175Q70.90312 105.53438 70.05937 105.53438Q69.23125 105.53438 68.84062 106.175Q68.46562 106.8 68.46562 108.09688L68.46562 109.83125Q68.46562 111.20625 68.85625 111.87813Q69.2625 112.53438 70.075 112.53438Q70.87187 112.53438 71.2625 111.90938Q71.65312 111.28438 71.66875 109.95625L71.66875 108.175ZM79.7625 109.65938Q79.7625 111.56563 79.10625 112.50313Q78.46562 113.425 77.075 113.425Q75.71562 113.425 75.05937 112.51875Q74.40312 111.6125 74.37187 109.8L74.37187 108.3625Q74.37187 106.47188 75.0125 105.56563Q75.66875 104.64375 77.05937 104.64375Q78.43437 104.64375 79.09062 105.53438Q79.74687 106.40938 79.7625 108.25313L79.7625 109.65938ZM78.66875 108.175Q78.66875 106.8 78.27812 106.175Q77.90312 105.53438 77.05937 105.53438Q76.23125 105.53438 75.84062 106.175Q75.46562 106.8 75.46562 108.09688L75.46562 109.83125Q75.46562 111.20625 75.85625 111.87813Q76.2625 112.53438 77.075 112.53438Q77.87187 112.53438 78.2625 111.90938Q78.65312 111.28438 78.66875 109.95625L78.66875 108.175ZM86.7625 109.65938Q86.7625 111.56563 86.10625 112.50313Q85.46562 113.425 84.075 113.425Q82.71562 113.425 82.05937 112.51875Q81.40312 111.6125 81.37187 109.8L81.37187 108.3625Q81.37187 106.47188 82.0125 105.56563Q82.66875 104.64375 84.05937 104.64375Q85.43437 104.64375 86.09062 105.53438Q86.74687 106.40938 86.7625 108.25313L86.7625 109.65938ZM85.66875 108.175Q85.66875 106.8 85.27812 106.175Q84.90312 105.53438 84.05937 105.53438Q83.23125 105.53438 82.84062 106.175Q82.46562 106.8 82.46562 108.09688L82.46562 109.83125Q82.46562 111.20625 82.85625 111.87813Q83.2625 112.53438 84.075 112.53438Q84.87187 112.53438 85.2625 111.90938Q85.65312 111.28438 85.66875 109.95625L85.66875 108.175ZM93.7625 109.65938Q93.7625 111.56563 93.10625 112.50313Q92.46562 113.425 91.075 113.425Q89.71562 113.425 89.05937 112.51875Q88.40312 111.6125 88.37187 109.8L88.37187 108.3625Q88.37187 106.47188 89.0125 105.56563Q89.66875 104.64375 91.05937 104.64375Q92.43437 104.64375 93.09062 105.53438Q93.74687 106.40938 93.7625 108.25313L93.7625 109.65938ZM92.66875 108.175Q92.66875 106.8 92.27812 106.175Q91.90312 105.53438 91.05937 105.53438Q90.23125 105.53438 89.84062 106.175Q89.46562 106.8 89.46562 108.09688L89.46562 109.83125Q89.46562 111.20625 89.85625 111.87813Q90.2625 112.53438 91.075 112.53438Q91.87187 112.53438 92.2625 111.90938Q92.65312 111.28438 92.66875 109.95625L92.66875 108.175Z" fill-rule="nonzero"/><path fill="#757575" d="M129.71411 471.3L128.63599 471.3L128.63599 464.08124L126.44849 464.8781L126.44849 463.89374L129.55786 462.72186L129.71411 462.72186L129.71411 471.3ZM138.51099 467.65936Q138.51099 469.5656 137.85474 470.5031Q137.21411 471.425 135.82349 471.425Q134.46411 471.425 133.80786 470.51874Q133.15161 469.6125 133.12036 467.8L133.12036 466.3625Q133.12036 464.47186 133.76099 463.5656Q134.41724 462.64374 135.80786 462.64374Q137.18286 462.64374 137.83911 463.53436Q138.49536 464.40936 138.51099 466.2531L138.51099 467.65936ZM137.41724 466.175Q137.41724 464.8 137.02661 464.175Q136.65161 463.53436 135.80786 463.53436Q134.97974 463.53436 134.58911 464.175Q134.21411 464.8 134.21411 466.09686L134.21411 467.83124Q134.21411 469.20624 134.60474 469.8781Q135.01099 470.53436 135.82349 470.53436Q136.62036 470.53436 137.01099 469.90936Q137.40161 469.28436 137.41724 467.95624L137.41724 466.175ZM145.51099 467.65936Q145.51099 469.5656 144.85474 470.5031Q144.21411 471.425 142.82349 471.425Q141.46411 471.425 140.80786 470.51874Q140.15161 469.6125 140.12036 467.8L140.12036 466.3625Q140.12036 464.47186 140.76099 463.5656Q141.41724 462.64374 142.80786 462.64374Q144.18286 462.64374 144.83911 463.53436Q145.49536 464.40936 145.51099 466.2531L145.51099 467.65936ZM144.41724 466.175Q144.41724 464.8 144.02661 464.175Q143.65161 463.53436 142.80786 463.53436Q141.97974 463.53436 141.58911 464.175Q141.21411 464.8 141.21411 466.09686L141.21411 467.83124Q141.21411 469.20624 141.60474 469.8781Q142.01099 470.53436 142.82349 470.53436Q143.62036 470.53436 144.01099 469.90936Q144.40161 469.28436 144.41724 467.95624L144.41724 466.175Z" fill-rule="nonzero"/><path fill="#757575" d="M243.30704 471.3L242.22891 471.3L242.22891 464.08124L240.04141 464.8781L240.04141 463.89374L243.15079 462.72186L243.30704 462.72186L243.30704 471.3ZM252.10391 467.65936Q252.10391 469.5656 251.44766 470.5031Q250.80704 471.425 249.41641 471.425Q248.05704 471.425 247.40079 470.51874Q246.74454 469.6125 246.71329 467.8L246.71329 466.3625Q246.71329 464.47186 247.35391 463.5656Q248.01016 462.64374 249.40079 462.64374Q250.77579 462.64374 251.43204 463.53436Q252.08829 464.40936 252.10391 466.2531L252.10391 467.65936ZM251.01016 466.175Q251.01016 464.8 250.61954 464.175Q250.24454 463.53436 249.40079 463.53436Q248.57266 463.53436 248.18204 464.175Q247.80704 464.8 247.80704 466.09686L247.80704 467.83124Q247.80704 469.20624 248.19766 469.8781Q248.60391 470.53436 249.41641 470.53436Q250.21329 470.53436 250.60391 469.90936Q250.99454 469.28436 251.01016 467.95624L251.01016 466.175ZM259.1039 467.65936Q259.1039 469.5656 258.44766 470.5031Q257.80704 471.425 256.4164 471.425Q255.05704 471.425 254.40079 470.51874Q253.74454 469.6125 253.71329 467.8L253.71329 466.3625Q253.71329 464.47186 254.35391 463.5656Q255.01016 462.64374 256.4008 462.64374Q257.7758 462.64374 258.43204 463.53436Q259.0883 464.40936 259.1039 466.2531L259.1039 467.65936ZM258.01016 466.175Q258.01016 464.8 257.61954 464.175Q257.24454 463.53436 256.4008 463.53436Q255.57266 463.53436 255.18204 464.175Q254.80704 464.8 254.80704 466.09686L254.80704 467.83124Q254.80704 469.20624 255.19766 469.8781Q255.60391 470.53436 256.4164 470.53436Q257.2133 470.53436 257.6039 469.90936Q257.99454 469.28436 258.01016 467.95624L258.01016 466.175ZM266.1039 467.65936Q266.1039 469.5656 265.44766 470.5031Q264.80704 471.425 263.4164 471.425Q262.05704 471.425 261.4008 470.51874Q260.74454 469.6125 260.7133 467.8L260.7133 466.3625Q260.7133 464.47186 261.3539 463.5656Q262.01016 462.64374 263.4008 462.64374Q264.7758 462.64374 265.43204 463.53436Q266.0883 464.40936 266.1039 466.2531L266.1039 467.65936ZM265.01016 466.175Q265.01016 464.8 264.61954 464.175Q264.24454 463.53436 263.4008 463.53436Q262.57266 463.53436 262.18204 464.175Q261.80704 464.8 261.80704 466.09686L261.80704 467.83124Q261.80704 469.20624 262.19766 469.8781Q262.6039 470.53436 263.4164 470.53436Q264.2133 470.53436 264.6039 469.90936Q264.99454 469.28436 265.01016 467.95624L265.01016 466.175Z" fill-rule="nonzero"/><path fill="#757575" d="M356.89996 471.3L355.82184 471.3L355.82184 464.08124L353.63434 464.8781L353.63434 463.89374L356.7437 462.72186L356.89996 462.72186L356.89996 471.3ZM365.69684 467.65936Q365.69684 469.5656 365.0406 470.5031Q364.39996 471.425 363.00934 471.425Q361.64996 471.425 360.9937 470.51874Q360.33746 469.6125 360.3062 467.8L360.3062 466.3625Q360.3062 464.47186 360.94684 463.5656Q361.6031 462.64374 362.9937 462.64374Q364.3687 462.64374 365.02496 463.53436Q365.6812 464.40936 365.69684 466.2531L365.69684 467.65936ZM364.6031 466.175Q364.6031 464.8 364.21246 464.175Q363.83746 463.53436 362.9937 463.53436Q362.1656 463.53436 361.77496 464.175Q361.39996 464.8 361.39996 466.09686L361.39996 467.83124Q361.39996 469.20624 361.7906 469.8781Q362.19684 470.53436 363.00934 470.53436Q363.8062 470.53436 364.19684 469.90936Q364.58746 469.28436 364.6031 467.95624L364.6031 466.175ZM372.69684 467.65936Q372.69684 469.5656 372.0406 470.5031Q371.39996 471.425 370.00934 471.425Q368.64996 471.425 367.9937 470.51874Q367.33746 469.6125 367.3062 467.8L367.3062 466.3625Q367.3062 464.47186 367.94684 463.5656Q368.6031 462.64374 369.9937 462.64374Q371.3687 462.64374 372.02496 463.53436Q372.6812 464.40936 372.69684 466.2531L372.69684 467.65936ZM371.6031 466.175Q371.6031 464.8 371.21246 464.175Q370.83746 463.53436 369.9937 463.53436Q369.1656 463.53436 368.77496 464.175Q368.39996 464.8 368.39996 466.09686L368.39996 467.83124Q368.39996 469.20624 368.7906 469.8781Q369.19684 470.53436 370.00934 470.53436Q370.8062 470.53436 371.19684 469.90936Q371.58746 469.28436 371.6031 467.95624L371.6031 466.175ZM379.69684 467.65936Q379.69684 469.5656 379.0406 470.5031Q378.39996 471.425 377.00934 471.425Q375.64996 471.425 374.9937 470.51874Q374.33746 469.6125 374.3062 467.8L374.3062 466.3625Q374.3062 464.47186 374.94684 463.5656Q375.6031 462.64374 376.9937 462.64374Q378.3687 462.64374 379.02496 463.53436Q379.6812 464.40936 379.69684 466.2531L379.69684 467.65936ZM378.6031 466.175Q378.6031 464.8 378.21246 464.175Q377.83746 463.53436 376.9937 463.53436Q376.1656 463.53436 375.77496 464.175Q375.39996 464.8 375.39996 466.09686L375.39996 467.83124Q375.39996 469.20624 375.7906 469.8781Q376.19684 470.53436 377.00934 470.53436Q377.8062 470.53436 378.19684 469.90936Q378.58746 469.28436 378.6031 467.95624L378.6031 466.175ZM386.69684 467.65936Q386.69684 469.5656 386.0406 470.5031Q385.39996 471.425 384.00934 471.425Q382.64996 471.425 381.9937 470.51874Q381.33746 469.6125 381.3062 467.8L381.3062 466.3625Q381.3062 464.47186 381.94684 463.5656Q382.6031 462.64374 383.9937 462.64374Q385.3687 462.64374 386.02496 463.53436Q386.6812 464.40936 386.69684 466.2531L386.69684 467.65936ZM385.6031 466.175Q385.6031 464.8 385.21246 464.175Q384.83746 463.53436 383.9937 463.53436Q383.1656 463.53436 382.77496 464.175Q382.39996 464.8 382.39996 466.09686L382.39996 467.83124Q382.39996 469.20624 382.7906 469.8781Q383.19684 470.53436 384.00934 470.53436Q384.8062 470.53436 385.19684 469.90936Q385.58746 469.28436 385.6031 467.95624L385.6031 466.175Z" fill-rule="nonzero"/><path fill="#757575" d="M470.4929 471.3L469.41476 471.3L469.41476 464.08124L467.22726 464.8781L467.22726 463.89374L470.33664 462.72186L470.4929 462.72186L470.4929 471.3ZM479.28976 467.65936Q479.28976 469.5656 478.6335 470.5031Q477.9929 471.425 476.60226 471.425Q475.2429 471.425 474.58664 470.51874Q473.9304 469.6125 473.89914 467.8L473.89914 466.3625Q473.89914 464.47186 474.53976 463.5656Q475.196 462.64374 476.58664 462.64374Q477.96164 462.64374 478.6179 463.53436Q479.27414 464.40936 479.28976 466.2531L479.28976 467.65936ZM478.196 466.175Q478.196 464.8 477.8054 464.175Q477.4304 463.53436 476.58664 463.53436Q475.7585 463.53436 475.3679 464.175Q474.9929 464.8 474.9929 466.09686L474.9929 467.83124Q474.9929 469.20624 475.3835 469.8781Q475.78976 470.53436 476.60226 470.53436Q477.39914 470.53436 477.78976 469.90936Q478.1804 469.28436 478.196 467.95624L478.196 466.175ZM486.28976 467.65936Q486.28976 469.5656 485.6335 470.5031Q484.9929 471.425 483.60226 471.425Q482.2429 471.425 481.58664 470.51874Q480.9304 469.6125 480.89914 467.8L480.89914 466.3625Q480.89914 464.47186 481.53976 463.5656Q482.196 462.64374 483.58664 462.64374Q484.96164 462.64374 485.6179 463.53436Q486.27414 464.40936 486.28976 466.2531L486.28976 467.65936ZM485.196 466.175Q485.196 464.8 484.8054 464.175Q484.4304 463.53436 483.58664 463.53436Q482.7585 463.53436 482.3679 464.175Q481.9929 464.8 481.9929 466.09686L481.9929 467.83124Q481.9929 469.20624 482.3835 469.8781Q482.78976 470.53436 483.60226 470.53436Q484.39914 470.53436 484.78976 469.90936Q485.1804 469.28436 485.196 467.95624L485.196 466.175ZM493.28976 467.65936Q493.28976 469.5656 492.6335 470.5031Q491.9929 471.425 490.60226 471.425Q489.2429 471.425 488.58664 470.51874Q487.9304 469.6125 487.89914 467.8L487.89914 466.3625Q487.89914 464.47186 488.53976 463.5656Q489.196 462.64374 490.58664 462.64374Q491.96164 462.64374 492.6179 463.53436Q493.27414 464.40936 493.28976 466.2531L493.28976 467.65936ZM492.196 466.175Q492.196 464.8 491.8054 464.175Q491.4304 463.53436 490.58664 463.53436Q489.7585 463.53436 489.3679 464.175Q488.9929 464.8 488.9929 466.09686L488.9929 467.83124Q488.9929 469.20624 489.3835 469.8781Q489.78976 470.53436 490.60226 470.53436Q491.39914 470.53436 491.78976 469.90936Q492.1804 469.28436 492.196 467.95624L492.196 466.175ZM500.28976 467.65936Q500.28976 469.5656 499.6335 470.5031Q498.9929 471.425 497.60226 471.425Q496.2429 471.425 495.58664 470.51874Q494.9304 469.6125 494.89914 467.8L494.89914 466.3625Q494.89914 464.47186 495.53976 463.5656Q496.196 462.64374 497.58664 462.64374Q498.96164 462.64374 499.6179 463.53436Q500.27414 464.40936 500.28976 466.2531L500.28976 467.65936ZM499.196 466.175Q499.196 464.8 498.8054 464.175Q498.4304 463.53436 497.58664 463.53436Q496.7585 463.53436 496.3679 464.175Q495.9929 464.8 495.9929 466.09686L495.9929 467.83124Q495.9929 469.20624 496.3835 469.8781Q496.78976 470.53436 497.60226 470.53436Q498.39914 470.53436 498.78976 469.90936Q499.1804 469.28436 499.196 467.95624L499.196 466.175ZM507.28976 467.65936Q507.28976 469.5656 506.6335 470.5031Q505.9929 471.425 504.60226 471.425Q503.2429 471.425 502.58664 470.51874Q501.9304 469.6125 501.89914 467.8L501.89914 466.3625Q501.89914 464.47186 502.53976 463.5656Q503.196 462.64374 504.58664 462.64374Q505.96164 462.64374 506.6179 463.53436Q507.27414 464.40936 507.28976 466.2531L507.28976 467.65936ZM506.196 466.175Q506.196 464.8 505.8054 464.175Q505.4304 463.53436 504.58664 463.53436Q503.7585 463.53436 503.3679 464.175Q502.9929 464.8 502.9929 466.09686L502.9929 467.83124Q502.9929 469.20624 503.3835 469.8781Q503.78976 470.53436 504.60226 470.53436Q505.39914 470.53436 505.78976 469.90936Q506.1804 469.28436 506.196 467.95624L506.196 466.175Z" fill-rule="nonzero"/><path fill="#757575" d="M584.0858 471.3L583.0077 471.3L583.0077 464.08124L580.8202 464.8781L580.8202 463.89374L583.92957 462.72186L584.0858 462.72186L584.0858 471.3ZM592.8827 467.65936Q592.8827 469.5656 592.22644 470.5031Q591.5858 471.425 590.1952 471.425Q588.8358 471.425 588.17957 470.51874Q587.5233 469.6125 587.49207 467.8L587.49207 466.3625Q587.49207 464.47186 588.1327 463.5656Q588.78894 462.64374 590.17957 462.64374Q591.55457 462.64374 592.2108 463.53436Q592.86707 464.40936 592.8827 466.2531L592.8827 467.65936ZM591.78894 466.175Q591.78894 464.8 591.3983 464.175Q591.0233 463.53436 590.17957 463.53436Q589.35144 463.53436 588.9608 464.175Q588.5858 464.8 588.5858 466.09686L588.5858 467.83124Q588.5858 469.20624 588.97644 469.8781Q589.3827 470.53436 590.1952 470.53436Q590.99207 470.53436 591.3827 469.90936Q591.7733 469.28436 591.78894 467.95624L591.78894 466.175ZM599.8827 467.65936Q599.8827 469.5656 599.22644 470.5031Q598.5858 471.425 597.1952 471.425Q595.8358 471.425 595.17957 470.51874Q594.5233 469.6125 594.49207 467.8L594.49207 466.3625Q594.49207 464.47186 595.1327 463.5656Q595.78894 462.64374 597.17957 462.64374Q598.55457 462.64374 599.2108 463.53436Q599.86707 464.40936 599.8827 466.2531L599.8827 467.65936ZM598.78894 466.175Q598.78894 464.8 598.3983 464.175Q598.0233 463.53436 597.17957 463.53436Q596.35144 463.53436 595.9608 464.175Q595.5858 464.8 595.5858 466.09686L595.5858 467.83124Q595.5858 469.20624 595.97644 469.8781Q596.3827 470.53436 597.1952 470.53436Q597.99207 470.53436 598.3827 469.90936Q598.7733 469.28436 598.78894 467.95624L598.78894 466.175ZM606.8827 467.65936Q606.8827 469.5656 606.22644 470.5031Q605.5858 471.425 604.1952 471.425Q602.8358 471.425 602.17957 470.51874Q601.5233 469.6125 601.49207 467.8L601.49207 466.3625Q601.49207 464.47186 602.1327 463.5656Q602.78894 462.64374 604.17957 462.64374Q605.55457 462.64374 606.2108 463.53436Q606.86707 464.40936 606.8827 466.2531L606.8827 467.65936ZM605.78894 466.175Q605.78894 464.8 605.3983 464.175Q605.0233 463.53436 604.17957 463.53436Q603.35144 463.53436 602.9608 464.175Q602.5858 464.8 602.5858 466.09686L602.5858 467.83124Q602.5858 469.20624 602.97644 469.8781Q603.3827 470.53436 604.1952 470.53436Q604.99207 470.53436 605.3827 469.90936Q605.7733 469.28436 605.78894 467.95624L605.78894 466.175ZM613.8827 467.65936Q613.8827 469.5656 613.22644 470.5031Q612.5858 471.425 611.1952 471.425Q609.8358 471.425 609.17957 470.51874Q608.5233 469.6125 608.49207 467.8L608.49207 466.3625Q608.49207 464.47186 609.1327 463.5656Q609.78894 462.64374 611.17957 462.64374Q612.55457 462.64374 613.2108 463.53436Q613.86707 464.40936 613.8827 466.2531L613.8827 467.65936ZM612.78894 466.175Q612.78894 464.8 612.3983 464.175Q612.0233 463.53436 611.17957 463.53436Q610.35144 463.53436 609.9608 464.175Q609.5858 464.8 609.5858 466.09686L609.5858 467.83124Q609.5858 469.20624 609.97644 469.8781Q610.3827 470.53436 611.1952 470.53436Q611.99207 470.53436 612.3827 469.90936Q612.7733 469.28436 612.78894 467.95624L612.78894 466.175ZM620.8827 467.65936Q620.8827 469.5656 620.22644 470.5031Q619.5858 471.425 618.1952 471.425Q616.8358 471.425 616.17957 470.51874Q615.5233 469.6125 615.49207 467.8L615.49207 466.3625Q615.49207 464.47186 616.1327 463.5656Q616.78894 462.64374 618.17957 462.64374Q619.55457 462.64374 620.2108 463.53436Q620.86707 464.40936 620.8827 466.2531L620.8827 467.65936ZM619.78894 466.175Q619.78894 464.8 619.3983 464.175Q619.0233 463.53436 618.17957 463.53436Q617.35144 463.53436 616.9608 464.175Q616.5858 464.8 616.5858 466.09686L616.5858 467.83124Q616.5858 469.20624 616.97644 469.8781Q617.3827 470.53436 618.1952 470.53436Q618.99207 470.53436 619.3827 469.90936Q619.7733 469.28436 619.78894 467.95624L619.78894 466.175ZM627.8827 467.65936Q627.8827 469.5656 627.22644 470.5031Q626.5858 471.425 625.1952 471.425Q623.8358 471.425 623.17957 470.51874Q622.5233 469.6125 622.49207 467.8L622.49207 466.3625Q622.49207 464.47186 623.1327 463.5656Q623.78894 462.64374 625.17957 462.64374Q626.55457 462.64374 627.2108 463.53436Q627.86707 464.40936 627.8827 466.2531L627.8827 467.65936ZM626.78894 466.175Q626.78894 464.8 626.3983 464.175Q626.0233 463.53436 625.17957 463.53436Q624.35144 463.53436 623.9608 464.175Q623.5858 464.8 623.5858 466.09686L623.5858 467.83124Q623.5858 469.20624 623.97644 469.8781Q624.3827 470.53436 625.1952 470.53436Q625.99207 470.53436 626.3827 469.90936Q626.7733 469.28436 626.78894 467.95624L626.78894 466.175Z" fill-rule="nonzero"/><path fill="#757575" d="M697.6788 471.3L696.60065 471.3L696.60065 464.08124L694.41315 464.8781L694.41315 463.89374L697.5225 462.72186L697.6788 462.72186L697.6788 471.3ZM706.47565 467.65936Q706.47565 469.5656 705.8194 470.5031Q705.1788 471.425 703.78815 471.425Q702.4288 471.425 701.7725 470.51874Q701.1163 469.6125 701.085 467.8L701.085 466.3625Q701.085 464.47186 701.72565 463.5656Q702.3819 462.64374 703.7725 462.64374Q705.1475 462.64374 705.8038 463.53436Q706.46 464.40936 706.47565 466.2531L706.47565 467.65936ZM705.3819 466.175Q705.3819 464.8 704.9913 464.175Q704.6163 463.53436 703.7725 463.53436Q702.9444 463.53436 702.5538 464.175Q702.1788 464.8 702.1788 466.09686L702.1788 467.83124Q702.1788 469.20624 702.5694 469.8781Q702.97565 470.53436 703.78815 470.53436Q704.585 470.53436 704.97565 469.90936Q705.3663 469.28436 705.3819 467.95624L705.3819 466.175ZM713.47565 467.65936Q713.47565 469.5656 712.8194 470.5031Q712.1788 471.425 710.78815 471.425Q709.4288 471.425 708.7725 470.51874Q708.1163 469.6125 708.085 467.8L708.085 466.3625Q708.085 464.47186 708.72565 463.5656Q709.3819 462.64374 710.7725 462.64374Q712.1475 462.64374 712.8038 463.53436Q713.46 464.40936 713.47565 466.2531L713.47565 467.65936ZM712.3819 466.175Q712.3819 464.8 711.9913 464.175Q711.6163 463.53436 710.7725 463.53436Q709.9444 463.53436 709.5538 464.175Q709.1788 464.8 709.1788 466.09686L709.1788 467.83124Q709.1788 469.20624 709.5694 469.8781Q709.97565 470.53436 710.78815 470.53436Q711.585 470.53436 711.97565 469.90936Q712.3663 469.28436 712.3819 467.95624L712.3819 466.175ZM720.47565 467.65936Q720.47565 469.5656 719.8194 470.5031Q719.1788 471.425 717.78815 471.425Q716.4288 471.425 715.7725 470.51874Q715.1163 469.6125 715.085 467.8L715.085 466.3625Q715.085 464.47186 715.72565 463.5656Q716.3819 462.64374 717.7725 462.64374Q719.1475 462.64374 719.8038 463.53436Q720.46 464.40936 720.47565 466.2531L720.47565 467.65936ZM719.3819 466.175Q719.3819 464.8 718.9913 464.175Q718.6163 463.53436 717.7725 463.53436Q716.9444 463.53436 716.5538 464.175Q716.1788 464.8 716.1788 466.09686L716.1788 467.83124Q716.1788 469.20624 716.5694 469.8781Q716.97565 470.53436 717.78815 470.53436Q718.585 470.53436 718.97565 469.90936Q719.3663 469.28436 719.3819 467.95624L719.3819 466.175ZM727.47565 467.65936Q727.47565 469.5656 726.8194 470.5031Q726.1788 471.425 724.78815 471.425Q723.4288 471.425 722.7725 470.51874Q722.1163 469.6125 722.085 467.8L722.085 466.3625Q722.085 464.47186 722.72565 463.5656Q723.3819 462.64374 724.7725 462.64374Q726.1475 462.64374 726.8038 463.53436Q727.46 464.40936 727.47565 466.2531L727.47565 467.65936ZM726.3819 466.175Q726.3819 464.8 725.9913 464.175Q725.6163 463.53436 724.7725 463.53436Q723.9444 463.53436 723.5538 464.175Q723.1788 464.8 723.1788 466.09686L723.1788 467.83124Q723.1788 469.20624 723.5694 469.8781Q723.97565 470.53436 724.78815 470.53436Q725.585 470.53436 725.97565 469.90936Q726.3663 469.28436 726.3819 467.95624L726.3819 466.175ZM734.47565 467.65936Q734.47565 469.5656 733.8194 470.5031Q733.1788 471.425 731.78815 471.425Q730.4288 471.425 729.7725 470.51874Q729.1163 469.6125 729.085 467.8L729.085 466.3625Q729.085 464.47186 729.72565 463.5656Q730.3819 462.64374 731.7725 462.64374Q733.1475 462.64374 733.8038 463.53436Q734.46 464.40936 734.47565 466.2531L734.47565 467.65936ZM733.3819 466.175Q733.3819 464.8 732.9913 464.175Q732.6163 463.53436 731.7725 463.53436Q730.9444 463.53436 730.5538 464.175Q730.1788 464.8 730.1788 466.09686L730.1788 467.83124Q730.1788 469.20624 730.5694 469.8781Q730.97565 470.53436 731.78815 470.53436Q732.585 470.53436 732.97565 469.90936Q733.3663 469.28436 733.3819 467.95624L733.3819 466.175ZM741.47565 467.65936Q741.47565 469.5656 740.8194 470.5031Q740.1788 471.425 738.78815 471.425Q737.4288 471.425 736.7725 470.51874Q736.1163 469.6125 736.085 467.8L736.085 466.3625Q736.085 464.47186 736.72565 463.5656Q737.3819 462.64374 738.7725 462.64374Q740.1475 462.64374 740.8038 463.53436Q741.46 464.40936 741.47565 466.2531L741.47565 467.65936ZM740.3819 466.175Q740.3819 464.8 739.9913 464.175Q739.6163 463.53436 738.7725 463.53436Q737.9444 463.53436 737.5538 464.175Q737.1788 464.8 737.1788 466.09686L737.1788 467.83124Q737.1788 469.20624 737.5694 469.8781Q737.97565 470.53436 738.78815 470.53436Q739.585 470.53436 739.97565 469.90936Q740.3663 469.28436 740.3819 467.95624L740.3819 466.175ZM748.47565 467.65936Q748.47565 469.5656 747.8194 470.5031Q747.1788 471.425 745.78815 471.425Q744.4288 471.425 743.7725 470.51874Q743.1163 469.6125 743.085 467.8L743.085 466.3625Q743.085 464.47186 743.72565 463.5656Q744.3819 462.64374 745.7725 462.64374Q747.1475 462.64374 747.8038 463.53436Q748.46 464.40936 748.47565 466.2531L748.47565 467.65936ZM747.3819 466.175Q747.3819 464.8 746.9913 464.175Q746.6163 463.53436 745.7725 463.53436Q744.9444 463.53436 744.5538 464.175Q744.1788 464.8 744.1788 466.09686L744.1788 467.83124Q744.1788 469.20624 744.5694 469.8781Q744.97565 470.53436 745.78815 470.53436Q746.585 470.53436 746.97565 469.90936Q747.3663 469.28436 747.3819 467.95624L747.3819 466.175Z" fill-rule="nonzero"/><path stroke="#4285f4" stroke-width="4.0" stroke-linecap="butt" d="M318.0 76.0L330.0 76.0" fill-rule="nonzero"/><path fill="#757575" d="M339.9375 74.15625L339.9375 81.234375Q339.9375 83.0625 338.28125 83.0625Q337.92188 83.0625 337.625 82.953125L337.625 82.09375Q337.8125 82.140625 338.10938 82.140625Q338.46875 82.140625 338.65625 81.9375Q338.85938 81.75 338.85938 81.25L338.85938 74.15625L339.9375 74.15625ZM338.75 72.484375Q338.75 72.21875 338.90625 72.03125Q339.0625 71.84375 339.375 71.84375Q339.6875 71.84375 339.84375 72.03125Q340.01562 72.21875 340.01562 72.484375Q340.01562 72.734375 339.84375 72.921875Q339.6875 73.09375 339.375 73.09375Q339.0625 73.09375 338.90625 72.921875Q338.75 72.734375 338.75 72.484375ZM345.51562 78.8125Q345.51562 78.375 345.17188 78.140625Q344.84375 77.890625 344.01562 77.71875Q343.20312 77.546875 342.71875 77.296875Q342.23438 77.046875 342.0 76.71875Q341.78125 76.375 341.78125 75.90625Q341.78125 75.125 342.4375 74.59375Q343.09375 74.046875 344.125 74.046875Q345.20312 74.046875 345.85938 74.609375Q346.53125 75.15625 346.53125 76.015625L345.45312 76.015625Q345.45312 75.578125 345.0625 75.265625Q344.6875 74.9375 344.125 74.9375Q343.53125 74.9375 343.1875 75.203125Q342.85938 75.453125 342.85938 75.859375Q342.85938 76.25 343.17188 76.453125Q343.48438 76.65625 344.29688 76.84375Q345.10938 77.015625 345.60938 77.265625Q346.10938 77.515625 346.34375 77.875Q346.59375 78.234375 346.59375 78.734375Q346.59375 79.59375 345.90625 80.109375Q345.23438 80.625 344.15625 80.625Q343.39062 80.625 342.79688 80.359375Q342.21875 80.078125 341.89062 79.59375Q341.5625 79.109375 341.5625 78.546875L342.64062 78.546875Q342.67188 79.09375 343.07812 79.421875Q343.48438 79.734375 344.15625 79.734375Q344.76562 79.734375 345.14062 79.484375Q345.51562 79.234375 345.51562 78.8125ZM351.84375 74.15625L351.875 74.859375Q352.5625 74.046875 353.75 74.046875Q355.07812 74.046875 355.5625 75.0625Q355.875 74.609375 356.375 74.328125Q356.89062 74.046875 357.57812 74.046875Q359.67188 74.046875 359.70312 76.25L359.70312 80.5L358.625 80.5L358.625 76.3125Q358.625 75.640625 358.3125 75.3125Q358.0 74.96875 357.26562 74.96875Q356.65625 74.96875 356.25 75.328125Q355.85938 75.6875 355.79688 76.296875L355.79688 80.5L354.71875 80.5L354.71875 76.34375Q354.71875 74.96875 353.35938 74.96875Q352.29688 74.96875 351.90625 75.875L351.90625 80.5L350.8125 80.5L350.8125 74.15625L351.84375 74.15625ZM365.73438 79.875Q365.10938 80.625 363.875 80.625Q362.85938 80.625 362.32812 80.03125Q361.79688 79.4375 361.79688 78.28125L361.79688 74.15625L362.875 74.15625L362.875 78.25Q362.875 79.703125 364.04688 79.703125Q365.29688 79.703125 365.70312 78.765625L365.70312 74.15625L366.79688 74.15625L366.79688 80.5L365.76562 80.5L365.73438 79.875ZM370.29688 72.625L370.29688 74.15625L371.46875 74.15625L371.46875 75.0L370.29688 75.0L370.29688 78.921875Q370.29688 79.3125 370.45312 79.5Q370.60938 79.6875 370.98438 79.6875Q371.17188 79.6875 371.5 79.625L371.5 80.5Q371.07812 80.625 370.67188 80.625Q369.95312 80.625 369.57812 80.1875Q369.20312 79.734375 369.20312 78.921875L369.20312 75.0L368.04688 75.0L368.04688 74.15625L369.20312 74.15625L369.20312 72.625L370.29688 72.625ZM376.73438 80.5Q376.64062 80.3125 376.57812 79.828125Q375.82812 80.625 374.78125 80.625Q373.84375 80.625 373.23438 80.09375Q372.64062 79.5625 372.64062 78.734375Q372.64062 77.75 373.39062 77.203125Q374.14062 76.65625 375.51562 76.65625L376.5625 76.65625L376.5625 76.15625Q376.5625 75.59375 376.21875 75.265625Q375.89062 74.921875 375.21875 74.921875Q374.64062 74.921875 374.25 75.21875Q373.85938 75.5 373.85938 75.921875L372.76562 75.921875Q372.76562 75.4375 373.09375 75.0Q373.4375 74.5625 374.01562 74.3125Q374.59375 74.046875 375.28125 74.046875Q376.39062 74.046875 377.0 74.59375Q377.625 75.140625 377.65625 76.09375L377.65625 79.015625Q377.65625 79.890625 377.875 80.40625L377.875 80.5L376.73438 80.5ZM374.9375 79.671875Q375.45312 79.671875 375.90625 79.40625Q376.35938 79.140625 376.5625 78.71875L376.5625 77.421875L375.71875 77.421875Q373.71875 77.421875 373.71875 78.59375Q373.71875 79.09375 374.0625 79.390625Q374.40625 79.671875 374.9375 79.671875ZM381.29688 72.625L381.29688 74.15625L382.46875 74.15625L382.46875 75.0L381.29688 75.0L381.29688 78.921875Q381.29688 79.3125 381.45312 79.5Q381.60938 79.6875 381.98438 79.6875Q382.17188 79.6875 382.5 79.625L382.5 80.5Q382.07812 80.625 381.67188 80.625Q380.95312 80.625 380.57812 80.1875Q380.20312 79.734375 380.20312 78.921875L380.20312 75.0L379.04688 75.0L379.04688 74.15625L380.20312 74.15625L380.20312 72.625L381.29688 72.625ZM386.45312 80.625Q385.15625 80.625 384.34375 79.78125Q383.54688 78.921875 383.54688 77.5L383.54688 77.3125Q383.54688 76.359375 383.90625 75.625Q384.26562 74.875 384.90625 74.46875Q385.5625 74.046875 386.3125 74.046875Q387.54688 74.046875 388.23438 74.859375Q388.92188 75.671875 388.92188 77.1875L388.92188 77.640625L384.625 77.640625Q384.65625 78.578125 385.17188 79.15625Q385.70312 79.734375 386.51562 79.734375Q387.07812 79.734375 387.46875 79.5Q387.875 79.265625 388.1875 78.875L388.84375 79.390625Q388.04688 80.625 386.45312 80.625ZM386.3125 74.9375Q385.65625 74.9375 385.20312 75.421875Q384.76562 75.890625 384.67188 76.75L387.84375 76.75L387.84375 76.671875Q387.79688 75.84375 387.39062 75.390625Q387.0 74.9375 386.3125 74.9375Z" fill-rule="nonzero"/><path stroke="#db4437" stroke-width="4.0" stroke-linecap="butt" d="M405.0 76.0L417.0 76.0" fill-rule="nonzero"/><path fill="#757575" d="M428.35938 79.734375Q428.9375 79.734375 429.375 79.390625Q429.8125 79.03125 429.85938 78.5L430.89062 78.5Q430.85938 79.046875 430.5 79.546875Q430.15625 80.03125 429.57812 80.328125Q429.01562 80.625 428.35938 80.625Q427.0625 80.625 426.29688 79.765625Q425.54688 78.890625 425.54688 77.390625L425.54688 77.203125Q425.54688 76.28125 425.875 75.5625Q426.21875 74.84375 426.84375 74.453125Q427.48438 74.046875 428.35938 74.046875Q429.42188 74.046875 430.125 74.6875Q430.84375 75.3125 430.89062 76.34375L429.85938 76.34375Q429.8125 75.71875 429.39062 75.328125Q428.96875 74.9375 428.35938 74.9375Q427.53125 74.9375 427.07812 75.53125Q426.625 76.125 426.625 77.25L426.625 77.453125Q426.625 78.546875 427.07812 79.140625Q427.53125 79.734375 428.35938 79.734375ZM433.0 80.5L431.92188 80.5L431.92188 71.5L433.0 71.5L433.0 80.5ZM435.9375 74.15625L435.9375 81.234375Q435.9375 83.0625 434.28125 83.0625Q433.92188 83.0625 433.625 82.953125L433.625 82.09375Q433.8125 82.140625 434.10938 82.140625Q434.46875 82.140625 434.65625 81.9375Q434.85938 81.75 434.85938 81.25L434.85938 74.15625L435.9375 74.15625ZM434.75 72.484375Q434.75 72.21875 434.90625 72.03125Q435.0625 71.84375 435.375 71.84375Q435.6875 71.84375 435.84375 72.03125Q436.01562 72.21875 436.01562 72.484375Q436.01562 72.734375 435.84375 72.921875Q435.6875 73.09375 435.375 73.09375Q435.0625 73.09375 434.90625 72.921875Q434.75 72.734375 434.75 72.484375ZM441.51562 78.8125Q441.51562 78.375 441.17188 78.140625Q440.84375 77.890625 440.01562 77.71875Q439.20312 77.546875 438.71875 77.296875Q438.23438 77.046875 438.0 76.71875Q437.78125 76.375 437.78125 75.90625Q437.78125 75.125 438.4375 74.59375Q439.09375 74.046875 440.125 74.046875Q441.20312 74.046875 441.85938 74.609375Q442.53125 75.15625 442.53125 76.015625L441.45312 76.015625Q441.45312 75.578125 441.0625 75.265625Q440.6875 74.9375 440.125 74.9375Q439.53125 74.9375 439.1875 75.203125Q438.85938 75.453125 438.85938 75.859375Q438.85938 76.25 439.17188 76.453125Q439.48438 76.65625 440.29688 76.84375Q441.10938 77.015625 441.60938 77.265625Q442.10938 77.515625 442.34375 77.875Q442.59375 78.234375 442.59375 78.734375Q442.59375 79.59375 441.90625 80.109375Q441.23438 80.625 440.15625 80.625Q439.39062 80.625 438.79688 80.359375Q438.21875 80.078125 437.89062 79.59375Q437.5625 79.109375 437.5625 78.546875L438.64062 78.546875Q438.67188 79.09375 439.07812 79.421875Q439.48438 79.734375 440.15625 79.734375Q440.76562 79.734375 441.14062 79.484375Q441.51562 79.234375 441.51562 78.8125ZM449.35938 79.734375Q449.9375 79.734375 450.375 79.390625Q450.8125 79.03125 450.85938 78.5L451.89062 78.5Q451.85938 79.046875 451.5 79.546875Q451.15625 80.03125 450.57812 80.328125Q450.01562 80.625 449.35938 80.625Q448.0625 80.625 447.29688 79.765625Q446.54688 78.890625 446.54688 77.390625L446.54688 77.203125Q446.54688 76.28125 446.875 75.5625Q447.21875 74.84375 447.84375 74.453125Q448.48438 74.046875 449.35938 74.046875Q450.42188 74.046875 451.125 74.6875Q451.84375 75.3125 451.89062 76.34375L450.85938 76.34375Q450.8125 75.71875 450.39062 75.328125Q449.96875 74.9375 449.35938 74.9375Q448.53125 74.9375 448.07812 75.53125Q447.625 76.125 447.625 77.25L447.625 77.453125Q447.625 78.546875 448.07812 79.140625Q448.53125 79.734375 449.35938 79.734375ZM452.53125 77.265625Q452.53125 76.34375 452.89062 75.59375Q453.26562 74.84375 453.92188 74.453125Q454.57812 74.046875 455.40625 74.046875Q456.70312 74.046875 457.5 74.9375Q458.3125 75.828125 458.3125 77.328125L458.3125 77.40625Q458.3125 78.328125 457.95312 79.0625Q457.59375 79.796875 456.9375 80.21875Q456.28125 80.625 455.42188 80.625Q454.14062 80.625 453.32812 79.734375Q452.53125 78.828125 452.53125 77.34375L452.53125 77.265625ZM453.625 77.40625Q453.625 78.453125 454.10938 79.09375Q454.60938 79.734375 455.42188 79.734375Q456.25 79.734375 456.73438 79.09375Q457.21875 78.4375 457.21875 77.265625Q457.21875 76.234375 456.71875 75.59375Q456.23438 74.9375 455.40625 74.9375Q454.60938 74.9375 454.10938 75.578125Q453.625 76.203125 453.625 77.40625ZM465.17188 77.40625Q465.17188 78.84375 464.51562 79.734375Q463.85938 80.625 462.71875 80.625Q461.5625 80.625 460.90625 79.890625L460.90625 82.9375L459.82812 82.9375L459.82812 74.15625L460.8125 74.15625L460.85938 74.859375Q461.53125 74.046875 462.70312 74.046875Q463.84375 74.046875 464.5 74.90625Q465.17188 75.765625 465.17188 77.296875L465.17188 77.40625ZM464.09375 77.28125Q464.09375 76.203125 463.625 75.59375Q463.17188 74.96875 462.375 74.96875Q461.39062 74.96875 460.90625 75.828125L460.90625 78.859375Q461.39062 79.734375 462.39062 79.734375Q463.17188 79.734375 463.625 79.125Q464.09375 78.5 464.09375 77.28125ZM468.89062 78.90625L470.375 74.15625L471.53125 74.15625L468.98438 81.484375Q468.39062 83.0625 467.10938 83.0625L466.89062 83.046875L466.5 82.96875L466.5 82.09375L466.78125 82.109375Q467.34375 82.109375 467.64062 81.890625Q467.95312 81.671875 468.15625 81.078125L468.39062 80.421875L466.125 74.15625L467.3125 74.15625L468.89062 78.90625Z" fill-rule="nonzero"/><path stroke="#f4b400" stroke-width="4.0" stroke-linecap="butt" d="M488.0 76.0L500.0 76.0" fill-rule="nonzero"/><path fill="#757575" d="M509.9375 74.15625L509.9375 81.234375Q509.9375 83.0625 508.28125 83.0625Q507.92188 83.0625 507.625 82.953125L507.625 82.09375Q507.8125 82.140625 508.10938 82.140625Q508.46875 82.140625 508.65625 81.9375Q508.85938 81.75 508.85938 81.25L508.85938 74.15625L509.9375 74.15625ZM508.75 72.484375Q508.75 72.21875 508.90625 72.03125Q509.0625 71.84375 509.375 71.84375Q509.6875 71.84375 509.84375 72.03125Q510.01562 72.21875 510.01562 72.484375Q510.01562 72.734375 509.84375 72.921875Q509.6875 73.09375 509.375 73.09375Q509.0625 73.09375 508.90625 72.921875Q508.75 72.734375 508.75 72.484375ZM515.5156 78.8125Q515.5156 78.375 515.1719 78.140625Q514.84375 77.890625 514.0156 77.71875Q513.2031 77.546875 512.71875 77.296875Q512.2344 77.046875 512.0 76.71875Q511.78125 76.375 511.78125 75.90625Q511.78125 75.125 512.4375 74.59375Q513.09375 74.046875 514.125 74.046875Q515.2031 74.046875 515.8594 74.609375Q516.53125 75.15625 516.53125 76.015625L515.4531 76.015625Q515.4531 75.578125 515.0625 75.265625Q514.6875 74.9375 514.125 74.9375Q513.53125 74.9375 513.1875 75.203125Q512.8594 75.453125 512.8594 75.859375Q512.8594 76.25 513.1719 76.453125Q513.4844 76.65625 514.2969 76.84375Q515.1094 77.015625 515.6094 77.265625Q516.1094 77.515625 516.34375 77.875Q516.59375 78.234375 516.59375 78.734375Q516.59375 79.59375 515.90625 80.109375Q515.2344 80.625 514.15625 80.625Q513.3906 80.625 512.7969 80.359375Q512.21875 80.078125 511.89062 79.59375Q511.5625 79.109375 511.5625 78.546875L512.6406 78.546875Q512.6719 79.09375 513.0781 79.421875Q513.4844 79.734375 514.15625 79.734375Q514.7656 79.734375 515.1406 79.484375Q515.5156 79.234375 515.5156 78.8125ZM523.3594 79.734375Q523.9375 79.734375 524.375 79.390625Q524.8125 79.03125 524.8594 78.5L525.8906 78.5Q525.8594 79.046875 525.5 79.546875Q525.15625 80.03125 524.5781 80.328125Q524.0156 80.625 523.3594 80.625Q522.0625 80.625 521.2969 79.765625Q520.5469 78.890625 520.5469 77.390625L520.5469 77.203125Q520.5469 76.28125 520.875 75.5625Q521.21875 74.84375 521.84375 74.453125Q522.4844 74.046875 523.3594 74.046875Q524.4219 74.046875 525.125 74.6875Q525.84375 75.3125 525.8906 76.34375L524.8594 76.34375Q524.8125 75.71875 524.3906 75.328125Q523.96875 74.9375 523.3594 74.9375Q522.53125 74.9375 522.0781 75.53125Q521.625 76.125 521.625 77.25L521.625 77.453125Q521.625 78.546875 522.0781 79.140625Q522.53125 79.734375 523.3594 79.734375ZM526.53125 77.265625Q526.53125 76.34375 526.8906 75.59375Q527.2656 74.84375 527.9219 74.453125Q528.5781 74.046875 529.40625 74.046875Q530.7031 74.046875 531.5 74.9375Q532.3125 75.828125 532.3125 77.328125L532.3125 77.40625Q532.3125 78.328125 531.9531 79.0625Q531.59375 79.796875 530.9375 80.21875Q530.28125 80.625 529.4219 80.625Q528.1406 80.625 527.3281 79.734375Q526.53125 78.828125 526.53125 77.34375L526.53125 77.265625ZM527.625 77.40625Q527.625 78.453125 528.1094 79.09375Q528.6094 79.734375 529.4219 79.734375Q530.25 79.734375 530.7344 79.09375Q531.21875 78.4375 531.21875 77.265625Q531.21875 76.234375 530.71875 75.59375Q530.2344 74.9375 529.40625 74.9375Q528.6094 74.9375 528.1094 75.578125Q527.625 76.203125 527.625 77.40625ZM539.1719 77.40625Q539.1719 78.84375 538.5156 79.734375Q537.8594 80.625 536.71875 80.625Q535.5625 80.625 534.90625 79.890625L534.90625 82.9375L533.8281 82.9375L533.8281 74.15625L534.8125 74.15625L534.8594 74.859375Q535.53125 74.046875 536.7031 74.046875Q537.84375 74.046875 538.5 74.90625Q539.1719 75.765625 539.1719 77.296875L539.1719 77.40625ZM538.09375 77.28125Q538.09375 76.203125 537.625 75.59375Q537.1719 74.96875 536.375 74.96875Q535.3906 74.96875 534.90625 75.828125L534.90625 78.859375Q535.3906 79.734375 536.3906 79.734375Q537.1719 79.734375 537.625 79.125Q538.09375 78.5 538.09375 77.28125ZM542.8906 78.90625L544.375 74.15625L545.53125 74.15625L542.9844 81.484375Q542.3906 83.0625 541.1094 83.0625L540.8906 83.046875L540.5 82.96875L540.5 82.09375L540.78125 82.109375Q541.34375 82.109375 541.6406 81.890625Q541.9531 81.671875 542.15625 81.078125L542.3906 80.421875L540.125 74.15625L541.3125 74.15625L542.8906 78.90625Z" fill-rule="nonzero"/><path fill="#757575" d="M29.934376 35.1375L29.934376 46.91875Q29.934376 49.965626 27.16875 49.965626Q26.575 49.965626 26.059376 49.79375L26.059376 48.340626Q26.371876 48.41875 26.8875 48.41875Q27.496876 48.41875 27.809376 48.090626Q28.121876 47.778126 28.121876 46.965626L28.121876 35.1375L29.934376 35.1375ZM27.934376 32.325Q27.934376 31.903126 28.2 31.590626Q28.48125 31.278126 28.996876 31.278126Q29.528126 31.278126 29.79375 31.590626Q30.075 31.8875 30.075 32.325Q30.075 32.7625 29.79375 33.059376Q29.528126 33.35625 28.996876 33.35625Q28.465626 33.35625 28.2 33.059376Q27.934376 32.7625 27.934376 32.325ZM39.215626 42.903126Q39.215626 42.16875 38.66875 41.7625Q38.121876 41.35625 36.746876 41.059376Q35.371876 40.7625 34.559376 40.35625Q33.7625 39.95 33.371876 39.3875Q32.996876 38.809376 32.996876 38.028126Q32.996876 36.73125 34.090626 35.840626Q35.184376 34.934376 36.903126 34.934376Q38.7 34.934376 39.809376 35.871876Q40.934376 36.79375 40.934376 38.23125L39.10625 38.23125Q39.10625 37.496876 38.48125 36.965626Q37.85625 36.41875 36.903126 36.41875Q35.903126 36.41875 35.340626 36.85625Q34.79375 37.278126 34.79375 37.98125Q34.79375 38.621876 35.309376 38.965626Q35.825 39.29375 37.184376 39.60625Q38.54375 39.903126 39.371876 40.325Q40.215626 40.73125 40.621876 41.325Q41.028126 41.91875 41.028126 42.7625Q41.028126 44.184376 39.8875 45.04375Q38.7625 45.903126 36.95 45.903126Q35.684376 45.903126 34.7 45.45Q33.73125 44.996876 33.16875 44.2Q32.621876 43.3875 32.621876 42.45L34.434376 42.45Q34.48125 43.35625 35.153126 43.8875Q35.840626 44.41875 36.95 44.41875Q37.98125 44.41875 38.590626 44.0125Q39.215626 43.590626 39.215626 42.903126ZM51.559376 43.246876L54.16875 35.1375L56.0125 35.1375L52.23125 45.7L50.85625 45.7L47.028126 35.1375L48.871876 35.1375L51.559376 43.246876ZM64.21562 42.903126Q64.21562 42.16875 63.66875 41.7625Q63.121876 41.35625 61.746876 41.059376Q60.371876 40.7625 59.559376 40.35625Q58.7625 39.95 58.371876 39.3875Q57.996876 38.809376 57.996876 38.028126Q57.996876 36.73125 59.090626 35.840626Q60.184376 34.934376 61.903126 34.934376Q63.7 34.934376 64.80937 35.871876Q65.93437 36.79375 65.93437 38.23125L64.10625 38.23125Q64.10625 37.496876 63.48125 36.965626Q62.85625 36.41875 61.903126 36.41875Q60.903126 36.41875 60.340626 36.85625Q59.79375 37.278126 59.79375 37.98125Q59.79375 38.621876 60.309376 38.965626Q60.825 39.29375 62.184376 39.60625Q63.54375 39.903126 64.37187 40.325Q65.21562 40.73125 65.62187 41.325Q66.02812 41.91875 66.02812 42.7625Q66.02812 44.184376 64.8875 45.04375Q63.7625 45.903126 61.95 45.903126Q60.684376 45.903126 59.7 45.45Q58.73125 44.996876 58.16875 44.2Q57.621876 43.3875 57.621876 42.45L59.434376 42.45Q59.48125 43.35625 60.153126 43.8875Q60.840626 44.41875 61.95 44.41875Q62.98125 44.41875 63.590626 44.0125Q64.21562 43.590626 64.21562 42.903126ZM77.30937 44.41875Q78.27812 44.41875 78.99687 43.840626Q79.71562 43.246876 79.79375 42.371876L81.5125 42.371876Q81.45 43.278126 80.87187 44.10625Q80.30937 44.91875 79.34062 45.41875Q78.3875 45.903126 77.30937 45.903126Q75.15312 45.903126 73.87187 44.465626Q72.60625 43.0125 72.60625 40.5125L72.60625 40.215626Q72.60625 38.66875 73.16875 37.465626Q73.73125 36.2625 74.79375 35.60625Q75.85625 34.934376 77.29375 34.934376Q79.075 34.934376 80.24687 35.996876Q81.43437 37.059376 81.5125 38.7625L79.79375 38.7625Q79.71562 37.746876 79.0125 37.090626Q78.325 36.41875 77.29375 36.41875Q75.91875 36.41875 75.15312 37.41875Q74.40312 38.403126 74.40312 40.278126L74.40312 40.621876Q74.40312 42.45 75.15312 43.434376Q75.90312 44.41875 77.30937 44.41875ZM85.02812 45.7L83.23125 45.7L83.23125 30.7L85.02812 30.7L85.02812 45.7ZM89.93437 35.1375L89.93437 46.91875Q89.93437 49.965626 87.16875 49.965626Q86.575 49.965626 86.05937 49.79375L86.05937 48.340626Q86.37187 48.41875 86.8875 48.41875Q87.49687 48.41875 87.80937 48.090626Q88.12187 47.778126 88.12187 46.965626L88.12187 35.1375L89.93437 35.1375ZM87.93437 32.325Q87.93437 31.903126 88.2 31.590626Q88.48125 31.278126 88.99687 31.278126Q89.52812 31.278126 89.79375 31.590626Q90.075 31.8875 90.075 32.325Q90.075 32.7625 89.79375 33.059376Q89.52812 33.35625 88.99687 33.35625Q88.46562 33.35625 88.2 33.059376Q87.93437 32.7625 87.93437 32.325ZM99.21562 42.903126Q99.21562 42.16875 98.66875 41.7625Q98.12187 41.35625 96.74687 41.059376Q95.37187 40.7625 94.55937 40.35625Q93.7625 39.95 93.37187 39.3875Q92.99687 38.809376 92.99687 38.028126Q92.99687 36.73125 94.09062 35.840626Q95.18437 34.934376 96.90312 34.934376Q98.7 34.934376 99.80937 35.871876Q100.93437 36.79375 100.93437 38.23125L99.10625 38.23125Q99.10625 37.496876 98.48125 36.965626Q97.85625 36.41875 96.90312 36.41875Q95.90312 36.41875 95.34062 36.85625Q94.79375 37.278126 94.79375 37.98125Q94.79375 38.621876 95.30937 38.965626Q95.825 39.29375 97.18437 39.60625Q98.54375 39.903126 99.37187 40.325Q100.21562 40.73125 100.62187 41.325Q101.02812 41.91875 101.02812 42.7625Q101.02812 44.184376 99.8875 45.04375Q98.7625 45.903126 96.95 45.903126Q95.68437 45.903126 94.7 45.45Q93.73125 44.996876 93.16875 44.2Q92.62187 43.3875 92.62187 42.45L94.43437 42.45Q94.48125 43.35625 95.15312 43.8875Q95.84062 44.41875 96.95 44.41875Q97.98125 44.41875 98.59062 44.0125Q99.21562 43.590626 99.21562 42.903126ZM111.55937 43.246876L114.16875 35.1375L116.0125 35.1375L112.23125 45.7L110.85625 45.7L107.02812 35.1375L108.87187 35.1375L111.55937 43.246876ZM122.45 45.903126Q120.30937 45.903126 118.95 44.496876Q117.60625 43.075 117.60625 40.715626L117.60625 40.371876Q117.60625 38.809376 118.2 37.575Q118.80937 36.340626 119.8875 35.6375Q120.96562 34.934376 122.23125 34.934376Q124.29375 34.934376 125.43437 36.29375Q126.575 37.653126 126.575 40.184376L126.575 40.934376L119.41875 40.934376Q119.45 42.496876 120.325 43.465626Q121.2 44.41875 122.54375 44.41875Q123.5125 44.41875 124.16875 44.028126Q124.84062 43.6375 125.34062 42.996876L126.43437 43.85625Q125.10625 45.903126 122.45 45.903126ZM122.23125 36.41875Q121.1375 36.41875 120.3875 37.215626Q119.65312 38.0125 119.48125 39.45L124.7625 39.45L124.7625 39.309376Q124.68437 37.934376 124.0125 37.184376Q123.35625 36.41875 122.23125 36.41875ZM133.30937 44.41875Q134.27812 44.41875 134.99687 43.840626Q135.71562 43.246876 135.79375 42.371876L137.5125 42.371876Q137.45 43.278126 136.87187 44.10625Q136.30937 44.91875 135.34062 45.41875Q134.3875 45.903126 133.30937 45.903126Q131.15312 45.903126 129.87187 44.465626Q128.60625 43.0125 128.60625 40.5125L128.60625 40.215626Q128.60625 38.66875 129.16875 37.465626Q129.73125 36.2625 130.79375 35.60625Q131.85625 34.934376 133.29375 34.934376Q135.075 34.934376 136.24687 35.996876Q137.43437 37.059376 137.5125 38.7625L135.79375 38.7625Q135.71562 37.746876 135.0125 37.090626Q134.325 36.41875 133.29375 36.41875Q131.91875 36.41875 131.15312 37.41875Q130.40312 38.403126 130.40312 40.278126L130.40312 40.621876Q130.40312 42.45 131.15312 43.434376Q131.90312 44.41875 133.30937 44.41875ZM141.5125 32.575L141.5125 35.1375L143.49687 35.1375L143.49687 36.528126L141.5125 36.528126L141.5125 43.075Q141.5125 43.715626 141.77812 44.04375Q142.04375 44.35625 142.68437 44.35625Q142.99687 44.35625 143.54375 44.23125L143.54375 45.7Q142.825 45.903126 142.15312 45.903126Q140.95 45.903126 140.325 45.16875Q139.71562 44.434376 139.71562 43.075L139.71562 36.528126L137.79375 36.528126L137.79375 35.1375L139.71562 35.1375L139.71562 32.575L141.5125 32.575ZM145.59062 40.325Q145.59062 38.7625 146.2 37.528126Q146.80937 36.278126 147.8875 35.60625Q148.98125 34.934376 150.3875 34.934376Q152.54375 34.934376 153.87187 36.434376Q155.21562 37.91875 155.21562 40.403126L155.21562 40.528126Q155.21562 42.075 154.62187 43.309376Q154.02812 44.528126 152.91875 45.215626Q151.825 45.903126 150.40312 45.903126Q148.2625 45.903126 146.91875 44.403126Q145.59062 42.903126 145.59062 40.45L145.59062 40.325ZM147.40312 40.528126Q147.40312 42.29375 148.21562 43.35625Q149.04375 44.41875 150.40312 44.41875Q151.77812 44.41875 152.59062 43.340626Q153.40312 42.2625 153.40312 40.325Q153.40312 38.575 152.575 37.496876Q151.74687 36.41875 150.3875 36.41875Q149.04375 36.41875 148.21562 37.48125Q147.40312 38.54375 147.40312 40.528126ZM162.16875 36.746876Q161.7625 36.684376 161.29375 36.684376Q159.5125 36.684376 158.87187 38.2L158.87187 45.7L157.075 45.7L157.075 35.1375L158.825 35.1375L158.85625 36.35625Q159.74687 34.934376 161.37187 34.934376Q161.90312 34.934376 162.16875 35.075L162.16875 36.746876ZM177.99687 40.528126Q177.99687 42.95 176.8875 44.434376Q175.79375 45.903126 173.90312 45.903126Q171.98125 45.903126 170.87187 44.66875L170.87187 49.7625L169.075 49.7625L169.075 35.1375L170.71562 35.1375L170.80937 36.309376Q171.90312 34.934376 173.87187 34.934376Q175.77812 34.934376 176.8875 36.371876Q177.99687 37.809376 177.99687 40.371876L177.99687 40.528126ZM176.18437 40.325Q176.18437 38.54375 175.41875 37.5125Q174.66875 36.465626 173.34062 36.465626Q171.7 36.465626 170.87187 37.91875L170.87187 42.98125Q171.68437 44.41875 173.35625 44.41875Q174.65312 44.41875 175.41875 43.3875Q176.18437 42.35625 176.18437 40.325ZM184.45 45.903126Q182.30937 45.903126 180.95 44.496876Q179.60625 43.075 179.60625 40.715626L179.60625 40.371876Q179.60625 38.809376 180.2 37.575Q180.80937 36.340626 181.8875 35.6375Q182.96562 34.934376 184.23125 34.934376Q186.29375 34.934376 187.43437 36.29375Q188.575 37.653126 188.575 40.184376L188.575 40.934376L181.41875 40.934376Q181.45 42.496876 182.325 43.465626Q183.2 44.41875 184.54375 44.41875Q185.5125 44.41875 186.16875 44.028126Q186.84062 43.6375 187.34062 42.996876L188.43437 43.85625Q187.10625 45.903126 184.45 45.903126ZM184.23125 36.41875Q183.1375 36.41875 182.3875 37.215626Q181.65312 38.0125 181.48125 39.45L186.7625 39.45L186.7625 39.309376Q186.68437 37.934376 186.0125 37.184376Q185.35625 36.41875 184.23125 36.41875ZM196.16875 36.746876Q195.7625 36.684376 195.29375 36.684376Q193.5125 36.684376 192.87187 38.2L192.87187 45.7L191.075 45.7L191.075 35.1375L192.825 35.1375L192.85625 36.35625Q193.74687 34.934376 195.37187 34.934376Q195.90312 34.934376 196.16875 35.075L196.16875 36.746876ZM198.95 45.7L198.95 36.528126L197.29375 36.528126L197.29375 35.1375L198.95 35.1375L198.95 34.04375Q198.95 32.35625 199.85625 31.434376Q200.77812 30.496876 202.43437 30.496876Q203.05937 30.496876 203.66875 30.653126L203.575 32.121876Q203.12187 32.04375 202.60625 32.04375Q201.71562 32.04375 201.23125 32.559376Q200.7625 33.059376 200.7625 34.0125L200.7625 35.1375L203.0125 35.1375L203.0125 36.528126L200.7625 36.528126L200.7625 45.7L198.95 45.7ZM204.59062 40.325Q204.59062 38.7625 205.2 37.528126Q205.80937 36.278126 206.8875 35.60625Q207.98125 34.934376 209.3875 34.934376Q211.54375 34.934376 212.87187 36.434376Q214.21562 37.91875 214.21562 40.403126L214.21562 40.528126Q214.21562 42.075 213.62187 43.309376Q213.02812 44.528126 211.91875 45.215626Q210.825 45.903126 209.40312 45.903126Q207.2625 45.903126 205.91875 44.403126Q204.59062 42.903126 204.59062 40.45L204.59062 40.325ZM206.40312 40.528126Q206.40312 42.29375 207.21562 43.35625Q208.04375 44.41875 209.40312 44.41875Q210.77812 44.41875 211.59062 43.340626Q212.40312 42.2625 212.40312 40.325Q212.40312 38.575 211.575 37.496876Q210.74687 36.41875 209.3875 36.41875Q208.04375 36.41875 207.21562 37.48125Q206.40312 38.54375 206.40312 40.528126ZM221.16875 36.746876Q220.7625 36.684376 220.29375 36.684376Q218.5125 36.684376 217.87187 38.2L217.87187 45.7L216.075 45.7L216.075 35.1375L217.825 35.1375L217.85625 36.35625Q218.74687 34.934376 220.37187 34.934376Q220.90312 34.934376 221.16875 35.075L221.16875 36.746876ZM224.7625 35.1375L224.80937 36.309376Q225.98125 34.934376 227.95 34.934376Q230.16875 34.934376 230.96562 36.6375Q231.49687 35.871876 232.34062 35.403126Q233.18437 34.934376 234.34062 34.934376Q237.80937 34.934376 237.87187 38.621876L237.87187 45.7L236.05937 45.7L236.05937 38.73125Q236.05937 37.590626 235.54375 37.028126Q235.02812 36.465626 233.80937 36.465626Q232.80937 36.465626 232.1375 37.075Q231.48125 37.66875 231.37187 38.684376L231.37187 45.7L229.55937 45.7L229.55937 38.778126Q229.55937 36.465626 227.29375 36.465626Q225.5125 36.465626 224.87187 37.98125L224.87187 45.7L223.05937 45.7L223.05937 35.1375L224.7625 35.1375ZM247.59062 45.7Q247.43437 45.3875 247.34062 44.590626Q246.075 45.903126 244.325 45.903126Q242.7625 45.903126 241.7625 45.0125Q240.7625 44.121876 240.7625 42.7625Q240.7625 41.121876 242.0125 40.215626Q243.27812 39.29375 245.54375 39.29375L247.30937 39.29375L247.30937 38.465626Q247.30937 37.5125 246.73125 36.95Q246.16875 36.3875 245.075 36.3875Q244.10625 36.3875 243.45 36.8875Q242.79375 37.371876 242.79375 38.059376L240.98125 38.059376Q240.98125 37.278126 241.54375 36.54375Q242.10625 35.79375 243.05937 35.371876Q244.02812 34.934376 245.18437 34.934376Q247.0125 34.934376 248.04375 35.85625Q249.075 36.7625 249.12187 38.371876L249.12187 43.23125Q249.12187 44.684376 249.48125 45.54375L249.48125 45.7L247.59062 45.7ZM244.59062 44.325Q245.45 44.325 246.2 43.8875Q246.96562 43.45 247.30937 42.746876L247.30937 40.575L245.8875 40.575Q242.575 40.575 242.575 42.5125Q242.575 43.371876 243.1375 43.85625Q243.7 44.325 244.59062 44.325ZM253.77812 35.1375L253.84062 36.465626Q255.04375 34.934376 256.9969 34.934376Q260.35626 34.934376 260.3719 38.715626L260.3719 45.7L258.575 45.7L258.575 38.7Q258.5594 37.559376 258.04376 37.0125Q257.54376 36.465626 256.45 36.465626Q255.575 36.465626 254.90312 36.934376Q254.24687 37.403126 253.87187 38.16875L253.87187 45.7L252.075 45.7L252.075 35.1375L253.77812 35.1375ZM267.3094 44.41875Q268.27814 44.41875 268.9969 43.840626Q269.71564 43.246876 269.79376 42.371876L271.5125 42.371876Q271.45 43.278126 270.8719 44.10625Q270.3094 44.91875 269.34064 45.41875Q268.3875 45.903126 267.3094 45.903126Q265.15314 45.903126 263.8719 44.465626Q262.60626 43.0125 262.60626 40.5125L262.60626 40.215626Q262.60626 38.66875 263.16876 37.465626Q263.73126 36.2625 264.79376 35.60625Q265.85626 34.934376 267.29376 34.934376Q269.075 34.934376 270.2469 35.996876Q271.4344 37.059376 271.5125 38.7625L269.79376 38.7625Q269.71564 37.746876 269.0125 37.090626Q268.325 36.41875 267.29376 36.41875Q265.91876 36.41875 265.15314 37.41875Q264.40314 38.403126 264.40314 40.278126L264.40314 40.621876Q264.40314 42.45 265.15314 43.434376Q265.90314 44.41875 267.3094 44.41875ZM277.45 45.903126Q275.3094 45.903126 273.95 44.496876Q272.60626 43.075 272.60626 40.715626L272.60626 40.371876Q272.60626 38.809376 273.2 37.575Q273.8094 36.340626 274.8875 35.6375Q275.96564 34.934376 277.23126 34.934376Q279.29376 34.934376 280.4344 36.29375Q281.575 37.653126 281.575 40.184376L281.575 40.934376L274.41876 40.934376Q274.45 42.496876 275.325 43.465626Q276.2 44.41875 277.54376 44.41875Q278.5125 44.41875 279.16876 44.028126Q279.84064 43.6375 280.34064 42.996876L281.4344 43.85625Q280.10626 45.903126 277.45 45.903126ZM277.23126 36.41875Q276.1375 36.41875 275.3875 37.215626Q274.65314 38.0125 274.48126 39.45L279.7625 39.45L279.7625 39.309376Q279.6844 37.934376 279.0125 37.184376Q278.35626 36.41875 277.23126 36.41875ZM288.9969 39.934376Q288.9969 37.715626 289.59064 35.684376Q290.1844 33.653126 291.35626 31.996876Q292.52814 30.340626 293.77814 29.653126L294.15314 30.840626Q292.73126 31.934376 291.8094 34.184376Q290.90314 36.434376 290.8094 39.215626L290.8094 40.04375Q290.8094 43.809376 292.1844 46.590626Q293.0125 48.246876 294.15314 49.184376L293.77814 50.29375Q292.48126 49.575 291.3094 47.871876Q288.9969 44.54375 288.9969 39.934376ZM305.41876 43.215626L307.45 35.1375L309.2625 35.1375L306.1844 45.7L304.71564 45.7L302.15314 37.684376L299.65314 45.7L298.1844 45.7L295.1219 35.1375L296.91876 35.1375L298.9969 43.04375L301.46564 35.1375L302.91876 35.1375L305.41876 43.215626ZM313.02814 45.7L311.23126 45.7L311.23126 35.1375L313.02814 35.1375L313.02814 45.7ZM311.075 32.325Q311.075 31.8875 311.34064 31.590626Q311.6219 31.278126 312.1375 31.278126Q312.66876 31.278126 312.9344 31.590626Q313.21564 31.8875 313.21564 32.325Q313.21564 32.7625 312.9344 33.059376Q312.66876 33.35625 312.1375 33.35625Q311.6219 33.35625 311.34064 33.059376Q311.075 32.7625 311.075 32.325ZM318.5125 32.575L318.5125 35.1375L320.4969 35.1375L320.4969 36.528126L318.5125 36.528126L318.5125 43.075Q318.5125 43.715626 318.77814 44.04375Q319.04376 44.35625 319.6844 44.35625Q319.9969 44.35625 320.54376 44.23125L320.54376 45.7Q319.825 45.903126 319.15314 45.903126Q317.95 45.903126 317.325 45.16875Q316.71564 44.434376 316.71564 43.075L316.71564 36.528126L314.79376 36.528126L314.79376 35.1375L316.71564 35.1375L316.71564 32.575L318.5125 32.575ZM324.8719 36.41875Q326.075 34.934376 327.9969 34.934376Q331.35626 34.934376 331.3719 38.715626L331.3719 45.7L329.575 45.7L329.575 38.7Q329.5594 37.559376 329.04376 37.0125Q328.54376 36.465626 327.45 36.465626Q326.575 36.465626 325.90314 36.934376Q325.2469 37.403126 324.8719 38.16875L324.8719 45.7L323.075 45.7L323.075 30.7L324.8719 30.7L324.8719 36.41875ZM340.9344 35.1375L340.9344 46.91875Q340.9344 49.965626 338.16876 49.965626Q337.575 49.965626 337.0594 49.79375L337.0594 48.340626Q337.3719 48.41875 337.8875 48.41875Q338.4969 48.41875 338.8094 48.090626Q339.1219 47.778126 339.1219 46.965626L339.1219 35.1375L340.9344 35.1375ZM338.9344 32.325Q338.9344 31.903126 339.2 31.590626Q339.48126 31.278126 339.9969 31.278126Q340.52814 31.278126 340.79376 31.590626Q341.075 31.8875 341.075 32.325Q341.075 32.7625 340.79376 33.059376Q340.52814 33.35625 339.9969 33.35625Q339.46564 33.35625 339.2 33.059376Q338.9344 32.7625 338.9344 32.325ZM350.21564 42.903126Q350.21564 42.16875 349.66876 41.7625Q349.1219 41.35625 347.7469 41.059376Q346.3719 40.7625 345.5594 40.35625Q344.7625 39.95 344.3719 39.3875Q343.9969 38.809376 343.9969 38.028126Q343.9969 36.73125 345.09064 35.840626Q346.1844 34.934376 347.90314 34.934376Q349.7 34.934376 350.8094 35.871876Q351.9344 36.79375 351.9344 38.23125L350.10626 38.23125Q350.10626 37.496876 349.48126 36.965626Q348.85626 36.41875 347.90314 36.41875Q346.90314 36.41875 346.34064 36.85625Q345.79376 37.278126 345.79376 37.98125Q345.79376 38.621876 346.3094 38.965626Q346.825 39.29375 348.1844 39.60625Q349.54376 39.903126 350.3719 40.325Q351.21564 40.73125 351.6219 41.325Q352.02814 41.91875 352.02814 42.7625Q352.02814 44.184376 350.8875 45.04375Q349.7625 45.903126 347.95 45.903126Q346.6844 45.903126 345.7 45.45Q344.73126 44.996876 344.16876 44.2Q343.6219 43.3875 343.6219 42.45L345.4344 42.45Q345.48126 43.35625 346.15314 43.8875Q346.84064 44.41875 347.95 44.41875Q348.98126 44.41875 349.59064 44.0125Q350.21564 43.590626 350.21564 42.903126ZM363.3094 44.41875Q364.27814 44.41875 364.9969 43.840626Q365.71564 43.246876 365.79376 42.371876L367.5125 42.371876Q367.45 43.278126 366.8719 44.10625Q366.3094 44.91875 365.34064 45.41875Q364.3875 45.903126 363.3094 45.903126Q361.15314 45.903126 359.8719 44.465626Q358.60626 43.0125 358.60626 40.5125L358.60626 40.215626Q358.60626 38.66875 359.16876 37.465626Q359.73126 36.2625 360.79376 35.60625Q361.85626 34.934376 363.29376 34.934376Q365.075 34.934376 366.2469 35.996876Q367.4344 37.059376 367.5125 38.7625L365.79376 38.7625Q365.71564 37.746876 365.0125 37.090626Q364.325 36.41875 363.29376 36.41875Q361.91876 36.41875 361.15314 37.41875Q360.40314 38.403126 360.40314 40.278126L360.40314 40.621876Q360.40314 42.45 361.15314 43.434376Q361.90314 44.41875 363.3094 44.41875ZM368.59064 40.325Q368.59064 38.7625 369.2 37.528126Q369.8094 36.278126 370.8875 35.60625Q371.98126 34.934376 373.3875 34.934376Q375.54376 34.934376 376.8719 36.434376Q378.21564 37.91875 378.21564 40.403126L378.21564 40.528126Q378.21564 42.075 377.6219 43.309376Q377.02814 44.528126 375.91876 45.215626Q374.825 45.903126 373.40314 45.903126Q371.2625 45.903126 369.91876 44.403126Q368.59064 42.903126 368.59064 40.45L368.59064 40.325ZM370.40314 40.528126Q370.40314 42.29375 371.21564 43.35625Q372.04376 44.41875 373.40314 44.41875Q374.77814 44.41875 375.59064 43.340626Q376.40314 42.2625 376.40314 40.325Q376.40314 38.575 375.575 37.496876Q374.7469 36.41875 373.3875 36.41875Q372.04376 36.41875 371.21564 37.48125Q370.40314 38.54375 370.40314 40.528126ZM388.9969 40.528126Q388.9969 42.95 387.8875 44.434376Q386.79376 45.903126 384.90314 45.903126Q382.98126 45.903126 381.8719 44.66875L381.8719 49.7625L380.075 49.7625L380.075 35.1375L381.71564 35.1375L381.8094 36.309376Q382.90314 34.934376 384.8719 34.934376Q386.77814 34.934376 387.8875 36.371876Q388.9969 37.809376 388.9969 40.371876L388.9969 40.528126ZM387.1844 40.325Q387.1844 38.54375 386.41876 37.5125Q385.66876 36.465626 384.34064 36.465626Q382.7 36.465626 381.8719 37.91875L381.8719 42.98125Q382.6844 44.41875 384.35626 44.41875Q385.65314 44.41875 386.41876 43.3875Q387.1844 42.35625 387.1844 40.325ZM394.52814 43.059376L396.98126 35.1375L398.91876 35.1375L394.66876 47.325Q393.6844 49.965626 391.54376 49.965626L391.2 49.934376L390.52814 49.809376L390.52814 48.340626L391.0125 48.3875Q391.9344 48.3875 392.4344 48.0125Q392.95 47.6375 393.27814 46.653126L393.6844 45.575L389.91876 35.1375L391.8875 35.1375L394.52814 43.059376ZM404.23126 40.028126Q404.23126 42.2 403.65314 44.2Q403.09064 46.2 401.91876 47.8875Q400.7469 49.575 399.45 50.29375L399.075 49.184376Q400.575 48.028126 401.48126 45.60625Q402.40314 43.184376 402.41876 40.215626L402.41876 39.903126Q402.41876 37.85625 401.98126 36.090626Q401.5594 34.325 400.79376 32.934376Q400.02814 31.54375 399.075 30.7625L399.45 29.653126Q400.7469 30.371876 401.90314 32.04375Q403.075 33.7 403.65314 35.715626Q404.23126 37.73125 404.23126 40.028126Z" fill-rule="nonzero"/></svg>